<?xml version="1.0" encoding="utf-8"?>
<!-- Generator: Fusion 360, Shaper Origin Export Add-In, Version 1.6.10  -->
<svg xmlns="http://www.w3.org/2000/svg" xmlns:xlink="http://www.w3.org/1999/xlink" xmlns:shaper="http://www.shapertools.com/namespaces/shaper" shaper:fusionaddin="version:1.6.10" width="10.2202183cm" height="4.5365605cm" version="1.1" x="0cm" y="0cm" viewBox="0 0 10.2202183 4.5365605" enable-background="new 0 0 10.2202183 4.5365605" xml:space="preserve"><path d="M-2.0883939,1.3342749 L-2.1959818,1.9085302 A0.4,0.4 10.6114709 0,1 -2.6628005,2.2280303 L-2.8573959,2.1915725 A0.4,0.4 100.6114709 0,1 -3.1837367,1.7984131 L-3.1837367,1.5947638 A0.75,0.75 0 0,0 -3.6186751,0.9141492 A1.6101091,1.6101091 94.2268898 0,1 -3.5,-2.3016896 L3.5,-2.3016896 A1.6101091,1.6101091 270 0,1 3.6186751,0.9141492 A0.75,0.75 245.1602287 0,0 3.1837367,1.5947638 L3.1837367,1.7984131 A0.4,0.4 0 0,1 2.8573959,2.1915725 L2.6628005,2.2280303 A0.4,0.4 79.3885291 0,1 2.1959818,1.9085302 L2.0883939,1.3342749 A0.6,0.6 349.3885291 0,0 1.4986548,0.8447638 L1.0658333,0.8447638 A0.6,0.6 270 0,0 0.4658333,1.4447638 L0.4658333,1.8340173 A0.4,0.4 0 0,1 0.0658333,2.2340173 L-0.0658333,2.2340173 A0.4,0.4 90 0,1 -0.4658333,1.8340173 L-0.4658333,1.4447638 A0.6,0.6 0 0,0 -1.0658333,0.8447638 L-1.4986548,0.8447638 A0.6,0.6 270 0,0 -2.0883939,1.3342749z" transform="matrix(1,0,0,-1,5.1101091,2.2348709)" fill="rgb(0,0,0)" shaper:cutDepth="0.005" stroke-linecap="round" stroke-linejoin="round" /><path d="M-2.2666667,-0.6915805 a1.1,1.1 0 1,1 2.2,0 a1.1,1.1 0 1,1 -2.2,0z" transform="matrix(1,0,0,-1,5.1101091,2.2348709)" fill="rgb(255,255,255)" stroke="rgb(0,0,0)" stroke-width="0.0010cm" stroke-linecap="round" stroke-linejoin="round" shaper:cutDepth="0.005" /><path d="M0.0666667,-0.6915805 a1.1,1.1 0 1,1 2.2,0 a1.1,1.1 0 1,1 -2.2,0z" transform="matrix(1,0,0,-1,5.1101091,2.2348709)" fill="rgb(255,255,255)" stroke="rgb(0,0,0)" stroke-width="0.0010cm" stroke-linecap="round" stroke-linejoin="round" shaper:cutDepth="0.005" /><path d="M2.4,-0.6915805 a1.1,1.1 0 1,1 2.2,0 a1.1,1.1 0 1,1 -2.2,0z" transform="matrix(1,0,0,-1,5.1101091,2.2348709)" fill="rgb(255,255,255)" stroke="rgb(0,0,0)" stroke-width="0.0010cm" stroke-linecap="round" stroke-linejoin="round" shaper:cutDepth="0.005" /><path d="M0.1641667,1.9340173 L0.1641667,0.4340173 -0.1658333,0.4340173 -0.1658333,1.9340173 0.1641667,1.9340173z" transform="matrix(1,0,0,-1,5.1101091,2.2348709)" fill="rgb(255,255,255)" stroke="rgb(0,0,0)" stroke-width="0.0010cm" stroke-linecap="round" stroke-linejoin="round" shaper:cutDepth="0.005" /><path d="M-4.6,-0.6915805 a1.1,1.1 0 1,1 2.2,0 a1.1,1.1 0 1,1 -2.2,0z" transform="matrix(1,0,0,-1,5.1101091,2.2348709)" fill="rgb(255,255,255)" stroke="rgb(0,0,0)" stroke-width="0.0010cm" stroke-linecap="round" stroke-linejoin="round" shaper:cutDepth="0.005" /><path d="M-2.5092662,1.9515756 L-2.233044,0.4772278 -2.5574005,0.416459 -2.8336227,1.8908067 -2.5092662,1.9515756z" transform="matrix(1,0,0,-1,5.1101091,2.2348709)" fill="rgb(255,255,255)" stroke="rgb(0,0,0)" stroke-width="0.0010cm" stroke-linecap="round" stroke-linejoin="round" shaper:cutDepth="0.005" /><path d="M2.5574005,0.416459 L2.233044,0.4772278 2.5092662,1.9515756 2.8336227,1.8908067 2.5574005,0.416459z" transform="matrix(1,0,0,-1,5.1101091,2.2348709)" fill="rgb(255,255,255)" stroke="rgb(0,0,0)" stroke-width="0.0010cm" stroke-linecap="round" stroke-linejoin="round" shaper:cutDepth="0.005" /></svg>