<?xml version="1.0" encoding="utf-8"?>
<!-- Generator: Fusion 360, Shaper Origin Export Add-In, Version 1.6.10  -->
<svg xmlns="http://www.w3.org/2000/svg" xmlns:xlink="http://www.w3.org/1999/xlink" xmlns:shaper="http://www.shapertools.com/namespaces/shaper" shaper:fusionaddin="version:1.6.10" width="28.0568243cm" height="11.3860649cm" version="1.1" x="0cm" y="0cm" viewBox="0 0 28.0568243 11.3860649" enable-background="new 0 0 28.0568243 11.3860649" xml:space="preserve"><path d="M13.2206841,3.0878747 L14.0737458,3.4021145 A0.2,0.2 291.0057725 0,1 14.1887622,3.6605158 L14.1602054,3.7348865 A0.5,0.5 21.0057725 0,1 13.6800433,4.0554762 A1,1 271.5345519 0,0 12.9172424,5.7320761 A0.8,0.8 317.3935725 0,1 13.0752609,6.5604125 L13.0460725,6.6364282 12.6259775,6.4751203 12.5005158,6.8018608 11.1001993,6.2641678 11.225661,5.9374272 10.9455978,5.8298886 A1,1 21.0057725 0,0 9.7947357,4.4953257 A2,2 77.4484628 0,1 8.6431763,4.4102125 L6.5880199,3.6210743 A183.1281826,183.1281826 294.3805468 0,0 -13.5395372,-4.1074977 A0.5106415,0.5106415 111.0057725 0,1 -13.8517605,-4.459852 A0.1,0.1 165.9055281 0,1 -13.7547709,-4.5842042 L-9.6913205,-4.5842042 A16,16 270 0,1 -4.9049368,-3.8515068 A410.0226975,410.0226975 112.3054959 0,0 13.2206841,3.0878747z" transform="matrix(1,0,0,-1,13.8547709,6.8018608)" fill="rgb(0,0,0)" shaper:cutDepth="0.005" stroke-linecap="round" stroke-linejoin="round" /></svg>