<?xml version="1.0" encoding="utf-8"?>
<!-- Generator: Fusion 360, Shaper Origin Export Add-In, Version 1.6.10  -->
<svg xmlns="http://www.w3.org/2000/svg" xmlns:xlink="http://www.w3.org/1999/xlink" xmlns:shaper="http://www.shapertools.com/namespaces/shaper" shaper:fusionaddin="version:1.6.10" width="3.0638471cm" height="1.3097198cm" version="1.1" x="0cm" y="0cm" viewBox="0 0 3.0638471 1.3097198" enable-background="new 0 0 3.0638471 1.3097198" xml:space="preserve"><path d="M0.4603238,1.0187239 L0.4603238,1.0187239 0.4569899,1.0359191 0.454644,1.044182 0.4514835,1.0520433 0.4473031,1.0594019 0.4422638,1.066337 0.4307536,1.0795015 0.4307536,1.0795015 0.4155912,1.0895994 0.4077379,1.0938772 0.3995583,1.0972302 0.3910007,1.0995118 0.3821455,1.10095 0.3639392,1.102421 0.3639392,1.102421 0.3412031,1.0998027 0.3303455,1.0974041 0.3201004,1.093698 0.3106185,1.0883628 0.3017753,1.0816644 0.2851534,1.0659954 0.2851534,1.0659954 0.2749619,1.0498476 0.270602,1.0415229 0.2671249,1.0328972 0.2647055,1.023911 0.2631364,1.014635 0.2614152,0.9955997 0.2614152,0.9955997 0.2632785,0.9761804 0.2650258,0.9667915 0.2677518,0.9577874 0.2717069,0.9492666 0.2767024,0.9411549 0.2884276,0.9256134 0.2884276,0.9256134 0.3030451,0.9140582 0.3106894,0.9090945 0.3187361,0.9051074 0.3272714,0.9023057 0.3362038,0.9004674 0.3547304,0.8983965 0.3547304,0.8983965 0.36991,0.9000222 0.3773243,0.9013712 0.3845281,0.9033636 0.3914822,0.9061186 0.3982373,0.909482 0.4114153,0.9172232 0.3952489,0.8365956 0.2755354,0.8365956 0.2755354,0.8013978 0.4247167,0.8013978 0.4537754,0.9554906 0.4191916,0.9599926 0.4191916,0.9599926 0.4144741,0.9537769 0.409253,0.9480989 0.4032094,0.9432994 0.3966813,0.9390172 0.3966813,0.9390172 0.3890198,0.9355405 0.381153,0.9328703 0.3729515,0.9315153 0.3645531,0.930934 0.3645531,0.930934 0.3516353,0.9321719 0.3453978,0.9333425 0.3394259,0.9351753 0.3337884,0.9378416 0.3284352,0.9412164 0.3182025,0.9491468 0.3182025,0.9491468 0.3103022,0.9602942 0.3069723,0.9660971 0.3043856,0.9721747 0.3026446,0.978565 0.3015635,0.9851991 0.3005012,0.998874 0.3005012,0.998874 0.3016385,1.0134166 0.3027762,1.0204841 0.3045968,1.0273073 0.3072895,1.0338182 0.3107429,1.0400569 0.3189187,1.0520799 0.3189187,1.0520799 0.3286673,1.0604889 0.3337972,1.0641173 0.3392337,1.0670546 0.3450475,1.0691417 0.3511721,1.0705284 0.3639392,1.0721345 0.3639392,1.0721345 0.3743251,1.0710749 0.3841989,1.0686657 0.3932093,1.0639803 0.401695,1.0579121 0.401695,1.0579121 0.4092637,1.048554 0.4125793,1.0436465 0.4153344,1.038466 0.419128,1.0272683 0.4216472,1.0154497 0.4603238,1.0187239z" transform="matrix(1,0,0,-1,2.3583662,1.1026257)" fill="rgb(0,0,0)" stroke-linecap="round" stroke-linejoin="round" /><path d="M-0.1994307,1.0619026 L-0.0522954,1.0619026 -0.0522954,1.0619026 -0.059549,1.0515207 -0.067848,1.0419503 -0.067848,1.0419503 -0.0887196,1.0226147 -0.1104128,1.0041945 -0.1104128,1.0041945 -0.1396608,0.978705 -0.1672001,0.9513978 -0.1672001,0.9513978 -0.1743113,0.9428972 -0.1809066,0.9340568 -0.1865819,0.9246107 -0.1916544,0.9147675 -0.1916544,0.9147675 -0.1947271,0.9061715 -0.1971343,0.8974378 -0.1984189,0.888472 -0.1990213,0.8793651 -0.1990213,0.8793651 -0.197095,0.862671 -0.1953904,0.8546394 -0.1927962,0.8469863 -0.1891089,0.8397983 -0.1845224,0.832993 -0.1738508,0.8200199 -0.1738508,0.8200199 -0.1584742,0.8093311 -0.1504805,0.8048263 -0.1421209,0.8013276 -0.1333449,0.7989733 -0.1242442,0.7975119 -0.1055014,0.7960772 -0.1055014,0.7960772 -0.0870223,0.7973747 -0.0780179,0.7987167 -0.0692957,0.8008905 -0.0609363,0.8041335 -0.0528978,0.8083226 -0.0373568,0.8182805 -0.0373568,0.8182805 -0.025607,0.8323432 -0.0205263,0.8397468 -0.0163969,0.8475962 -0.0133438,0.8559501 -0.0111283,0.8646966 -0.0080936,0.8828439 -0.0459516,0.8867321 -0.0459516,0.8867321 -0.0469794,0.8745358 -0.0479853,0.8686247 -0.0495818,0.8629381 -0.0519361,0.8575397 -0.0549584,0.8523952 -0.0621183,0.8425302 -0.0621183,0.8425302 -0.0715868,0.8355004 -0.076528,0.832522 -0.0817174,0.8301868 -0.0871945,0.8285973 -0.0928981,0.8275948 -0.1046829,0.8265684 -0.1046829,0.8265684 -0.1159362,0.8275575 -0.1266348,0.8300151 -0.1316166,0.8322162 -0.1363727,0.835015 -0.1455083,0.8416093 -0.1455083,0.8416093 -0.1521275,0.8496953 -0.1549751,0.8539343 -0.1572684,0.8584087 -0.1599513,0.8681654 -0.1611631,0.8785465 -0.1611631,0.8785465 -0.1593749,0.8905555 -0.1561222,0.90202 -0.1506624,0.9126639 -0.1439736,0.9228507 -0.1439736,0.9228507 -0.1287503,0.9400612 -0.1127054,0.9564349 -0.0955759,0.9717037 -0.0778754,0.986391 -0.0778754,0.986391 -0.0527879,1.0080647 -0.0410253,1.0197221 -0.0296829,1.0318207 -0.0296829,1.0318207 -0.0224401,1.0410858 -0.0158214,1.0507268 -0.0102863,1.0610206 -0.0054333,1.0717252 -0.0054333,1.0717252 -0.0019992,1.0842988 -0.0011361,1.097305 -0.1994307,1.097305 -0.1994307,1.0619026z" transform="matrix(1,0,0,-1,2.3583662,1.1026257)" fill="rgb(0,0,0)" stroke-linecap="round" stroke-linejoin="round" /><path d="M-0.6655972,1.0619026 L-0.5184619,1.0619026 -0.5184619,1.0619026 -0.5257154,1.0515207 -0.5340145,1.0419503 -0.5340145,1.0419503 -0.5548861,1.0226147 -0.5765793,1.0041945 -0.5765793,1.0041945 -0.6058272,0.978705 -0.6333663,0.9513978 -0.6333663,0.9513978 -0.6404777,0.9428973 -0.647073,0.9340569 -0.6527484,0.9246107 -0.6578209,0.9147675 -0.6578209,0.9147675 -0.6608935,0.9061714 -0.6633006,0.8974377 -0.6645851,0.8884719 -0.6651876,0.8793651 -0.6651876,0.8793651 -0.6632614,0.862671 -0.6615568,0.8546393 -0.6589627,0.8469863 -0.6552754,0.8397983 -0.6506889,0.8329929 -0.6400173,0.8200199 -0.6400173,0.8200199 -0.6246407,0.8093311 -0.616647,0.8048263 -0.6082874,0.8013276 -0.5995114,0.7989733 -0.5904107,0.7975119 -0.5716679,0.7960772 -0.5716679,0.7960772 -0.5531888,0.7973747 -0.5441844,0.7987167 -0.5354622,0.8008905 -0.5271028,0.8041335 -0.5190643,0.8083226 -0.5035233,0.8182805 -0.5035233,0.8182805 -0.4917735,0.8323432 -0.4866928,0.8397468 -0.4825634,0.8475962 -0.4795103,0.8559501 -0.4772948,0.8646966 -0.4742601,0.8828439 -0.5121181,0.8867321 -0.5121181,0.8867321 -0.5131457,0.8745357 -0.5141516,0.8686246 -0.5157481,0.8629381 -0.5181024,0.8575396 -0.5211247,0.8523951 -0.5282848,0.8425302 -0.5282848,0.8425302 -0.5377533,0.8355004 -0.5426945,0.832522 -0.5478839,0.8301868 -0.553361,0.8285973 -0.5590646,0.8275948 -0.5708494,0.8265684 -0.5708494,0.8265684 -0.5821027,0.8275575 -0.5928013,0.8300151 -0.5977831,0.8322162 -0.6025392,0.835015 -0.6116748,0.8416093 -0.6116748,0.8416093 -0.618294,0.8496953 -0.6211416,0.8539343 -0.6234349,0.8584087 -0.6261178,0.8681654 -0.6273296,0.8785465 -0.6273296,0.8785465 -0.6255414,0.8905555 -0.6222887,0.90202 -0.6168289,0.9126639 -0.6101401,0.9228507 -0.6101401,0.9228507 -0.5949168,0.9400612 -0.5788719,0.9564349 -0.5617424,0.9717037 -0.5440419,0.986391 -0.5440419,0.986391 -0.5189544,1.0080647 -0.5071918,1.0197221 -0.4958494,1.0318207 -0.4958494,1.0318207 -0.4886066,1.0410858 -0.4819879,1.0507268 -0.4764528,1.0610206 -0.4715998,1.0717252 -0.4715998,1.0717252 -0.4681654,1.0842987 -0.4673023,1.097305 -0.6655972,1.097305 -0.6655972,1.0619026z" transform="matrix(1,0,0,-1,2.3583662,1.1026257)" fill="rgb(0,0,0)" stroke-linecap="round" stroke-linejoin="round" /><path d="M-0.93838,1.01811 L-0.93838,1.01811 -0.9417977,1.0353397 -0.9441835,1.0436209 -0.9473818,1.0515017 -0.9515907,1.0588845 -0.9566433,1.0658514 -0.9681551,1.0790922 -0.9681551,1.0790922 -0.9829611,1.0893238 -0.9906419,1.0936803 -0.9986559,1.0971259 -1.0070628,1.0994973 -1.0157822,1.1010146 -1.0337417,1.1026257 -1.0337417,1.1026257 -1.0537412,1.100721 -1.0634254,1.0989457 -1.0727308,1.0961829 -1.0815614,1.0921824 -1.0899915,1.0871375 -1.1061838,1.0753064 -1.1061838,1.0753064 -1.1182466,1.060759 -1.123444,1.0531271 -1.1276405,1.0450652 -1.1306113,1.0364768 -1.1325769,1.0274566 -1.1348331,1.0086966 -1.1348331,1.0086966 -1.1338951,0.9957372 -1.1315091,0.9832315 -1.1293539,0.97728 -1.1266011,0.9715158 -1.1200991,0.9602996 -1.1200991,0.9602996 -1.1113695,0.9513595 -1.1067247,0.9473382 -1.1017438,0.9438552 -1.0906735,0.9386649 -1.078762,0.9348221 -1.078762,0.9348221 -1.08773,0.9299725 -1.0960407,0.9243326 -1.1032105,0.9173212 -1.1096625,0.9094469 -1.1096625,0.9094469 -1.1140863,0.9011328 -1.1175165,0.8925249 -1.1192995,0.88343 -1.1200991,0.8740445 -1.1200991,0.8740445 -1.1192114,0.8638545 -1.1173076,0.8539508 -1.1137273,0.844519 -1.1091509,0.8353678 -1.1091509,0.8353678 -1.1026744,0.8266205 -1.0954057,0.8187385 -1.0868482,0.8122643 -1.0775344,0.8066161 -1.0775344,0.8066161 -1.0666681,0.8021085 -1.0555592,0.7986337 -1.044052,0.7968541 -1.0323093,0.7960772 -1.0323093,0.7960772 -1.0161279,0.7974595 -1.0082525,0.7987676 -1.0006355,0.8008161 -0.9933438,0.803797 -0.9863287,0.8075705 -0.9727595,0.8164388 -0.9727595,0.8164388 -0.9615579,0.8288629 -0.9565813,0.8354158 -0.9523531,0.8423773 -0.9489888,0.8498105 -0.9463033,0.8576144 -0.9420636,0.8738398 -0.9788985,0.8803883 -0.9788985,0.8803883 -0.9812262,0.8691827 -0.9847241,0.8585301 -0.9903232,0.8488706 -0.9973161,0.8398698 -0.9973161,0.8398698 -1.0053308,0.8340415 -1.0138666,0.8295748 -1.023249,0.8273208 -1.0331278,0.8263637 -1.0331278,0.8263637 -1.0429104,0.8272616 -1.0521972,0.8294508 -1.0606299,0.8338649 -1.0685303,0.8396652 -1.0685303,0.8396652 -1.0744041,0.847046 -1.0789272,0.8549842 -1.0812373,0.8638355 -1.0822408,0.8732259 -1.0822408,0.8732259 -1.0809896,0.8844542 -1.0797908,0.8897758 -1.0779044,0.8947464 -1.0751489,0.8992734 -1.0716504,0.9034211 -1.0634143,0.911084 -1.0634143,0.911084 -1.0534573,0.916323 -1.0431519,0.920368 -1.032273,0.9224477 -1.021054,0.9233623 -1.021054,0.9233623 -1.0151195,0.9229531 -1.0110266,0.9552859 -1.0110266,0.9552859 -1.0238996,0.9524316 -1.0370159,0.9511932 -1.0370159,0.9511932 -1.0487277,0.9523555 -1.0543873,0.9534315 -1.0598112,0.9551014 -1.0649404,0.9575139 -1.0698218,0.9605511 -1.0791714,0.9676666 -1.0791714,0.9676666 -1.0863164,0.9769233 -1.0893685,0.9817607 -1.0917962,0.9868489 -1.0934795,0.9922361 -1.0945667,0.9978627 -1.0957472,1.0095151 -1.0957472,1.0095151 -1.0944178,1.0219409 -1.0932216,1.0279388 -1.0913878,1.0336788 -1.0887648,1.0390996 -1.0854873,1.0442556 -1.0778413,1.0541263 -1.0778413,1.0541263 -1.0681611,1.0617694 -1.0630995,1.065053 -1.057772,1.067691 -1.0521217,1.0695453 -1.046209,1.0707624 -1.0339463,1.0721345 -1.0339463,1.0721345 -1.0237422,1.0711264 -1.014033,1.068801 -1.0051626,1.064243 -0.9968045,1.0583214 -0.9968045,1.0583214 -0.9889058,1.0482946 -0.9854249,1.0430464 -0.9825003,1.0375193 -0.9782647,1.0256562 -0.9752152,1.0131986 -0.93838,1.01811z" transform="matrix(1,0,0,-1,2.3583662,1.1026257)" fill="rgb(0,0,0)" stroke-linecap="round" stroke-linejoin="round" /><path d="M-1.5385849,0.8365956 L-1.6855154,0.8365956 -1.6855154,0.8365956 -1.6707264,0.8551539 -1.6568265,0.8743154 -1.6443227,0.8944244 -1.6326163,0.9150745 -1.6326163,0.9150745 -1.6211475,0.9384872 -1.6107267,0.9623132 -1.6020603,0.9868312 -1.5944512,1.0117662 -1.5944512,1.0117662 -1.5892785,1.0328851 -1.5849725,1.0541401 -1.5822306,1.0756404 -1.5805359,1.097305 -1.6183939,1.097305 -1.6183939,1.097305 -1.6203997,1.0764239 -1.6232172,1.0556832 -1.6274312,1.0351843 -1.632514,1.0148357 -1.632514,1.0148357 -1.6413329,0.9879895 -1.6512797,0.9616142 -1.663087,0.936016 -1.6759996,0.9108794 -1.6759996,0.9108794 -1.6885506,0.8894547 -1.7019511,0.8686316 -1.7168698,0.8488836 -1.7327869,0.8298426 -1.7327869,0.8011932 -1.5385849,0.8011932 -1.5385849,0.8365956z" transform="matrix(1,0,0,-1,2.3583662,1.1026257)" fill="rgb(0,0,0)" stroke-linecap="round" stroke-linejoin="round" /><path d="M-2.0776026,1.097305 L-2.1197579,1.097305 -2.1527045,1.0064456 -2.2781479,1.0064456 -2.3131411,1.097305 -2.3583662,1.097305 -2.2355835,0.797305 -2.1928141,0.797305 -2.0776026,1.097305z" transform="matrix(1,0,0,-1,2.3583662,1.1026257)" fill="rgb(0,0,0)" stroke-linecap="round" stroke-linejoin="round" /><path d="M-1.1118689,0.2 L-1.1680765,0.2 -1.2120051,0.078854 -1.3792634,0.078854 -1.425921,0.2 -1.4862208,0.2 -1.3225102,-0.2 -1.2654843,-0.2 -1.1118689,0.2z" transform="matrix(1,0,0,-1,2.3583662,1.1026257)" fill="rgb(0,0,0)" stroke-linecap="round" stroke-linejoin="round" /><path d="M-0.2703958,0.0051842 L-0.2703958,0.0051842 -0.2721801,0.031056 -0.2737443,0.0438377 -0.2761151,0.0564341 -0.2794724,0.0688039 -0.2836378,0.0809883 -0.2933152,0.1050477 -0.2933152,0.1050477 -0.3064257,0.1270534 -0.3136174,0.1374801 -0.3215729,0.1472155 -0.3304633,0.1561046 -0.3401197,0.1643004 -0.3607094,0.1795361 -0.3607094,0.1795361 -0.3846039,0.1912735 -0.3967839,0.1962911 -0.4092431,0.2002875 -0.422036,0.2030635 -0.4350967,0.2048602 -0.4616644,0.2068213 -0.4616644,0.2068213 -0.4870366,0.2049207 -0.4995377,0.2032441 -0.5118168,0.2006961 -0.5238235,0.1970788 -0.5356065,0.1925832 -0.5587995,0.1821282 -0.5587995,0.1821282 -0.5800396,0.1676444 -0.5899978,0.1597665 -0.5991617,0.1511255 -0.607368,0.1415647 -0.6148007,0.1312605 -0.6283765,0.1094134 -0.6283765,0.1094134 -0.6390436,0.0832357 -0.643587,0.0699656 -0.6471825,0.0564778 -0.649659,0.0427332 -0.6512451,0.0287843 -0.6529331,0.0005457 -0.6529331,0.0005457 -0.651344,-0.0272352 -0.649843,-0.0409694 -0.6474945,-0.0545159 -0.6440791,-0.0678262 -0.6397576,-0.080936 -0.6296043,-0.1068213 -0.6296043,-0.1068213 -0.6164039,-0.1287235 -0.6091668,-0.1390887 -0.6011654,-0.1487507 -0.5922252,-0.1575488 -0.5825128,-0.1656365 -0.561801,-0.1806276 -0.561801,-0.1806276 -0.5381028,-0.1919805 -0.5260347,-0.1968389 -0.513704,-0.2007156 -0.5010581,-0.2034152 -0.4881587,-0.2051677 -0.4619374,-0.2070941 -0.4619374,-0.2070941 -0.4424504,-0.2054338 -0.4232434,-0.2030972 -0.4045965,-0.1994083 -0.3955706,-0.1968454 -0.3867897,-0.1936908 -0.3782826,-0.1898752 -0.3700325,-0.1854389 -0.3541567,-0.1750587 -0.3388687,-0.1632593 -0.3238745,-0.1507504 -0.3238745,-0.1507504 -0.3114557,-0.1333122 -0.2998063,-0.1155986 -0.2896953,-0.0973339 -0.2854572,-0.0879088 -0.2818872,-0.0782445 -0.2789846,-0.068341 -0.2766685,-0.0582275 -0.2734606,-0.0374904 -0.271593,-0.0162731 -0.2703958,0.0051842z" transform="matrix(1,0,0,-1,2.3583662,1.1026257)" fill="rgb(0,0,0)" stroke-linecap="round" stroke-linejoin="round" /><path d="M0.0264666,0.2 L-0.2234652,0.2 -0.2234652,0.1527967 -0.0264666,0.1527967 -0.0264666,-0.2 0.0264666,-0.2 0.0264666,0.2z" transform="matrix(1,0,0,-1,2.3583662,1.1026257)" fill="rgb(0,0,0)" stroke-linecap="round" stroke-linejoin="round" /><path d="M-0.9083219,0.0431105 L-1.0259209,0.0431105 -1.0259209,0.1175989 -1.0259209,0.1175989 -1.0143491,0.1261096 -1.002276,0.1337575 -0.9894699,0.1401439 -0.9762621,0.145839 -0.9762621,0.145839 -0.9599216,0.1513863 -0.9433423,0.1557184 -0.9263625,0.1580114 -0.9091406,0.1590723 -0.9091406,0.1590723 -0.8897464,0.1577174 -0.8801691,0.1565274 -0.8707356,0.1547224 -0.8614781,0.1521643 -0.852365,0.1489891 -0.8343792,0.1416098 -0.8343792,0.1416098 -0.8179399,0.1312913 -0.8102406,0.1256089 -0.8031659,0.1192989 -0.7968482,0.1122278 -0.7911453,0.1045388 -0.7807641,0.088131 -0.7807641,0.088131 -0.7724478,0.0665543 -0.7689588,0.0556222 -0.7662708,0.0445182 -0.7644792,0.0332216 -0.7633824,0.0217759 -0.7623467,-0.0013642 -0.7623467,-0.0013642 -0.7634489,-0.0220085 -0.7660123,-0.0423724 -0.7710587,-0.0622598 -0.777626,-0.0818554 -0.777626,-0.0818554 -0.7827723,-0.0924871 -0.7885577,-0.1027119 -0.7953979,-0.112265 -0.802865,-0.1214188 -0.802865,-0.1214188 -0.8124043,-0.1303355 -0.8225838,-0.1383213 -0.8337816,-0.1448262 -0.8455663,-0.1504775 -0.8455663,-0.1504775 -0.8608596,-0.1554105 -0.8763788,-0.1591044 -0.8922502,-0.1608656 -0.9083219,-0.161528 -0.9083219,-0.161528 -0.9224689,-0.1608013 -0.9364194,-0.1590603 -0.950033,-0.1555802 -0.963438,-0.1510232 -0.963438,-0.1510232 -0.974242,-0.1457195 -0.9843867,-0.1395285 -0.9933784,-0.1317857 -1.001637,-0.1230559 -1.001637,-0.1230559 -1.0087528,-0.1117755 -1.0149761,-0.10007 -1.019864,-0.0877285 -1.0240111,-0.0750341 -1.0717597,-0.088131 -1.0717597,-0.088131 -1.0664995,-0.105591 -1.0600356,-0.122484 -1.051443,-0.138374 -1.0414734,-0.1536153 -1.0414734,-0.1536153 -1.0295401,-0.1659171 -1.0232544,-0.1716254 -1.0165861,-0.1768029 -1.0094728,-0.1813629 -1.0020083,-0.1854357 -0.9864941,-0.1927695 -0.9864941,-0.1927695 -0.9673604,-0.1988972 -0.9479593,-0.2035604 -0.9281288,-0.205873 -0.9080491,-0.2068213 -0.9080491,-0.2068213 -0.8805857,-0.2051697 -0.867031,-0.2035983 -0.8536886,-0.2011322 -0.8406141,-0.1975375 -0.8277678,-0.1929811 -0.8024559,-0.1822647 -0.8024559,-0.1822647 -0.7806798,-0.167435 -0.7705208,-0.1593341 -0.7612365,-0.1504101 -0.7529976,-0.1405022 -0.7455977,-0.1298048 -0.7321963,-0.1070941 -0.7321963,-0.1070941 -0.7217988,-0.0808099 -0.7173371,-0.0675018 -0.7137598,-0.0539944 -0.7112524,-0.0402462 -0.7096121,-0.0263026 -0.7077765,0.00191 -0.7077765,0.00191 -0.7095168,0.0296073 -0.7111239,0.043284 -0.7136153,0.0567545 -0.7172117,0.0699672 -0.7217363,0.0829634 -0.7323327,0.1085948 -0.7323327,0.1085948 -0.7465355,0.1307987 -0.7543163,0.1412245 -0.7629124,0.150839 -0.7725015,0.1594651 -0.7829004,0.1672853 -0.805048,0.1815825 -0.805048,0.1815825 -0.8307371,0.1924405 -0.8437694,0.197082 -0.857027,0.2007787 -0.8705537,0.2033463 -0.8842964,0.205008 -0.9121418,0.2068213 -0.9121418,0.2068213 -0.9339168,0.205577 -0.9554223,0.2028677 -0.9764806,0.1977267 -0.9972715,0.1911323 -0.9972715,0.1911323 -1.0186584,0.1816201 -1.0393402,0.1708884 -1.0588835,0.1581876 -1.0777626,0.1443383 -1.0777626,-0.0040928 -0.9083219,-0.0038199 -0.9083219,0.0431105z" transform="matrix(1,0,0,-1,2.3583662,1.1026257)" fill="rgb(0,0,0)" stroke-linecap="round" stroke-linejoin="round" /><path d="M-1.527967,0.2 L-1.5787177,0.2 -1.5787177,-0.1143247 -1.7888131,0.2 -1.8431106,0.2 -1.8431106,-0.2 -1.7923598,-0.2 -1.7923598,0.1140518 -1.5822644,-0.2 -1.527967,-0.2 -1.527967,0.2z" transform="matrix(1,0,0,-1,2.3583662,1.1026257)" fill="rgb(0,0,0)" stroke-linecap="round" stroke-linejoin="round" /><path d="M-1.825897,0.9346175 L-1.825897,0.9346175 -1.8137265,0.9388587 -1.8024093,0.9444208 -1.7973146,0.9480749 -1.7925645,0.9522625 -1.7836392,0.9615274 -1.7836392,0.9615274 -1.777107,0.9729021 -1.7743391,0.9787444 -1.7721685,0.9847725 -1.7697583,0.9974292 -1.7688029,1.0105383 -1.7688029,1.0105383 -1.7708435,1.0289243 -1.7726696,1.0377808 -1.7754627,1.0462335 -1.7794497,1.0541875 -1.7844244,1.0617291 -1.7960198,1.076125 -1.7960198,1.076125 -1.8120423,1.0876902 -1.8203856,1.0925928 -1.8291271,1.0964402 -1.838331,1.0990622 -1.8478993,1.1007184 -1.8676433,1.102421 -1.8676433,1.102421 -1.8873751,1.100729 -1.8969393,1.0990809 -1.9061417,1.0964702 -1.9148848,1.0926379 -1.923232,1.0877529 -1.9392664,1.0762273 -1.9392664,1.0762273 -1.9508036,1.062059 -1.9557624,1.054633 -1.9597494,1.0467967 -1.9625549,1.0384616 -1.9643987,1.0297205 -1.9664833,1.0115615 -1.9664833,1.0115615 -1.9654943,0.9987868 -1.9631095,0.9864405 -1.9583271,0.97483 -1.9520566,0.9636761 -1.9520566,0.9636761 -1.9432039,0.9540445 -1.9384849,0.9496456 -1.9334152,0.9457469 -1.9221382,0.9395708 -1.9100034,0.9346175 -1.9100034,0.9346175 -1.9195535,0.930349 -1.9284569,0.925196 -1.9362223,0.9184861 -1.9432571,0.9107771 -1.9432571,0.9107771 -1.9479895,0.9023067 -1.9516123,0.8934969 -1.9534354,0.8841364 -1.9542053,0.8744537 -1.9542053,0.8744537 -1.9523144,0.8588023 -1.9506696,0.8512774 -1.9481855,0.8441137 -1.9446784,0.83739 -1.9403369,0.8310253 -1.9302628,0.8188944 -1.9302628,0.8188944 -1.9160757,0.8088277 -1.9086956,0.8045654 -1.9009719,0.8012277 -1.8928508,0.7989592 -1.8844173,0.7975315 -1.8670294,0.7960772 -1.8670294,0.7960772 -1.8498364,0.7974716 -1.8414927,0.7988564 -1.8334526,0.8010663 -1.8257994,0.8043281 -1.8184825,0.8085045 -1.80441,0.8183828 -1.80441,0.8183828 -1.7944565,0.8304019 -1.7901749,0.8367091 -1.7867276,0.8433735 -1.784297,0.8504733 -1.782696,0.8579284 -1.7808766,0.8734306 -1.7808766,0.8734306 -1.781626,0.8833509 -1.7834472,0.8929469 -1.7871131,0.9019846 -1.7919271,0.9106748 -1.7919271,0.9106748 -1.799117,0.9184696 -1.8070537,0.9252272 -1.8161477,0.9303775 -1.825897,0.9346175z" transform="matrix(1,0,0,-1,2.3583662,1.1026257)" fill="rgb(0,0,0)" stroke-linecap="round" stroke-linejoin="round" /><path d="M-1.3713951,1.097305 L-1.4110949,1.097305 -1.4110949,0.8327075 -1.5103447,0.8327075 -1.5103447,0.797305 -1.2725546,0.797305 -1.2725546,0.8327075 -1.3713951,0.8327075 -1.3713951,1.097305z" transform="matrix(1,0,0,-1,2.3583662,1.1026257)" fill="rgb(0,0,0)" stroke-linecap="round" stroke-linejoin="round" /><path d="M-0.8231685,1.097305 L-0.8600037,1.097305 -0.8600037,1.025477 -0.900522,1.025477 -0.900522,0.9917116 -0.8600037,0.9917116 -0.8600037,0.797305 -0.8299217,0.797305 -0.6930187,0.9917116 -0.6930187,1.025477 -0.8231685,1.025477 -0.8231685,1.097305z" transform="matrix(1,0,0,-1,2.3583662,1.1026257)" fill="rgb(0,0,0)" stroke-linecap="round" stroke-linejoin="round" /><path d="M-0.2389257,1.0187239 L-0.2389257,1.0187239 -0.2422597,1.035919 -0.2446057,1.0441819 -0.2477662,1.0520432 -0.2519466,1.0594018 -0.2569858,1.066337 -0.268496,1.0795015 -0.268496,1.0795015 -0.2836584,1.0895995 -0.2915117,1.0938772 -0.2996913,1.0972302 -0.3082489,1.0995118 -0.3171041,1.10095 -0.3353105,1.102421 -0.3353105,1.102421 -0.3580465,1.0998027 -0.3689041,1.097404 -0.3791492,1.0936979 -0.3886311,1.0883627 -0.3974744,1.0816643 -0.4140963,1.0659954 -0.4140963,1.0659954 -0.4242878,1.0498476 -0.4286478,1.0415229 -0.4321248,1.0328972 -0.4345442,1.023911 -0.4361134,1.014635 -0.4378345,0.9955997 -0.4378345,0.9955997 -0.4359713,0.9761804 -0.4342241,0.9667915 -0.4314981,0.9577874 -0.4275429,0.9492666 -0.4225474,0.9411549 -0.4108221,0.9256134 -0.4108221,0.9256134 -0.3962046,0.9140582 -0.3885604,0.9090945 -0.3805136,0.9051074 -0.3719783,0.9023057 -0.3630459,0.9004674 -0.3445194,0.8983965 -0.3445194,0.8983965 -0.3293398,0.9000222 -0.3219255,0.9013713 -0.3147217,0.9033636 -0.3077675,0.9061186 -0.3010125,0.9094821 -0.2878344,0.9172232 -0.3040006,0.8365956 -0.4237144,0.8365956 -0.4237144,0.8013978 -0.2745328,0.8013978 -0.2454741,0.9554906 -0.2800581,0.9599926 -0.2800581,0.9599926 -0.2847756,0.9537769 -0.2899966,0.9480989 -0.2960402,0.9432994 -0.3025682,0.9390172 -0.3025682,0.9390172 -0.3102298,0.9355405 -0.3180966,0.9328703 -0.3262981,0.9315153 -0.3346965,0.930934 -0.3346965,0.930934 -0.3476143,0.9321719 -0.3538518,0.9333426 -0.3598237,0.9351753 -0.3654611,0.9378417 -0.3708144,0.9412164 -0.381047,0.9491468 -0.381047,0.9491468 -0.3889474,0.9602941 -0.3922774,0.966097 -0.3948641,0.9721747 -0.3966051,0.9785649 -0.3976862,0.9851991 -0.3987484,0.998874 -0.3987484,0.998874 -0.3976112,1.0134166 -0.3964734,1.0204842 -0.3946528,1.0273073 -0.3919601,1.0338182 -0.3885067,1.0400569 -0.3803308,1.0520799 -0.3803308,1.0520799 -0.3705822,1.0604888 -0.3654524,1.0641173 -0.3600159,1.0670546 -0.3542021,1.0691417 -0.3480775,1.0705284 -0.3353105,1.0721345 -0.3353105,1.0721345 -0.3249246,1.0710749 -0.3150507,1.0686658 -0.3060404,1.0639804 -0.2975547,1.0579121 -0.2975547,1.0579121 -0.2899861,1.048554 -0.2866705,1.0436465 -0.2839153,1.038466 -0.2801217,1.0272683 -0.2776024,1.0154497 -0.2389257,1.0187239z" transform="matrix(1,0,0,-1,2.3583662,1.1026257)" fill="rgb(0,0,0)" stroke-linecap="round" stroke-linejoin="round" /><path d="M0.1705558,0.9346175 L0.1705558,0.9346175 0.1827263,0.9388587 0.1940435,0.9444209 0.1991382,0.9480749 0.2038882,0.9522625 0.2128136,0.9615274 0.2128136,0.9615274 0.2193458,0.9729021 0.2221137,0.9787444 0.2242843,0.9847725 0.2266945,0.9974292 0.2276499,1.0105383 0.2276499,1.0105383 0.2256093,1.0289243 0.2237832,1.0377808 0.2209901,1.0462335 0.2170031,1.0541875 0.2120284,1.0617291 0.200433,1.076125 0.200433,1.076125 0.1844105,1.0876902 0.1760673,1.0925928 0.1673258,1.0964403 0.1581219,1.0990622 0.1485536,1.1007184 0.1288096,1.102421 0.1288096,1.102421 0.1090778,1.100729 0.0995135,1.0990809 0.0903111,1.0964702 0.081568,1.0926379 0.0732207,1.0877529 0.0571861,1.0762273 0.0571861,1.0762273 0.0456488,1.0620591 0.04069,1.0546331 0.036703,1.0467968 0.0338974,1.0384617 0.0320537,1.0297206 0.0299692,1.0115615 0.0299692,1.0115615 0.0309582,0.9987868 0.0333431,0.9864405 0.0381256,0.9748299 0.0443962,0.9636761 0.0443962,0.9636761 0.0532491,0.9540446 0.057968,0.9496458 0.0630378,0.9457471 0.0743147,0.9395709 0.0864494,0.9346175 0.0864494,0.9346175 0.0768993,0.9303489 0.067996,0.9251959 0.0602306,0.9184861 0.0531957,0.9107771 0.0531957,0.9107771 0.0484633,0.9023067 0.0448405,0.8934969 0.0430174,0.8841364 0.0422475,0.8744537 0.0422475,0.8744537 0.0441384,0.8588022 0.0457832,0.8512774 0.0482674,0.8441136 0.0517744,0.83739 0.0561161,0.8310253 0.0661902,0.8188944 0.0661902,0.8188944 0.0803773,0.8088276 0.0877573,0.8045653 0.095481,0.8012277 0.1036021,0.7989592 0.1120356,0.7975314 0.1294234,0.7960772 0.1294234,0.7960772 0.1466164,0.7974717 0.1549601,0.7988565 0.1630002,0.8010663 0.1706534,0.8043282 0.1779703,0.8085045 0.1920428,0.8183828 0.1920428,0.8183828 0.2019964,0.8304018 0.206278,0.836709 0.2097254,0.8433734 0.2121561,0.8504732 0.213757,0.8579283 0.2155763,0.8734306 0.2155763,0.8734306 0.2148269,0.883351 0.2130057,0.892947 0.2093398,0.9019846 0.2045257,0.9106748 0.2045257,0.9106748 0.1973358,0.9184695 0.1893991,0.9252272 0.1803051,0.9303774 0.1705558,0.9346175z" transform="matrix(1,0,0,-1,2.3583662,1.1026257)" fill="rgb(0,0,0)" stroke-linecap="round" stroke-linejoin="round" /><path d="M0.5753307,1.097305 L0.5384958,1.097305 0.5384958,1.025477 0.4979774,1.025477 0.4979774,0.9917116 0.5384958,0.9917116 0.5384958,0.797305 0.5685777,0.797305 0.7054808,0.9917116 0.7054808,1.025477 0.5753307,1.025477 0.5753307,1.097305z" transform="matrix(1,0,0,-1,2.3583662,1.1026257)" fill="rgb(0,0,0)" stroke-linecap="round" stroke-linejoin="round" /><path d="M-2.1641648,0.9741127 L-2.1971114,0.8861181 -2.1971114,0.8861181 -2.2063112,0.8577835 -2.2132776,0.8288194 -2.2132776,0.8288194 -2.2232992,0.8601348 -2.2345602,0.8910295 -2.2658698,0.9741127 -2.1641648,0.9741127z" transform="matrix(1,0,0,-1,2.3583662,1.1026257)" fill="rgb(255,255,255)" stroke="rgb(0,0,0)" stroke-width="0.0010cm" stroke-linecap="round" stroke-linejoin="round" /><path d="M-1.2272849,0.0357435 L-1.271214,-0.0815825 -1.271214,-0.0815825 -1.2834804,-0.1193621 -1.2927694,-0.1579809 -1.2927694,-0.1579809 -1.3061314,-0.1162269 -1.321146,-0.0750341 -1.3628922,0.0357435 -1.2272849,0.0357435z" transform="matrix(1,0,0,-1,2.3583662,1.1026257)" fill="rgb(255,255,255)" stroke="rgb(0,0,0)" stroke-width="0.0010cm" stroke-linecap="round" stroke-linejoin="round" /><path d="M-0.324966,0.0060027 L-0.324966,0.0060027 -0.3264698,-0.0291966 -0.3285709,-0.0463318 -0.3322911,-0.0629099 -0.3349269,-0.0709319 -0.3381482,-0.0787525 -0.3460868,-0.0938787 -0.3554335,-0.1085203 -0.3654842,-0.1229195 -0.3654842,-0.1229195 -0.387008,-0.1392255 -0.3982233,-0.1462433 -0.4099827,-0.1518989 -0.4224063,-0.1558916 -0.4353727,-0.1585254 -0.4622102,-0.161528 -0.4622102,-0.161528 -0.481047,-0.1600425 -0.4902967,-0.1587042 -0.4993441,-0.1566513 -0.5081409,-0.1537136 -0.5167297,-0.1500415 -0.5335608,-0.1414734 -0.5335608,-0.1414734 -0.548549,-0.129858 -0.5555402,-0.1236182 -0.561928,-0.1168597 -0.567591,-0.1094785 -0.5726701,-0.1015954 -0.5818553,-0.0849932 -0.5818553,-0.0849932 -0.5891633,-0.0643108 -0.5922534,-0.0538572 -0.5946675,-0.0432688 -0.5963034,-0.0325253 -0.597329,-0.0216602 -0.5983629,0.0002729 -0.5983629,0.0002729 -0.5963225,0.0326809 -0.5940759,0.0484661 -0.5903577,0.0637489 -0.5847302,0.0783797 -0.5773708,0.0924192 -0.5688523,0.106063 -0.5597544,0.1195089 -0.5597544,0.1195089 -0.5383668,0.1374527 -0.5271218,0.1451444 -0.5152152,0.1512996 -0.5025111,0.1556028 -0.4891626,0.1584093 -0.4613914,0.161528 -0.4613914,0.161528 -0.4338946,0.1583814 -0.4206732,0.1555788 -0.4080842,0.151301 -0.3962746,0.1452055 -0.3851081,0.1376098 -0.3638473,0.1199182 -0.3638473,0.1199182 -0.3463954,0.0941898 -0.3390561,0.0808323 -0.3333775,0.066884 -0.3295737,0.0522688 -0.3272279,0.0371349 -0.324966,0.0060027z" transform="matrix(1,0,0,-1,2.3583662,1.1026257)" fill="rgb(255,255,255)" stroke="rgb(0,0,0)" stroke-width="0.0010cm" stroke-linecap="round" stroke-linejoin="round" /><path d="M-1.8066609,1.010743 L-1.8066609,1.010743 -1.8079074,0.998784 -1.80904,0.9930091 -1.8107837,0.9874798 -1.8132867,0.9822555 -1.8164224,0.9772854 -1.8237483,0.9677689 -1.8237483,0.9677689 -1.8332706,0.9603837 -1.8382474,0.9572252 -1.8434829,0.9547074 -1.8490281,0.9529565 -1.854822,0.9518217 -1.8668246,0.9505793 -1.8668246,0.9505793 -1.8791283,0.9518373 -1.8850738,0.9529858 -1.8907716,0.9547578 -1.8961613,0.9573055 -1.9012936,0.9605014 -1.911129,0.9679735 -1.911129,0.9679735 -1.9187336,0.9776786 -1.9219861,0.9827549 -1.9245789,0.9880999 -1.926382,0.9937663 -1.9275506,0.9996909 -1.9288304,1.0119708 -1.9288304,1.0119708 -1.9276038,1.0240048 -1.9264754,1.029814 -1.924729,1.0353737 -1.9222114,1.0406222 -1.9190471,1.0456096 -1.9116406,1.0551495 -1.9116406,1.0551495 -1.9019643,1.062482 -1.8969142,1.0656124 -1.8916098,1.0680999 -1.8860028,1.0698225 -1.8801538,1.0709331 -1.8680525,1.0721345 -1.8680525,1.0721345 -1.8597665,1.0715097 -1.8516744,1.070125 -1.8439064,1.0674702 -1.8363335,1.0640513 -1.8363335,1.0640513 -1.8295707,1.0595247 -1.8234668,1.0543579 -1.818466,1.0481191 -1.8141303,1.0412341 -1.8141303,1.0412341 -1.8110147,1.0339152 -1.808574,1.0264319 -1.8072716,1.0186716 -1.8066609,1.010743z" transform="matrix(1,0,0,-1,2.3583662,1.1026257)" fill="rgb(255,255,255)" stroke="rgb(0,0,0)" stroke-width="0.0010cm" stroke-linecap="round" stroke-linejoin="round" /><path d="M-1.8185301,0.8722027 L-1.8185301,0.8722027 -1.8196517,0.86311 -1.822067,0.8545712 -1.8266201,0.8469481 -1.8324454,0.8398698 -1.8324454,0.8398698 -1.8402363,0.8340472 -1.8485585,0.829582 -1.8577449,0.827325 -1.8674385,0.8263637 -1.8674385,0.8263637 -1.8771376,0.827375 -1.8863104,0.8297026 -1.8945919,0.8342595 -1.9023294,0.8401768 -1.9023294,0.8401768 -1.9082881,0.8476803 -1.9129001,0.8557405 -1.9152861,0.8647209 -1.9163473,0.8742491 -1.9163473,0.8742491 -1.9153041,0.8834405 -1.9129788,0.8920991 -1.9085063,0.8998654 -1.9027388,0.9070936 -1.9027388,0.9070936 -1.8949807,0.91291 -1.8866845,0.9173509 -1.8775195,0.9195715 -1.8678479,0.9204974 -1.8678479,0.9204974 -1.8579894,0.9195882 -1.8486396,0.9173671 -1.8401668,0.9128842 -1.8322408,0.9069913 -1.8322408,0.9069913 -1.8263023,0.8993009 -1.8217624,0.8910497 -1.8194854,0.8818912 -1.8185301,0.8722027z" transform="matrix(1,0,0,-1,2.3583662,1.1026257)" fill="rgb(255,255,255)" stroke="rgb(0,0,0)" stroke-width="0.0010cm" stroke-linecap="round" stroke-linejoin="round" /><path d="M-0.8231685,0.9917116 L-0.7292397,0.9917116 -0.8231685,0.8564456 -0.8231685,0.9917116z" transform="matrix(1,0,0,-1,2.3583662,1.1026257)" fill="rgb(255,255,255)" stroke="rgb(0,0,0)" stroke-width="0.0010cm" stroke-linecap="round" stroke-linejoin="round" /><path d="M0.1897918,1.010743 L0.1897918,1.010743 0.1885453,0.998784 0.1874127,0.9930091 0.185669,0.9874798 0.183166,0.9822555 0.1800304,0.9772854 0.1727045,0.9677689 0.1727045,0.9677689 0.1631822,0.9603837 0.1582054,0.9572251 0.1529699,0.9547073 0.1474248,0.9529564 0.1416308,0.9518217 0.1296282,0.9505793 0.1296282,0.9505793 0.1173245,0.9518373 0.111379,0.9529858 0.1056812,0.9547578 0.1002915,0.9573055 0.0951592,0.9605014 0.0853238,0.9679735 0.0853238,0.9679735 0.0777192,0.9776786 0.0744667,0.9827549 0.071874,0.9880998 0.0700709,0.9937662 0.0689023,0.9996909 0.0676227,1.0119708 0.0676227,1.0119708 0.0688494,1.0240048 0.0699778,1.0298139 0.0717242,1.0353736 0.0742418,1.0406221 0.077406,1.0456095 0.0848123,1.0551495 0.0848123,1.0551495 0.0944886,1.062482 0.0995387,1.0656124 0.1048431,1.0680999 0.11045,1.0698225 0.116299,1.0709331 0.1284003,1.0721345 0.1284003,1.0721345 0.1366864,1.0715097 0.1447784,1.070125 0.1525464,1.0674702 0.1601193,1.0640513 0.1601193,1.0640513 0.1668821,1.0595247 0.172986,1.0543579 0.1779868,1.0481191 0.1823225,1.0412341 0.1823225,1.0412341 0.1854379,1.0339151 0.1878786,1.0264319 0.189181,1.0186716 0.1897918,1.010743z" transform="matrix(1,0,0,-1,2.3583662,1.1026257)" fill="rgb(255,255,255)" stroke="rgb(0,0,0)" stroke-width="0.0010cm" stroke-linecap="round" stroke-linejoin="round" /><path d="M0.1779227,0.8722027 L0.1779227,0.8722027 0.1768012,0.8631099 0.174386,0.8545711 0.1698329,0.846948 0.1640074,0.8398698 0.1640074,0.8398698 0.1562165,0.8340472 0.1478943,0.829582 0.1387079,0.827325 0.1290143,0.8263637 0.1290143,0.8263637 0.1193152,0.827375 0.1101424,0.8297026 0.1018609,0.8342595 0.0941234,0.8401768 0.0941234,0.8401768 0.0881647,0.8476803 0.0835527,0.8557405 0.0811667,0.8647209 0.0801055,0.8742491 0.0801055,0.8742491 0.0811487,0.8834405 0.0834739,0.8920991 0.0879465,0.8998654 0.093714,0.9070936 0.093714,0.9070936 0.101472,0.91291 0.1097683,0.917351 0.1189333,0.9195715 0.1286049,0.9204974 0.1286049,0.9204974 0.1384634,0.9195882 0.1478132,0.9173671 0.156286,0.9128842 0.164212,0.9069913 0.164212,0.9069913 0.1701505,0.8993009 0.1746904,0.8910497 0.1769674,0.8818912 0.1779227,0.8722027z" transform="matrix(1,0,0,-1,2.3583662,1.1026257)" fill="rgb(255,255,255)" stroke="rgb(0,0,0)" stroke-width="0.0010cm" stroke-linecap="round" stroke-linejoin="round" /><path d="M0.5753307,0.9917116 L0.6692598,0.9917116 0.5753307,0.8564456 0.5753307,0.9917116z" transform="matrix(1,0,0,-1,2.3583662,1.1026257)" fill="rgb(255,255,255)" stroke="rgb(0,0,0)" stroke-width="0.0010cm" stroke-linecap="round" stroke-linejoin="round" /></svg>