<?xml version="1.0" encoding="utf-8"?>
<!-- Generator: Fusion 360, Shaper Origin Export Add-In, Version 1.6.10  -->
<svg xmlns="http://www.w3.org/2000/svg" xmlns:xlink="http://www.w3.org/1999/xlink" xmlns:shaper="http://www.shapertools.com/namespaces/shaper" shaper:fusionaddin="version:1.6.10" width="0.3825374cm" height="0.4139154cm" version="1.1" x="0cm" y="0cm" viewBox="0 0 0.3825374 0.4139154" enable-background="new 0 0 0.3825374 0.4139154" xml:space="preserve"><path d="M0.0276713,0.0097096 L0.0276713,0.0097096 0.0258871,0.0355815 0.0243229,0.0483631 0.0219522,0.0609595 0.0185947,0.0733294 0.0144293,0.0855137 0.0047516,0.1095731 0.0047516,0.1095731 -0.0083589,0.1315788 -0.0155506,0.1420055 -0.0235061,0.1517409 -0.0323965,0.16063 -0.042053,0.1688258 -0.0626427,0.1840615 -0.0626427,0.1840615 -0.0865371,0.1957989 -0.098717,0.2008166 -0.1111762,0.2048129 -0.123969,0.207589 -0.1370297,0.2093856 -0.1635974,0.2113466 -0.1635974,0.2113466 -0.1889696,0.209446 -0.2014707,0.2077695 -0.2137498,0.2052214 -0.2257565,0.2016041 -0.2375395,0.1971086 -0.2607325,0.1866536 -0.2607325,0.1866536 -0.2819727,0.1721698 -0.2919309,0.1642919 -0.3010948,0.155651 -0.3093012,0.1460901 -0.3167339,0.1357859 -0.3303097,0.1139387 -0.3303097,0.1139387 -0.3409769,0.0877611 -0.3455203,0.074491 -0.3491157,0.0610032 -0.3515922,0.0472586 -0.3531782,0.0333097 -0.3548661,0.0050711 -0.3548661,0.0050711 -0.3532769,-0.0227099 -0.351776,-0.036444 -0.3494274,-0.0499905 -0.346012,-0.0633008 -0.3416906,-0.0764106 -0.3315373,-0.1022959 -0.3315373,-0.1022959 -0.3183369,-0.1241982 -0.3110999,-0.1345634 -0.3030985,-0.1442254 -0.2941583,-0.1530236 -0.2844459,-0.1611112 -0.2637339,-0.1761022 -0.2637339,-0.1761022 -0.2400358,-0.1874551 -0.2279677,-0.1923134 -0.2156369,-0.1961902 -0.2029911,-0.1988898 -0.1900917,-0.2006423 -0.1638704,-0.2025687 -0.1638704,-0.2025687 -0.1443834,-0.2009084 -0.1251764,-0.1985719 -0.1065295,-0.194883 -0.0975036,-0.1923201 -0.0887227,-0.1891655 -0.0802155,-0.1853499 -0.0719654,-0.1809137 -0.0560897,-0.1705334 -0.0408016,-0.158734 -0.0258075,-0.146225 -0.0258075,-0.146225 -0.0133888,-0.1287869 -0.0017394,-0.1110732 0.0083715,-0.0928085 0.0126096,-0.0833834 0.0161796,-0.073719 0.0190822,-0.0638156 0.0213983,-0.053702 0.0246063,-0.0329649 0.0264739,-0.0117477 0.0276713,0.0097096z" transform="matrix(1,0,0,-1,0.3548661,0.2113466)" fill="rgb(0,0,0)" stroke-linecap="round" stroke-linejoin="round" /><path d="M-0.0268989,0.0105281 L-0.0268989,0.0105281 -0.0284028,-0.0246712 -0.0305039,-0.0418065 -0.034224,-0.0583846 -0.0368599,-0.0664066 -0.0400812,-0.0742272 -0.0480199,-0.0893534 -0.0573667,-0.1039949 -0.0674175,-0.1183941 -0.0674175,-0.1183941 -0.0889411,-0.1347001 -0.1001564,-0.1417179 -0.1119157,-0.1473736 -0.1243393,-0.1513663 -0.1373057,-0.154 -0.1641432,-0.1570026 -0.1641432,-0.1570026 -0.1829799,-0.1555171 -0.1922297,-0.1541788 -0.201277,-0.1521259 -0.2100738,-0.1491881 -0.2186627,-0.1455161 -0.2354937,-0.136948 -0.2354937,-0.136948 -0.250482,-0.1253326 -0.2574732,-0.1190928 -0.263861,-0.1123343 -0.269524,-0.1049531 -0.2746032,-0.09707 -0.2837885,-0.0804678 -0.2837885,-0.0804678 -0.2910966,-0.0597854 -0.2941867,-0.0493318 -0.2966007,-0.0387434 -0.2982366,-0.028 -0.2992622,-0.0171348 -0.3002959,0.0047982 -0.3002959,0.0047982 -0.2982555,0.0372062 -0.2960089,0.0529914 -0.2922906,0.0682742 -0.2866632,0.0829051 -0.2793039,0.0969446 -0.2707855,0.1105883 -0.2616876,0.1240342 -0.2616876,0.1240342 -0.2403,0.141978 -0.229055,0.1496696 -0.2171484,0.1558249 -0.2044443,0.1601281 -0.1910958,0.1629346 -0.1633247,0.1660533 -0.1633247,0.1660533 -0.1358277,0.1629068 -0.1226063,0.1601042 -0.1100173,0.1558264 -0.0982076,0.1497309 -0.0870412,0.1421353 -0.0657802,0.1244435 -0.0657802,0.1244435 -0.0483283,0.0987151 -0.040989,0.0853577 -0.0353105,0.0714094 -0.0315067,0.0567941 -0.0291608,0.0416603 -0.0268989,0.0105281z" transform="matrix(1,0,0,-1,0.3548661,0.2113466)" fill="rgb(255,255,255)" stroke="rgb(0,0,0)" stroke-width="0.0010cm" stroke-linecap="round" stroke-linejoin="round" /></svg>