<?xml version="1.0" encoding="utf-8"?>
<!-- Generator: Fusion 360, Shaper Origin Export Add-In, Version 1.6.10  -->
<svg xmlns="http://www.w3.org/2000/svg" xmlns:xlink="http://www.w3.org/1999/xlink" xmlns:shaper="http://www.shapertools.com/namespaces/shaper" shaper:fusionaddin="version:1.6.10" width="5.1cm" height="2.9cm" version="1.1" x="0cm" y="0cm" viewBox="0 0 5.1 2.9" enable-background="new 0 0 5.1 2.9" xml:space="preserve"><path d="M2.55,0.0120045 A1.7584394,1.7584394 0.3911486 0,1 2.0323917,1.2460133 A0.7,0.7 45.1203423 0,1 1.5384576,1.45 L-1.5384576,1.45 A0.7,0.7 90 0,1 -2.0323917,1.2460133 A1.7584394,1.7584394 134.8796577 0,1 -2.5497434,0.0323464 A1.5455774,1.5455774 178.9459881 0,1 -2.55,0.0078312 L-2.55,-0.0120045 A1.7584394,1.7584394 180.3911486 0,1 -2.0323917,-1.2460133 A0.7,0.7 225.1203423 0,1 -1.5384576,-1.45 L1.5384576,-1.45 A0.7,0.7 270 0,1 2.0323917,-1.2460133 A1.7584394,1.7584394 314.8796577 0,1 2.55,-0.0120045 L2.55,0.0120045z" transform="matrix(1,0,0,-1,2.55,1.45)" fill="rgb(0,0,0)" stroke-linecap="round" stroke-linejoin="round" /><path d="M-2.1863926,0 a0.2,0.2 0 1,1 0.4,0 a0.2,0.2 0 1,1 -0.4,0z" transform="matrix(1,0,0,-1,2.55,1.45)" fill="rgb(255,255,255)" stroke="rgb(0,0,0)" stroke-width="0.0010cm" stroke-linecap="round" stroke-linejoin="round" /></svg>