<?xml version="1.0" encoding="utf-8"?>
<!-- Generator: Fusion 360, Shaper Origin Export Add-In, Version 1.6.10  -->
<svg xmlns="http://www.w3.org/2000/svg" xmlns:xlink="http://www.w3.org/1999/xlink" xmlns:shaper="http://www.shapertools.com/namespaces/shaper" shaper:fusionaddin="version:1.6.10" width="3.2750337cm" height="1.3097198cm" version="1.1" x="0cm" y="0cm" viewBox="0 0 3.2750337 1.3097198" enable-background="new 0 0 3.2750337 1.3097198" xml:space="preserve"><path d="M0.1638922,1.1140674 L0.1270572,1.1140674 0.1270572,1.0422393 0.0865388,1.0422393 0.0865388,1.0084739 0.1270572,1.0084739 0.1270572,0.8140674 0.1571391,0.8140674 0.2940422,1.0084739 0.2940422,1.0422393 0.1638922,1.0422393 0.1638922,1.1140674z" transform="matrix(1,0,0,-1,2.9572776,1.119388)" fill="rgb(0,0,0)" stroke-linecap="round" stroke-linejoin="round" /><path d="M-0.2408827,0.9513798 L-0.2408827,0.9513798 -0.2287123,0.955621 -0.2173951,0.9611832 -0.2123004,0.9648372 -0.2075503,0.9690248 -0.198625,0.9782897 -0.198625,0.9782897 -0.1920928,0.9896645 -0.1893248,0.9955067 -0.1871543,1.0015348 -0.1847441,1.0141915 -0.1837886,1.0273007 -0.1837886,1.0273007 -0.1858293,1.0456866 -0.1876554,1.0545431 -0.1904485,1.0629958 -0.1944355,1.0709499 -0.1994101,1.0784915 -0.2110056,1.0928873 -0.2110056,1.0928873 -0.227028,1.1044525 -0.2353713,1.1093552 -0.2441128,1.1132026 -0.2533166,1.1158246 -0.262885,1.1174807 -0.282629,1.1191833 -0.282629,1.1191833 -0.3023608,1.1174913 -0.3119251,1.1158432 -0.3211275,1.1132325 -0.3298706,1.1094002 -0.3382179,1.1045152 -0.3542524,1.0929896 -0.3542524,1.0929896 -0.3657898,1.0788214 -0.3707486,1.0713954 -0.3747356,1.0635591 -0.3775411,1.055224 -0.3793849,1.0464829 -0.3814694,1.0283239 -0.3814694,1.0283239 -0.3804804,1.0155491 -0.3780955,1.0032028 -0.373313,0.9915923 -0.3670424,0.9804384 -0.3670424,0.9804384 -0.3581895,0.9708069 -0.3534705,0.9664081 -0.3484008,0.9625094 -0.3371239,0.9563332 -0.3249892,0.9513798 -0.3249892,0.9513798 -0.3345392,0.9471113 -0.3434426,0.9419582 -0.351208,0.9352484 -0.3582429,0.9275394 -0.3582429,0.9275394 -0.3629753,0.919069 -0.366598,0.9102592 -0.3684212,0.9008987 -0.369191,0.8912161 -0.369191,0.8912161 -0.3673002,0.8755646 -0.3656554,0.8680397 -0.3631712,0.860876 -0.3596641,0.8541523 -0.3553225,0.8477876 -0.3452483,0.8356567 -0.3452483,0.8356567 -0.3310613,0.8255899 -0.3236813,0.8213277 -0.3159575,0.81799 -0.3078365,0.8157215 -0.299403,0.8142938 -0.2820152,0.8128395 -0.2820152,0.8128395 -0.2648221,0.814234 -0.2564785,0.8156188 -0.2484384,0.8178287 -0.2407851,0.8210905 -0.2334683,0.8252668 -0.2193957,0.8351451 -0.2193957,0.8351451 -0.2094421,0.8471641 -0.2051605,0.8534713 -0.2017131,0.8601358 -0.1992825,0.8672356 -0.1976815,0.8746906 -0.1958623,0.8901929 -0.1958623,0.8901929 -0.1966117,0.9001133 -0.1984328,0.9097093 -0.2020988,0.9187469 -0.2069129,0.9274371 -0.2069129,0.9274371 -0.2141028,0.9352319 -0.2220395,0.9419895 -0.2311335,0.9471397 -0.2408827,0.9513798z" transform="matrix(1,0,0,-1,2.9572776,1.119388)" fill="rgb(0,0,0)" stroke-linecap="round" stroke-linejoin="round" /><path d="M-0.6503643,1.0354862 L-0.6503643,1.0354862 -0.6536983,1.0526814 -0.6560442,1.0609443 -0.6592048,1.0688056 -0.6633852,1.0761641 -0.6684244,1.0830993 -0.6799346,1.0962638 -0.6799346,1.0962638 -0.695097,1.1063618 -0.7029503,1.1106396 -0.7111299,1.1139925 -0.7196875,1.1162741 -0.7285427,1.1177124 -0.746749,1.1191833 -0.746749,1.1191833 -0.7694851,1.116565 -0.7803427,1.1141663 -0.7905878,1.1104602 -0.8000697,1.1051251 -0.8089129,1.0984267 -0.8255349,1.0827577 -0.8255349,1.0827577 -0.8357264,1.0666099 -0.8400864,1.0582852 -0.8435634,1.0496596 -0.8459828,1.0406734 -0.847552,1.0313973 -0.8492731,1.0123621 -0.8492731,1.0123621 -0.8474099,0.9929427 -0.8456627,0.9835538 -0.8429367,0.9745497 -0.8389815,0.9660289 -0.833986,0.9579172 -0.8222607,0.9423757 -0.8222607,0.9423757 -0.8076432,0.9308205 -0.799999,0.9258568 -0.7919522,0.9218697 -0.7834169,0.919068 -0.7744845,0.9172297 -0.755958,0.9151588 -0.755958,0.9151588 -0.7407784,0.9167845 -0.733364,0.9181336 -0.7261603,0.920126 -0.7192061,0.9228809 -0.7124511,0.9262444 -0.699273,0.9339855 -0.7154392,0.853358 -0.835153,0.853358 -0.835153,0.8181601 -0.6859714,0.8181601 -0.6569127,0.9722529 -0.6914967,0.976755 -0.6914967,0.976755 -0.6962142,0.9705392 -0.7014352,0.9648612 -0.7074788,0.9600617 -0.7140068,0.9557795 -0.7140068,0.9557795 -0.7216683,0.9523028 -0.7295351,0.9496326 -0.7377367,0.9482777 -0.7461351,0.9476963 -0.7461351,0.9476963 -0.7590529,0.9489342 -0.7652904,0.9501049 -0.7712623,0.9519376 -0.7768997,0.954604 -0.7822529,0.9579787 -0.7924856,0.9659091 -0.7924856,0.9659091 -0.800386,0.9770564 -0.8037159,0.9828594 -0.8063027,0.988937 -0.8080437,0.9953272 -0.8091248,1.0019614 -0.810187,1.0156363 -0.810187,1.0156363 -0.8090497,1.0301789 -0.807912,1.0372465 -0.8060914,1.0440696 -0.8033986,1.0505806 -0.7999452,1.0568192 -0.7917694,1.0688423 -0.7917694,1.0688423 -0.7820208,1.0772512 -0.776891,1.0808796 -0.7714544,1.0838169 -0.7656406,1.085904 -0.7595161,1.0872907 -0.746749,1.0888968 -0.746749,1.0888968 -0.7363632,1.0878373 -0.7264893,1.0854281 -0.717479,1.0807427 -0.7089933,1.0746745 -0.7089933,1.0746745 -0.7014247,1.0653163 -0.698109,1.0604089 -0.6953539,1.0552283 -0.6915603,1.0440306 -0.689041,1.032212 -0.6503643,1.0354862z" transform="matrix(1,0,0,-1,2.9572776,1.119388)" fill="rgb(0,0,0)" stroke-linecap="round" stroke-linejoin="round" /><path d="M-1.2346071,1.1140674 L-1.2714423,1.1140674 -1.2714423,1.0422393 -1.3119606,1.0422393 -1.3119606,1.0084739 -1.2714423,1.0084739 -1.2714423,0.8140674 -1.2413603,0.8140674 -1.1044572,1.0084739 -1.1044572,1.0422393 -1.2346071,1.0422393 -1.2346071,1.1140674z" transform="matrix(1,0,0,-1,2.9572776,1.119388)" fill="rgb(0,0,0)" stroke-linecap="round" stroke-linejoin="round" /><path d="M-1.7828337,1.1140674 L-1.8225335,1.1140674 -1.8225335,0.8494698 -1.9217833,0.8494698 -1.9217833,0.8140674 -1.6839932,0.8140674 -1.6839932,0.8494698 -1.7828337,0.8494698 -1.7828337,1.1140674z" transform="matrix(1,0,0,-1,2.9572776,1.119388)" fill="rgb(0,0,0)" stroke-linecap="round" stroke-linejoin="round" /><path d="M-2.2373356,0.9513798 L-2.2373356,0.9513798 -2.2251651,0.955621 -2.2138479,0.9611831 -2.2087531,0.9648372 -2.2040031,0.9690248 -2.1950778,0.9782897 -2.1950778,0.9782897 -2.1885456,0.9896645 -2.1857777,0.9955067 -2.1836071,1.0015348 -2.1811969,1.0141915 -2.1802415,1.0273007 -2.1802415,1.0273007 -2.1822821,1.0456866 -2.1841082,1.0545431 -2.1869013,1.0629958 -2.1908883,1.0709499 -2.195863,1.0784915 -2.2074584,1.0928873 -2.2074584,1.0928873 -2.2234809,1.1044525 -2.2318242,1.1093552 -2.2405657,1.1132026 -2.2497695,1.1158245 -2.2593379,1.1174807 -2.2790819,1.1191833 -2.2790819,1.1191833 -2.2988136,1.1174913 -2.3083779,1.1158432 -2.3175803,1.1132325 -2.3263233,1.1094002 -2.3346706,1.1045152 -2.350705,1.0929896 -2.350705,1.0929896 -2.3622422,1.0788213 -2.367201,1.0713953 -2.371188,1.063559 -2.3739935,1.055224 -2.3758373,1.0464828 -2.3779219,1.0283239 -2.3779219,1.0283239 -2.3769329,1.0155492 -2.374548,1.0032028 -2.3697656,0.9915923 -2.3634952,0.9804384 -2.3634952,0.9804384 -2.3546424,0.9708068 -2.3499235,0.9664079 -2.3448538,0.9625092 -2.3335768,0.9563331 -2.321442,0.9513798 -2.321442,0.9513798 -2.3309921,0.9471113 -2.3398955,0.9419583 -2.3476608,0.9352485 -2.3546957,0.9275394 -2.3546957,0.9275394 -2.3594281,0.919069 -2.3630509,0.9102592 -2.364874,0.9008987 -2.3656438,0.8912161 -2.3656438,0.8912161 -2.363753,0.8755646 -2.3621082,0.8680398 -2.359624,0.860876 -2.356117,0.8541523 -2.3517754,0.8477877 -2.3417014,0.8356567 -2.3417014,0.8356567 -2.3275143,0.82559 -2.3201342,0.8213277 -2.3124104,0.81799 -2.3042894,0.8157215 -2.2958558,0.8142938 -2.278468,0.8128395 -2.278468,0.8128395 -2.2612749,0.814234 -2.2529313,0.8156188 -2.2448912,0.8178286 -2.2372379,0.8210905 -2.2299211,0.8252668 -2.2158486,0.8351451 -2.2158486,0.8351451 -2.2058951,0.8471642 -2.2016135,0.8534714 -2.1981662,0.8601358 -2.1957355,0.8672356 -2.1941345,0.8746907 -2.1923152,0.8901929 -2.1923152,0.8901929 -2.1930646,0.9001133 -2.1948858,0.9097093 -2.1985517,0.9187469 -2.2033657,0.9274371 -2.2033657,0.9274371 -2.2105556,0.9352319 -2.2184923,0.9419896 -2.2275862,0.9471398 -2.2373356,0.9513798z" transform="matrix(1,0,0,-1,2.9572776,1.119388)" fill="rgb(0,0,0)" stroke-linecap="round" stroke-linejoin="round" /><path d="M-2.6587785,0.2167623 L-2.9572776,0.2167623 -2.9572776,0.1695591 -2.7117117,0.1695591 -2.7117117,0.0334063 -2.9329942,0.0334063 -2.9329942,-0.0135242 -2.7117117,-0.0135242 -2.7117117,-0.1360344 -2.9480007,-0.1360344 -2.9480007,-0.1832377 -2.6587785,-0.1832377 -2.6587785,0.2167623z" transform="matrix(1,0,0,-1,2.9572776,1.119388)" fill="rgb(0,0,0)" stroke-linecap="round" stroke-linejoin="round" /><path d="M-2.1078914,0.2167623 L-2.160825,0.2167623 -2.160825,-0.1832377 -2.1078914,-0.1832377 -2.1078914,0.2167623z" transform="matrix(1,0,0,-1,2.9572776,1.119388)" fill="rgb(0,0,0)" stroke-linecap="round" stroke-linejoin="round" /><path d="M-1.3237174,0.2167623 L-1.6222165,0.2167623 -1.6222165,0.1695591 -1.3766501,0.1695591 -1.3766501,0.0334063 -1.5979326,0.0334063 -1.5979326,-0.0135242 -1.3766501,-0.0135242 -1.3766501,-0.1360344 -1.6129396,-0.1360344 -1.6129396,-0.1832377 -1.3237174,-0.1832377 -1.3237174,0.2167623z" transform="matrix(1,0,0,-1,2.9572776,1.119388)" fill="rgb(0,0,0)" stroke-linecap="round" stroke-linejoin="round" /><path d="M-0.6784237,0.2167623 L-0.9283555,0.2167623 -0.9283555,0.1695591 -0.7313569,0.1695591 -0.7313569,-0.1832377 -0.6784237,-0.1832377 -0.6784237,0.2167623z" transform="matrix(1,0,0,-1,2.9572776,1.119388)" fill="rgb(0,0,0)" stroke-linecap="round" stroke-linejoin="round" /><path d="M0.2116172,0.2167623 L0.1575925,0.2167623 0.0727358,-0.0880126 0.0727358,-0.0880126 0.0610032,-0.134943 0.0610032,-0.134943 0.0484521,-0.0880126 -0.0358589,0.2167623 -0.0868821,0.2167623 -0.1965683,-0.1832377 -0.1433623,-0.1832377 -0.0806067,0.0737882 -0.0806067,0.0737882 -0.0701527,0.1171952 -0.0606885,0.1608278 -0.0606885,0.1608278 -0.0545767,0.1250621 -0.04753,0.0895004 -0.038989,0.0542648 -0.0295835,0.019218 0.0277154,-0.1832377 0.0915625,-0.1832377 0.1676881,0.0868851 0.1676881,0.0868851 0.1856963,0.1608278 0.1856963,0.1608278 0.1935275,0.1197706 0.2026131,0.0789724 0.2634589,-0.1832377 0.3177561,-0.1832377 0.2116172,0.2167623z" transform="matrix(1,0,0,-1,2.9572776,1.119388)" fill="rgb(0,0,0)" stroke-linecap="round" stroke-linejoin="round" /><path d="M-0.2298563,0.0219465 L-0.2298563,0.0219465 -0.2316404,0.0478184 -0.2332046,0.0606001 -0.2355754,0.0731965 -0.2389328,0.0855663 -0.2430983,0.0977507 -0.2527759,0.1218101 -0.2527759,0.1218101 -0.2658864,0.1438157 -0.2730782,0.1542424 -0.2810337,0.1639778 -0.289924,0.172867 -0.2995805,0.1810627 -0.3201702,0.1962985 -0.3201702,0.1962985 -0.3440646,0.2080359 -0.3562445,0.2130535 -0.3687037,0.2170499 -0.3814966,0.2198259 -0.3945573,0.2216226 -0.421125,0.2235836 -0.421125,0.2235836 -0.4464972,0.221683 -0.4589983,0.2200064 -0.4712773,0.2174584 -0.483284,0.2138411 -0.495067,0.2093455 -0.51826,0.1988906 -0.51826,0.1988906 -0.5395003,0.1844067 -0.5494585,0.1765289 -0.5586224,0.1678879 -0.5668287,0.1583271 -0.5742614,0.1480229 -0.5878373,0.1261757 -0.5878373,0.1261757 -0.5985044,0.0999981 -0.6030478,0.0867279 -0.6066433,0.0732402 -0.6091198,0.0594956 -0.6107058,0.0455466 -0.6123937,0.017308 -0.6123937,0.017308 -0.6108045,-0.0104729 -0.6093036,-0.024207 -0.606955,-0.0377535 -0.6035396,-0.0510639 -0.5992182,-0.0641737 -0.5890649,-0.090059 -0.5890649,-0.090059 -0.5758645,-0.1119613 -0.5686274,-0.1223265 -0.5606261,-0.1319885 -0.5516859,-0.1407866 -0.5419735,-0.1488742 -0.5212615,-0.1638652 -0.5212615,-0.1638652 -0.4975633,-0.1752181 -0.4854953,-0.1800765 -0.4731645,-0.1839532 -0.4605186,-0.1866529 -0.4476192,-0.1884054 -0.421398,-0.1903318 -0.421398,-0.1903318 -0.4019109,-0.1886715 -0.3827039,-0.1863349 -0.364057,-0.182646 -0.3550311,-0.1800831 -0.3462502,-0.1769285 -0.3377431,-0.1731129 -0.329493,-0.1686767 -0.3136172,-0.1582964 -0.2983292,-0.146497 -0.283335,-0.133988 -0.283335,-0.133988 -0.2709164,-0.1165499 -0.259267,-0.0988362 -0.2491561,-0.0805715 -0.2449179,-0.0711464 -0.2413479,-0.0614821 -0.2384454,-0.0515786 -0.2361292,-0.0414651 -0.2329212,-0.020728 -0.2310537,0.0004892 -0.2298563,0.0219465z" transform="matrix(1,0,0,-1,2.9572776,1.119388)" fill="rgb(0,0,0)" stroke-linecap="round" stroke-linejoin="round" /><path d="M-1.0642355,0.2167623 L-1.1185329,0.2167623 -1.2751496,-0.1832377 -1.2211249,-0.1832377 -1.113076,0.1073489 -1.113076,0.1073489 -1.1016213,0.1398684 -1.0915206,0.1728333 -1.0915206,0.1728333 -1.0816268,0.1398956 -1.0705111,0.1073489 -0.9665549,-0.1832377 -0.909256,-0.1832377 -1.0642355,0.2167623z" transform="matrix(1,0,0,-1,2.9572776,1.119388)" fill="rgb(0,0,0)" stroke-linecap="round" stroke-linejoin="round" /><path d="M-1.6961592,0.2167623 L-1.7490924,0.2167623 -1.7490924,0.0391361 -1.8104837,0.0391361 -1.8104837,0.0391361 -1.8252675,0.0394166 -1.8399518,0.0410461 -1.8399518,0.0410461 -1.8524677,0.0453563 -1.8640988,0.0516873 -1.8640988,0.0516873 -1.8715652,0.0576048 -1.8785788,0.0639872 -1.8909753,0.0784267 -1.8909753,0.0784267 -1.9106777,0.1055641 -1.9291742,0.1335427 -1.9821074,0.2167623 -2.048683,0.2167623 -1.9791062,0.1078947 -1.9791062,0.1078947 -1.9692573,0.0936516 -1.9588105,0.0799053 -1.9473228,0.0670237 -1.9351771,0.0546887 -1.9351771,0.0546887 -1.9199054,0.0436427 -1.9032533,0.0347705 -1.9032533,0.0347705 -1.9267429,0.0303304 -1.9381356,0.0273389 -1.9491059,0.0234217 -1.9595243,0.0182951 -1.9694303,0.0120456 -1.9883826,-0.0023373 -1.9883826,-0.0023373 -2.000186,-0.0183719 -2.00524,-0.0267179 -2.0092768,-0.0354584 -2.0120916,-0.0446726 -2.0139218,-0.0542687 -2.0159409,-0.0740972 -2.0159409,-0.0740972 -2.0146832,-0.0899773 -2.0135625,-0.097781 -2.0118516,-0.105421 -2.0094134,-0.1128593 -2.0063748,-0.1201311 -1.9992969,-0.1343973 -1.9992969,-0.1343973 -1.9903741,-0.1464952 -1.9855433,-0.1521098 -1.9802693,-0.1572032 -1.9744441,-0.1616485 -1.9681589,-0.1655528 -1.9548219,-0.17246 -1.9548219,-0.17246 -1.9348632,-0.1776879 -1.9146793,-0.1813684 -1.8941806,-0.1828846 -1.8735125,-0.1832377 -1.6961592,-0.1832377 -1.6961592,0.2167623z" transform="matrix(1,0,0,-1,2.9572776,1.119388)" fill="rgb(0,0,0)" stroke-linecap="round" stroke-linejoin="round" /><path d="M-2.2535947,0.2167623 L-2.3043444,0.2167623 -2.3043444,-0.0975623 -2.5144403,0.2167623 -2.5687378,0.2167623 -2.5687378,-0.1832377 -2.5179875,-0.1832377 -2.5179875,0.1308142 -2.3078921,-0.1832377 -2.2535947,-0.1832377 -2.2535947,0.2167623z" transform="matrix(1,0,0,-1,2.9572776,1.119388)" fill="rgb(0,0,0)" stroke-linecap="round" stroke-linejoin="round" /><path d="M-2.4890412,1.1140674 L-2.5311965,1.1140674 -2.5641431,1.0232079 -2.6895865,1.0232079 -2.7245797,1.1140674 -2.7698048,1.1140674 -2.6470221,0.8140674 -2.6042527,0.8140674 -2.4890412,1.1140674z" transform="matrix(1,0,0,-1,2.9572776,1.119388)" fill="rgb(0,0,0)" stroke-linecap="round" stroke-linejoin="round" /><path d="M-1.9500235,0.853358 L-2.096954,0.853358 -2.096954,0.853358 -2.082165,0.8719162 -2.0682651,0.8910778 -2.0557613,0.9111867 -2.0440549,0.9318368 -2.0440549,0.9318368 -2.0325861,0.9552495 -2.0221653,0.9790755 -2.0134989,1.0035935 -2.0058898,1.0285285 -2.0058898,1.0285285 -2.0007171,1.0496474 -1.9964111,1.0709024 -1.9936692,1.0924027 -1.9919745,1.1140674 -2.0298325,1.1140674 -2.0298325,1.1140674 -2.0318383,1.0931862 -2.0346558,1.0724455 -2.0388698,1.0519466 -2.0439526,1.0315981 -2.0439526,1.0315981 -2.0527715,1.0047518 -2.0627183,0.9783766 -2.0745256,0.9527783 -2.0874382,0.9276417 -2.0874382,0.9276417 -2.0999891,0.906217 -2.1133897,0.8853939 -2.1283083,0.8656459 -2.1442255,0.8466049 -2.1442255,0.8179555 -1.9500235,0.8179555 -1.9500235,0.853358z" transform="matrix(1,0,0,-1,2.9572776,1.119388)" fill="rgb(0,0,0)" stroke-linecap="round" stroke-linejoin="round" /><path d="M-1.3498186,1.0348723 L-1.3498186,1.0348723 -1.3532362,1.052102 -1.3556221,1.0603832 -1.3588204,1.068264 -1.3630292,1.0756468 -1.3680819,1.0826138 -1.3795937,1.0958545 -1.3795937,1.0958545 -1.3943997,1.1060862 -1.4020804,1.1104427 -1.4100944,1.1138882 -1.4185014,1.1162596 -1.4272207,1.1177769 -1.4451803,1.119388 -1.4451803,1.119388 -1.4651798,1.1174833 -1.474864,1.115708 -1.4841694,1.1129453 -1.493,1.1089448 -1.50143,1.1038998 -1.5176223,1.0920687 -1.5176223,1.0920687 -1.5296852,1.0775214 -1.5348826,1.0698894 -1.5390791,1.0618275 -1.5420499,1.0532391 -1.5440155,1.0442189 -1.5462717,1.0254589 -1.5462717,1.0254589 -1.5453337,1.0124995 -1.5429477,0.9999938 -1.5407925,0.9940424 -1.5380397,0.9882781 -1.5315376,0.9770619 -1.5315376,0.9770619 -1.5228081,0.9681219 -1.5181632,0.9641005 -1.5131823,0.9606175 -1.5021121,0.9554272 -1.4902006,0.9515844 -1.4902006,0.9515844 -1.4991686,0.9467348 -1.5074792,0.9410949 -1.514649,0.9340835 -1.5211011,0.9262092 -1.5211011,0.9262092 -1.5255249,0.9178951 -1.5289551,0.9092872 -1.5307381,0.9001924 -1.5315376,0.8908068 -1.5315376,0.8908068 -1.53065,0.8806169 -1.5287462,0.8707131 -1.5251659,0.8612814 -1.5205895,0.8521301 -1.5205895,0.8521301 -1.514113,0.8433828 -1.5068442,0.8355008 -1.4982867,0.8290266 -1.488973,0.8233784 -1.488973,0.8233784 -1.4781067,0.8188708 -1.4669977,0.815396 -1.4554906,0.8136164 -1.4437479,0.8128395 -1.4437479,0.8128395 -1.4275665,0.8142218 -1.4196911,0.8155299 -1.4120741,0.8175784 -1.4047824,0.8205593 -1.3977672,0.8243328 -1.3841981,0.8332011 -1.3841981,0.8332011 -1.3729965,0.8456252 -1.3680199,0.8521781 -1.3637917,0.8591396 -1.3604274,0.8665728 -1.3577418,0.8743767 -1.3535021,0.8906022 -1.3903371,0.8971506 -1.3903371,0.8971506 -1.3926648,0.885945 -1.3961627,0.8752925 -1.4017618,0.8656329 -1.4087547,0.8566322 -1.4087547,0.8566322 -1.4167694,0.8508038 -1.4253052,0.8463372 -1.4346876,0.8440831 -1.4445664,0.843126 -1.4445664,0.843126 -1.454349,0.8440239 -1.4636358,0.8462132 -1.4720684,0.8506273 -1.4799689,0.8564275 -1.4799689,0.8564275 -1.4858427,0.8638084 -1.4903658,0.8717465 -1.4926759,0.8805978 -1.4936794,0.8899882 -1.4936794,0.8899882 -1.4924281,0.9012165 -1.4912294,0.9065382 -1.489343,0.9115087 -1.4865875,0.9160357 -1.4830889,0.9201834 -1.4748529,0.9278464 -1.4748529,0.9278464 -1.4648959,0.9330853 -1.4545905,0.9371303 -1.4437115,0.9392101 -1.4324926,0.9401247 -1.4324926,0.9401247 -1.4265581,0.9397154 -1.4224652,0.9720483 -1.4224652,0.9720483 -1.4353382,0.969194 -1.4484545,0.9679555 -1.4484545,0.9679555 -1.4601663,0.9691178 -1.4658259,0.9701939 -1.4712498,0.9718637 -1.476379,0.9742762 -1.4812604,0.9773134 -1.49061,0.9844289 -1.49061,0.9844289 -1.497755,0.9936856 -1.5008071,0.998523 -1.5032347,1.0036112 -1.5049181,1.0089984 -1.5060053,1.014625 -1.5071858,1.0262775 -1.5071858,1.0262775 -1.5058564,1.0387032 -1.5046602,1.0447012 -1.5028264,1.0504411 -1.5002034,1.0558619 -1.4969258,1.0610179 -1.4892799,1.0708887 -1.4892799,1.0708887 -1.4795997,1.0785317 -1.4745381,1.0818153 -1.4692106,1.0844534 -1.4635603,1.0863076 -1.4576476,1.0875247 -1.4453848,1.0888968 -1.4453848,1.0888968 -1.4351808,1.0878888 -1.4254716,1.0855633 -1.4166012,1.0810054 -1.408243,1.0750838 -1.408243,1.0750838 -1.4003444,1.0650569 -1.3968635,1.0598087 -1.3939388,1.0542816 -1.3897033,1.0424185 -1.3866538,1.029961 -1.3498186,1.0348723z" transform="matrix(1,0,0,-1,2.9572776,1.119388)" fill="rgb(0,0,0)" stroke-linecap="round" stroke-linejoin="round" /><path d="M-1.0770358,1.0786649 L-0.9299005,1.0786649 -0.9299005,1.0786649 -0.937154,1.068283 -0.945453,1.0587127 -0.945453,1.0587127 -0.9663247,1.039377 -0.9880179,1.0209569 -0.9880179,1.0209569 -1.0172657,0.9954673 -1.0448049,0.9681601 -1.0448049,0.9681601 -1.0519163,0.9596596 -1.0585116,0.9508192 -1.064187,0.941373 -1.0692595,0.9315298 -1.0692595,0.9315298 -1.0723321,0.9229338 -1.0747392,0.9142001 -1.0760237,0.9052343 -1.0766262,0.8961274 -1.0766262,0.8961274 -1.0746999,0.8794333 -1.0729954,0.8714017 -1.0704013,0.8637486 -1.066714,0.8565606 -1.0621275,0.8497553 -1.0514558,0.8367822 -1.0514558,0.8367822 -1.0360793,0.8260934 -1.0280856,0.8215887 -1.019726,0.81809 -1.01095,0.8157357 -1.0018493,0.8142742 -0.9831065,0.8128395 -0.9831065,0.8128395 -0.9646273,0.814137 -0.955623,0.815479 -0.9469008,0.8176528 -0.9385414,0.8208958 -0.9305029,0.8250849 -0.9149619,0.8350428 -0.9149619,0.8350428 -0.9032121,0.8491055 -0.8981313,0.8565091 -0.894002,0.8643586 -0.8909489,0.8727124 -0.8887334,0.8814589 -0.8856987,0.8996063 -0.9235567,0.9034944 -0.9235567,0.9034944 -0.9245843,0.891298 -0.9255902,0.885387 -0.9271867,0.8797004 -0.9295409,0.8743019 -0.9325633,0.8691574 -0.9397234,0.8592925 -0.9397234,0.8592925 -0.9491918,0.8522628 -0.954133,0.8492843 -0.9593225,0.8469492 -0.9647996,0.8453596 -0.9705032,0.8443572 -0.982288,0.8433307 -0.982288,0.8433307 -0.9935413,0.8443199 -1.0042398,0.8467774 -1.0092217,0.8489785 -1.0139778,0.8517773 -1.0231134,0.8583716 -1.0231134,0.8583716 -1.0297326,0.8664576 -1.0325802,0.8706967 -1.0348735,0.8751711 -1.0375564,0.8849277 -1.0387682,0.8953088 -1.0387682,0.8953088 -1.03698,0.9073178 -1.0337273,0.9187823 -1.0282675,0.9294262 -1.0215787,0.9396131 -1.0215787,0.9396131 -1.0063554,0.9568236 -0.9903105,0.9731972 -0.9731809,0.988466 -0.9554804,1.0031533 -0.9554804,1.0031533 -0.9303929,1.024827 -0.9186304,1.0364844 -0.9072879,1.0485831 -0.9072879,1.0485831 -0.9000452,1.0578482 -0.8934265,1.0674892 -0.8878913,1.0777829 -0.8830384,1.0884876 -0.8830384,1.0884876 -0.879604,1.1010611 -0.8787409,1.1140674 -1.0770358,1.1140674 -1.0770358,1.0786649z" transform="matrix(1,0,0,-1,2.9572776,1.119388)" fill="rgb(0,0,0)" stroke-linecap="round" stroke-linejoin="round" /><path d="M-0.6108693,1.0786649 L-0.463734,1.0786649 -0.463734,1.0786649 -0.4709875,1.068283 -0.4792865,1.0587127 -0.4792865,1.0587127 -0.5001582,1.039377 -0.5218514,1.0209569 -0.5218514,1.0209569 -0.5510994,0.9954673 -0.5786387,0.9681601 -0.5786387,0.9681601 -0.5857499,0.9596595 -0.5923452,0.9508192 -0.5980205,0.941373 -0.603093,0.9315298 -0.603093,0.9315298 -0.6061657,0.9229338 -0.6085729,0.9142001 -0.6098575,0.9052343 -0.6104599,0.8961274 -0.6104599,0.8961274 -0.6085335,0.8794333 -0.606829,0.8714017 -0.6042348,0.8637486 -0.6005475,0.8565607 -0.595961,0.8497553 -0.5852893,0.8367822 -0.5852893,0.8367822 -0.5699128,0.8260934 -0.5619191,0.8215887 -0.5535595,0.81809 -0.5447835,0.8157357 -0.5356828,0.8142742 -0.51694,0.8128395 -0.51694,0.8128395 -0.4984609,0.814137 -0.4894565,0.815479 -0.4807343,0.8176528 -0.4723749,0.8208958 -0.4643364,0.8250849 -0.4487954,0.8350428 -0.4487954,0.8350428 -0.4370456,0.8491055 -0.4319648,0.8565091 -0.4278355,0.8643586 -0.4247824,0.8727124 -0.4225669,0.8814589 -0.4195322,0.8996063 -0.4573902,0.9034944 -0.4573902,0.9034944 -0.458418,0.8912981 -0.4594239,0.885387 -0.4610204,0.8797005 -0.4633746,0.874302 -0.466397,0.8691575 -0.4735569,0.8592925 -0.4735569,0.8592925 -0.4830253,0.8522628 -0.4879665,0.8492843 -0.493156,0.8469492 -0.4986331,0.8453596 -0.5043367,0.8443572 -0.5161215,0.8433307 -0.5161215,0.8433307 -0.5273748,0.8443199 -0.5380733,0.8467774 -0.5430552,0.8489785 -0.5478113,0.8517773 -0.5569469,0.8583716 -0.5569469,0.8583716 -0.5635661,0.8664576 -0.5664137,0.8706967 -0.568707,0.8751711 -0.5713899,0.8849277 -0.5726017,0.8953088 -0.5726017,0.8953088 -0.5708135,0.9073178 -0.5675608,0.9187823 -0.562101,0.9294262 -0.5554122,0.9396131 -0.5554122,0.9396131 -0.5401889,0.9568236 -0.524144,0.9731972 -0.5070145,0.988466 -0.4893139,1.0031533 -0.4893139,1.0031533 -0.4642264,1.024827 -0.4524639,1.0364844 -0.4411214,1.0485831 -0.4411214,1.0485831 -0.4338787,1.0578482 -0.42726,1.0674892 -0.4217248,1.0777829 -0.4168719,1.0884876 -0.4168719,1.0884876 -0.4134378,1.1010611 -0.4125746,1.1140674 -0.6108693,1.1140674 -0.6108693,1.0786649z" transform="matrix(1,0,0,-1,2.9572776,1.119388)" fill="rgb(0,0,0)" stroke-linecap="round" stroke-linejoin="round" /><path d="M0.0488852,1.0354862 L0.0488852,1.0354862 0.0455513,1.0526814 0.0432054,1.0609443 0.0400449,1.0688056 0.0358645,1.0761642 0.0308253,1.0830993 0.019315,1.0962638 0.019315,1.0962638 0.0041526,1.1063617 -0.0037007,1.1106395 -0.0118803,1.1139925 -0.0204379,1.1162741 -0.0292931,1.1177123 -0.0474994,1.1191833 -0.0474994,1.1191833 -0.0702355,1.116565 -0.0810931,1.1141664 -0.0913382,1.1104603 -0.10082,1.1051251 -0.1096633,1.0984267 -0.1262852,1.0827577 -0.1262852,1.0827577 -0.1364767,1.0666099 -0.1408366,1.0582852 -0.1443136,1.0496596 -0.1467331,1.0406734 -0.1483022,1.0313973 -0.1500233,1.0123621 -0.1500233,1.0123621 -0.1481601,0.9929428 -0.1464128,0.9835538 -0.1436868,0.9745497 -0.1397316,0.966029 -0.1347361,0.9579172 -0.123011,0.9423757 -0.123011,0.9423757 -0.1083934,0.9308205 -0.1007492,0.9258568 -0.0927024,0.9218698 -0.0841671,0.9190681 -0.0752348,0.9172298 -0.0567082,0.9151588 -0.0567082,0.9151588 -0.0415286,0.9167845 -0.0341143,0.9181336 -0.0269105,0.9201259 -0.0199563,0.9228809 -0.0132013,0.9262444 -0.0000232,0.9339855 -0.0161897,0.853358 -0.1359032,0.853358 -0.1359032,0.8181601 0.0132781,0.8181601 0.0423368,0.9722529 0.007753,0.976755 0.007753,0.976755 0.0030355,0.9705392 -0.0021856,0.9648612 -0.0082292,0.9600617 -0.0147573,0.9557795 -0.0147573,0.9557795 -0.0224188,0.9523029 -0.0302856,0.9496326 -0.0384871,0.9482777 -0.0468855,0.9476963 -0.0468855,0.9476963 -0.0598033,0.9489342 -0.0660408,0.9501049 -0.0720127,0.9519376 -0.0776502,0.954604 -0.0830034,0.9579787 -0.0932361,0.9659091 -0.0932361,0.9659091 -0.1011363,0.9770565 -0.1044662,0.9828594 -0.107053,0.9889371 -0.108794,0.9953273 -0.1098751,1.0019614 -0.1109373,1.0156363 -0.1109373,1.0156363 -0.1098001,1.0301789 -0.1086624,1.0372465 -0.1068418,1.0440696 -0.104149,1.0505805 -0.1006957,1.0568192 -0.0925199,1.0688423 -0.0925199,1.0688423 -0.0827713,1.0772512 -0.0776414,1.0808797 -0.0722049,1.083817 -0.0663911,1.085904 -0.0602665,1.0872907 -0.0474994,1.0888968 -0.0474994,1.0888968 -0.0371135,1.0878372 -0.0272396,1.085428 -0.0182293,1.0807426 -0.0097436,1.0746745 -0.0097436,1.0746745 -0.0021749,1.0653163 0.0011407,1.0604089 0.0038958,1.0552283 0.0076894,1.0440306 0.0102086,1.032212 0.0488852,1.0354862z" transform="matrix(1,0,0,-1,2.9572776,1.119388)" fill="rgb(0,0,0)" stroke-linecap="round" stroke-linejoin="round" /><path d="M0.1638922,1.0084739 L0.2578212,1.0084739 0.1638922,0.8732079 0.1638922,1.0084739z" transform="matrix(1,0,0,-1,2.9572776,1.119388)" fill="rgb(255,255,255)" stroke="rgb(0,0,0)" stroke-width="0.0010cm" stroke-linecap="round" stroke-linejoin="round" /><path d="M-0.2216468,1.0275053 L-0.2216468,1.0275053 -0.2228933,1.0155463 -0.2240259,1.0097714 -0.2257696,1.0042421 -0.2282725,0.9990178 -0.2314082,0.9940477 -0.2387341,0.9845312 -0.2387341,0.9845312 -0.2482564,0.977146 -0.2532331,0.9739874 -0.2584687,0.9714696 -0.2640138,0.9697187 -0.2698078,0.968584 -0.2818104,0.9673416 -0.2818104,0.9673416 -0.2941141,0.9685996 -0.3000595,0.9697481 -0.3057574,0.9715201 -0.3111471,0.9740679 -0.3162793,0.9772638 -0.3261148,0.9847358 -0.3261148,0.9847358 -0.3337194,0.9944409 -0.3369719,0.9995172 -0.3395646,1.0048622 -0.3413677,1.0105286 -0.3425362,1.0164533 -0.3438159,1.0287331 -0.3438159,1.0287331 -0.3425892,1.0407671 -0.3414608,1.0465762 -0.3397144,1.0521359 -0.3371968,1.0573844 -0.3340325,1.0623719 -0.3266263,1.0719118 -0.3266263,1.0719118 -0.31695,1.0792443 -0.3118999,1.0823747 -0.3065955,1.0848622 -0.3009885,1.0865848 -0.2951396,1.0876954 -0.2830382,1.0888968 -0.2830382,1.0888968 -0.2747522,1.088272 -0.2666601,1.0868873 -0.2588922,1.0842325 -0.2513193,1.0808136 -0.2513193,1.0808136 -0.2445565,1.076287 -0.2384526,1.0711202 -0.2334518,1.0648814 -0.2291161,1.0579964 -0.2291161,1.0579964 -0.2260006,1.0506774 -0.22356,1.0431942 -0.2222576,1.0354339 -0.2216468,1.0275053z" transform="matrix(1,0,0,-1,2.9572776,1.119388)" fill="rgb(255,255,255)" stroke="rgb(0,0,0)" stroke-width="0.0010cm" stroke-linecap="round" stroke-linejoin="round" /><path d="M-0.2335158,0.888965 L-0.2335158,0.888965 -0.2346374,0.8798722 -0.2370526,0.8713335 -0.2416057,0.8637104 -0.2474311,0.8566322 -0.2474311,0.8566322 -0.2552221,0.8508095 -0.2635443,0.8463443 -0.2727307,0.8440873 -0.2824243,0.843126 -0.2824243,0.843126 -0.2921234,0.8441373 -0.3012961,0.8464649 -0.3095776,0.8510218 -0.3173152,0.8569391 -0.3173152,0.8569391 -0.3232739,0.8644426 -0.3278859,0.8725028 -0.3302719,0.8814833 -0.331333,0.8910114 -0.331333,0.8910114 -0.3302899,0.9002028 -0.3279647,0.9088614 -0.3234921,0.9166277 -0.3177246,0.9238559 -0.3177246,0.9238559 -0.3099665,0.9296723 -0.3016703,0.9341133 -0.2925053,0.9363339 -0.2828337,0.9372597 -0.2828337,0.9372597 -0.2729751,0.9363506 -0.2636254,0.9341294 -0.2551526,0.9296465 -0.2472266,0.9237536 -0.2472266,0.9237536 -0.2412881,0.9160632 -0.2367482,0.907812 -0.2344711,0.8986535 -0.2335158,0.888965z" transform="matrix(1,0,0,-1,2.9572776,1.119388)" fill="rgb(255,255,255)" stroke="rgb(0,0,0)" stroke-width="0.0010cm" stroke-linecap="round" stroke-linejoin="round" /><path d="M-1.2346071,1.0084739 L-1.1406783,1.0084739 -1.2346071,0.8732079 -1.2346071,1.0084739z" transform="matrix(1,0,0,-1,2.9572776,1.119388)" fill="rgb(255,255,255)" stroke="rgb(0,0,0)" stroke-width="0.0010cm" stroke-linecap="round" stroke-linejoin="round" /><path d="M-2.2180995,1.0275053 L-2.2180995,1.0275053 -2.219346,1.0155463 -2.2204786,1.0097714 -2.2222223,1.0042421 -2.2247253,0.9990178 -2.2278609,0.9940477 -2.2351869,0.9845312 -2.2351869,0.9845312 -2.2447092,0.9771461 -2.249686,0.9739875 -2.2549215,0.9714697 -2.2604667,0.9697188 -2.2662606,0.9685841 -2.2782632,0.9673416 -2.2782632,0.9673416 -2.2905669,0.9685996 -2.2965123,0.9697481 -2.3022102,0.9715201 -2.3075999,0.9740679 -2.3127321,0.9772638 -2.3225676,0.9847358 -2.3225676,0.9847358 -2.3301722,0.9944409 -2.3334247,0.9995172 -2.3360174,1.0048622 -2.3378205,1.0105286 -2.3389892,1.0164533 -2.340269,1.0287331 -2.340269,1.0287331 -2.3390424,1.0407672 -2.337914,1.0465763 -2.3361676,1.052136 -2.33365,1.0573845 -2.3304857,1.0623719 -2.3230792,1.0719118 -2.3230792,1.0719118 -2.3134029,1.0792443 -2.3083528,1.0823747 -2.3030484,1.0848622 -2.2974414,1.0865848 -2.2915924,1.0876954 -2.2794911,1.0888968 -2.2794911,1.0888968 -2.271205,1.088272 -2.2631129,1.0868873 -2.255345,1.0842325 -2.2477721,1.0808136 -2.2477721,1.0808136 -2.2410093,1.076287 -2.2349054,1.0711202 -2.2299046,1.0648814 -2.2255689,1.0579964 -2.2255689,1.0579964 -2.2224533,1.0506775 -2.2200126,1.0431943 -2.2187102,1.035434 -2.2180995,1.0275053z" transform="matrix(1,0,0,-1,2.9572776,1.119388)" fill="rgb(255,255,255)" stroke="rgb(0,0,0)" stroke-width="0.0010cm" stroke-linecap="round" stroke-linejoin="round" /><path d="M-2.2299687,0.888965 L-2.2299687,0.888965 -2.2310903,0.8798723 -2.2335056,0.8713335 -2.2380587,0.8637104 -2.243884,0.8566322 -2.243884,0.8566322 -2.2516749,0.8508095 -2.2599971,0.8463443 -2.2691835,0.8440873 -2.2788771,0.843126 -2.2788771,0.843126 -2.2885762,0.8441373 -2.2977489,0.8464649 -2.3060304,0.8510218 -2.313768,0.8569391 -2.313768,0.8569391 -2.3197267,0.8644426 -2.3243387,0.8725028 -2.3267247,0.8814833 -2.3277858,0.8910114 -2.3277858,0.8910114 -2.3267427,0.9002028 -2.3244174,0.9088614 -2.3199448,0.9166277 -2.3141774,0.9238559 -2.3141774,0.9238559 -2.3064193,0.9296723 -2.2981231,0.9341132 -2.2889581,0.9363338 -2.2792865,0.9372597 -2.2792865,0.9372597 -2.269428,0.9363506 -2.2600782,0.9341294 -2.2516054,0.9296465 -2.2436794,0.9237536 -2.2436794,0.9237536 -2.2377409,0.9160632 -2.233201,0.907812 -2.2309239,0.8986535 -2.2299687,0.888965z" transform="matrix(1,0,0,-1,2.9572776,1.119388)" fill="rgb(255,255,255)" stroke="rgb(0,0,0)" stroke-width="0.0010cm" stroke-linecap="round" stroke-linejoin="round" /><path d="M-0.2844265,0.0227651 L-0.2844265,0.0227651 -0.2859303,-0.0124343 -0.2880314,-0.0295696 -0.2917516,-0.0461477 -0.2943875,-0.0541697 -0.2976088,-0.0619902 -0.3055475,-0.0771164 -0.3148942,-0.091758 -0.324945,-0.1061572 -0.324945,-0.1061572 -0.3464687,-0.1224632 -0.3576839,-0.129481 -0.3694433,-0.1351366 -0.3818669,-0.1391293 -0.3948333,-0.1417631 -0.4216707,-0.1447657 -0.4216707,-0.1447657 -0.4405075,-0.1432801 -0.4497572,-0.1419418 -0.4588046,-0.1398889 -0.4676014,-0.1369512 -0.4761902,-0.1332791 -0.4930213,-0.1247111 -0.4930213,-0.1247111 -0.5080095,-0.1130957 -0.5150008,-0.1068558 -0.5213885,-0.1000974 -0.5270516,-0.0927161 -0.5321308,-0.0848331 -0.5413161,-0.0682308 -0.5413161,-0.0682308 -0.5486241,-0.0475485 -0.5517142,-0.0370949 -0.5541282,-0.0265065 -0.5557642,-0.015763 -0.5567897,-0.0048979 -0.5578235,0.0170352 -0.5578235,0.0170352 -0.555783,0.0494431 -0.5535364,0.0652284 -0.5498182,0.0805111 -0.5441908,0.095142 -0.5368314,0.1091815 -0.528313,0.1228253 -0.5192151,0.1362712 -0.5192151,0.1362712 -0.4978276,0.154215 -0.4865825,0.1619066 -0.4746759,0.1680619 -0.4619718,0.172365 -0.4486233,0.1751716 -0.4208522,0.1782903 -0.4208522,0.1782903 -0.3933553,0.1751437 -0.3801338,0.1723411 -0.3675448,0.1680634 -0.3557352,0.1619679 -0.3445687,0.1543722 -0.3233078,0.1366805 -0.3233078,0.1366805 -0.3058559,0.1109521 -0.2985166,0.0975946 -0.2928381,0.0836463 -0.2890343,0.0690311 -0.2866884,0.0538972 -0.2844265,0.0227651z" transform="matrix(1,0,0,-1,2.9572776,1.119388)" fill="rgb(255,255,255)" stroke="rgb(0,0,0)" stroke-width="0.0010cm" stroke-linecap="round" stroke-linejoin="round" /><path d="M-1.7490924,-0.0067029 L-1.7490924,-0.1390358 -1.8756955,-0.1390358 -1.8756955,-0.1390358 -1.8931512,-0.13834 -1.901693,-0.1373851 -1.9100117,-0.1357017 -1.9180361,-0.1330575 -1.925775,-0.1294815 -1.9407704,-0.1207547 -1.9407704,-0.1207547 -1.9495304,-0.1106925 -1.9532912,-0.1053865 -1.956309,-0.0997508 -1.9584266,-0.0937156 -1.9598138,-0.0873562 -1.9613707,-0.0740972 -1.9613707,-0.0740972 -1.9605279,-0.0645892 -1.9586911,-0.0553755 -1.9552037,-0.0466503 -1.9507296,-0.0382172 -1.9507296,-0.0382172 -1.9443524,-0.0304196 -1.9371959,-0.0236218 -1.9287786,-0.0184415 -1.9196246,-0.0142063 -1.9196246,-0.0142063 -1.9056797,-0.0106306 -1.8915882,-0.0080786 -1.8772868,-0.0069927 -1.8628714,-0.0067029 -1.7490924,-0.0067029z" transform="matrix(1,0,0,-1,2.9572776,1.119388)" fill="rgb(255,255,255)" stroke="rgb(0,0,0)" stroke-width="0.0010cm" stroke-linecap="round" stroke-linejoin="round" /><path d="M-2.5756034,0.990875 L-2.6085499,0.9028805 -2.6085499,0.9028805 -2.6177497,0.8745458 -2.6247162,0.8455817 -2.6247162,0.8455817 -2.6347377,0.8768972 -2.6459988,0.9077918 -2.6773084,0.990875 -2.5756034,0.990875z" transform="matrix(1,0,0,-1,2.9572776,1.119388)" fill="rgb(255,255,255)" stroke="rgb(0,0,0)" stroke-width="0.0010cm" stroke-linecap="round" stroke-linejoin="round" /></svg>