<?xml version="1.0" encoding="utf-8"?>
<!-- Generator: Fusion 360, Shaper Origin Export Add-In, Version 1.6.10  -->
<svg xmlns="http://www.w3.org/2000/svg" xmlns:xlink="http://www.w3.org/1999/xlink" xmlns:shaper="http://www.shapertools.com/namespaces/shaper" shaper:fusionaddin="version:1.6.10" width="3.3816792cm" height="2.0335623cm" version="1.1" x="0cm" y="0cm" viewBox="0 0 3.3816792 2.0335623" enable-background="new 0 0 3.3816792 2.0335623" xml:space="preserve"><path d="M1.6909892,-0.0000046 L1.6909892,-0.0000046 1.6897926,0.0382433 1.6862043,0.0764371 1.6802293,0.1145226 1.6718762,0.1524461 1.6611567,0.1901539 1.6480861,0.2275924 1.6326827,0.2647089 1.6149685,0.3014507 1.5949685,0.3377658 1.572711,0.3736028 1.5482274,0.4089111 1.5215526,0.4436406 1.4927241,0.4777421 1.4617829,0.5111675 1.4287727,0.5438694 1.3937402,0.5758015 1.356735,0.6069186 1.3178095,0.6371766 1.2770188,0.6665329 1.2344206,0.6949457 1.1900753,0.7223749 1.1440455,0.7487817 1.0963965,0.7741286 1.0471956,0.7983799 0.9965125,0.8215011 0.944419,0.8434596 0.8909888,0.8642242 0.8362975,0.8837657 0.7804225,0.9020563 0.7234428,0.9190701 0.6654393,0.9347831 0.6064939,0.949173 0.54669,0.9622195 0.4861124,0.973904 0.4248467,0.9842101 0.3629797,0.9931231 0.300599,1.0006305 0.2377928,1.0067217 0.17465,1.0113879 0.1112601,1.0146226 0.0477126,1.0164212 -0.0159024,1.0167812 -0.0794948,1.015702 -0.1429748,1.0131853 -0.2062524,1.0092345 -0.2692381,1.0038552 -0.3318426,0.9970551 -0.3939775,0.9888437 -0.4555548,0.9792328 -0.5164873,0.9682359 -0.5766887,0.9558685 -0.636074,0.9421482 -0.6945589,0.9270944 -0.7520607,0.9107285 -0.8084981,0.8930734 -0.8637912,0.8741544 -0.9178616,0.853998 -0.970633,0.832633 -1.0220305,0.8100894 -1.0719814,0.7863992 -1.1204151,0.761596 -1.1672629,0.7357148 -1.2124586,0.7087923 -1.2559382,0.6808666 -1.2976402,0.6519772 -1.3375055,0.622165 -1.3754777,0.5914722 -1.4115031,0.5599422 -1.4455307,0.5276197 -1.4775122,0.4945504 -1.5074026,0.4607811 -1.5351593,0.4263597 -1.5607432,0.3913348 -1.5841181,0.3557559 -1.6052508,0.3196736 -1.6241114,0.2831388 -1.6406734,0.2462032 -1.6549131,0.2089192 -1.6668105,0.1713394 -1.6763486,0.1335172 -1.6835142,0.095506 -1.6882968,0.0573596 -1.6906899,0.019132 -1.69069,-0.0191227 -1.6882972,-0.0573503 -1.6835147,-0.0954967 -1.6763494,-0.133508 -1.6668114,-0.1713303 -1.6549142,-0.2089101 -1.6406747,-0.2461942 -1.624113,-0.2831299 -1.6052525,-0.3196648 -1.58412,-0.3557473 -1.5607454,-0.3913262 -1.5351616,-0.4263513 -1.5074051,-0.4607729 -1.4775149,-0.4945423 -1.4455336,-0.5276118 -1.4115062,-0.5599345 -1.375481,-0.5914647 -1.3375089,-0.6221577 -1.2976438,-0.6519701 -1.255942,-0.6808597 -1.2124625,-0.7087857 -1.1672669,-0.7357084 -1.1204192,-0.7615899 -1.0719857,-0.7863934 -1.0220349,-0.8100838 -0.9706375,-0.8326277 -0.9178663,-0.853993 -0.863796,-0.8741496 -0.808503,-0.893069 -0.7520657,-0.9107243 -0.694564,-0.9270906 -0.6360791,-0.9421448 -0.576694,-0.9558654 -0.5164926,-0.968233 -0.4555602,-0.9792303 -0.393983,-0.9888416 -0.3318481,-0.9970533 -0.2692435,-1.0038537 -0.2062579,-1.0092333 -0.1429803,-1.0131845 -0.0795004,-1.0157016 -0.0159079,-1.0167811 0.047707,-1.0164215 0.1112545,-1.0146232 0.1746445,-1.0113888 0.2377873,-1.006723 0.3005935,-1.0006322 0.3629743,-0.9931251 0.4248413,-0.9842124 0.4861071,-0.9739067 0.5466847,-0.9622225 0.6064887,-0.9491763 0.6654342,-0.9347867 0.7234378,-0.9190741 0.7804175,-0.9020606 0.8362926,-0.8837703 0.8909841,-0.8642291 0.9444144,-0.8434647 0.996508,-0.8215065 1.0471912,-0.7983856 1.0963922,-0.7741346 1.1440414,-0.7487879 1.1900713,-0.7223814 1.2344168,-0.6949524 1.2770152,-0.6665399 1.317806,-0.6371839 1.3567317,-0.606926 1.393737,-0.5758091 1.4287697,-0.5438772 1.4617801,-0.5111755 1.4927215,-0.4777503 1.5215502,-0.4436489 1.5482252,-0.4089196 1.5727089,-0.3736114 1.5949666,-0.3377745 1.6149669,-0.3014595 1.6326813,-0.2647178 1.6480848,-0.2276015 1.6611557,-0.190163 1.6718754,-0.1524553 1.6802287,-0.1145318 1.6862039,-0.0764463 1.6897924,-0.0382525 1.6909892,-0.0000046z" transform="matrix(1,0,0,-1,1.69069,1.0167812)" fill="rgb(0,0,0)" shaper:cutDepth="0.001" stroke-linecap="round" stroke-linejoin="round" /></svg>