<?xml version="1.0" encoding="utf-8"?>
<!-- Generator: Fusion 360, Shaper Origin Export Add-In, Version 1.6.10  -->
<svg xmlns="http://www.w3.org/2000/svg" xmlns:xlink="http://www.w3.org/1999/xlink" xmlns:shaper="http://www.shapertools.com/namespaces/shaper" shaper:fusionaddin="version:1.6.10" width="2.7796642cm" height="2.8009403cm" version="1.1" x="0cm" y="0cm" viewBox="0 0 2.7796642 2.8009403" enable-background="new 0 0 2.7796642 2.8009403" xml:space="preserve"><path d="M1.8395028,-0.5623558 L1.8395028,-0.5623558 1.8659273,-0.5346777 1.8906359,-0.5053327 1.9135934,-0.4743623 1.9347675,-0.4418104 1.9541281,-0.4077231 1.9716479,-0.3721486 1.987302,-0.3351372 2.0010683,-0.2967413 2.0129273,-0.2570154 2.0228623,-0.2160155 2.0308591,-0.1737998 2.0369065,-0.130428 2.0409959,-0.0859615 2.0431214,-0.0404631 2.0432802,0.0060026 2.0414719,0.0533699 2.0376991,0.1015718 2.0319672,0.1505401 2.0242843,0.2002054 2.0146612,0.2504974 2.0031117,0.301345 1.9896519,0.3526762 1.974301,0.4044183 1.9570807,0.4564982 1.9380154,0.508842 1.917132,0.5613758 1.8944601,0.614025 1.8700319,0.6667154 1.8438818,0.7193721 1.8160469,0.7719208 1.7865666,0.8242871 1.7554826,0.8763968 1.722839,0.9281761 1.6886818,0.9795518 1.6530595,1.0304512 1.6160225,1.0808023 1.5776232,1.1305337 1.5379159,1.179575 1.4969569,1.2278569 1.4548041,1.2753111 1.4115173,1.3218702 1.3671575,1.3674686 1.3217877,1.4120415 1.2754721,1.455526 1.2282762,1.4978605 1.1802667,1.538985 1.1315118,1.5788414 1.0820803,1.6173732 1.0320423,1.6545259 0.9814685,1.690247 0.9304306,1.7244858 0.8790007,1.7571939 0.8272517,1.788325 0.7752568,1.817835 0.7230897,1.8456822 0.6708241,1.8718272 0.618534,1.8962329 0.5662935,1.9188648 0.5141764,1.939691 0.4622566,1.9586818 0.4106074,1.9758104 0.3593022,1.9910526 0.3084134,2.0043868 0.258013,2.0157941 0.2081725,2.0252584 0.1589623,2.0327663 0.1104521,2.0383072 0.0627106,2.0418732 0.0158054,2.0434592 -0.0301973,2.0430631 -0.0752322,2.0406854 -0.1192356,2.0363294 -0.1621452,2.0300013 -0.2039004,2.0217101 -0.2444419,2.0114676 -0.2837125,1.9992881 -0.3216565,1.9851889 -0.3582202,1.9691901 -0.3933519,1.9513142 -0.4270019,1.9315866 -0.4591225,1.9100351 -0.4896682,1.8866904 -0.5185959,1.8615853 -0.5458646,1.8347555 -0.5714356,1.8062388 -0.5952729,1.7760758 -0.6173426,1.7443091 -0.6376135,1.7109836 -0.656057,1.6761465 -0.6726469,1.6398471 -0.6873597,1.6021368 -0.7001747,1.563069 -0.7110736,1.522699 -0.7200411,1.4810838 -0.7270644,1.4382825 -0.7321337,1.3943555 -0.7352417,1.3493651 -0.736384,1.303375 -0.7355591,1.2564502 -0.7327681,1.2086571 -0.7280149,1.1600634 -0.7213063,1.1107379 -0.7126518,1.0607504 -0.7020636,1.0101716 -0.6895567,0.9590732 -0.6751488,0.9075274 -0.6588604,0.8556072 -0.6407143,0.8033861 -0.6207364,0.7509381 -0.598955,0.6983372 -0.5754007,0.6456581 -0.5501071,0.5929752 -0.5231099,0.5403632 -0.4944472,0.4878964 -0.4641597,0.4356492 -0.4322902,0.3836955 -0.3988839,0.3321089 -0.363988,0.2809623 -0.3276519,0.2303281 -0.2899271,0.180278 -0.2508669,0.1308829 -0.2105266,0.0822127 -0.1689634,0.0343362 -0.126236,-0.0126788 -0.0824049,-0.0587657 -0.0375322,-0.1038594 0.0083186,-0.1478959 0.0550827,-0.1908129 0.1026938,-0.2325498 0.1510845,-0.2730474 0.2001864,-0.3122485 0.24993,-0.3500974 0.3002448,-0.3865408 0.3510596,-0.4215269 0.4023026,-0.4550063 0.4539012,-0.4869315 0.5057823,-0.5172574 0.5578725,-0.5459411 0.6100981,-0.572942 0.6623852,-0.5982218 0.7146598,-0.6217448 0.7668478,-0.6434777 0.8188755,-0.6633897 0.8706691,-0.6814526 0.9221554,-0.6976408 0.9732615,-0.7119316 1.023915,-0.7243045 1.0740444,-0.7347422 1.1235785,-0.7432298 1.1724473,-0.7497553 1.2205817,-0.7543096 1.2679134,-0.756886 1.3143756,-0.7574811 1.3599024,-0.7560939 1.4044294,-0.7527265 1.4478936,-0.7473835 1.4902335,-0.7400726 1.5313892,-0.7308041 1.5713023,-0.7195911 1.6099164,-0.7064494 1.6471769,-0.6913978 1.6830309,-0.6744574 1.7174278,-0.6556524 1.7503189,-0.6350092 1.7816577,-0.6125571 1.8113996,-0.5883278 1.8395028,-0.5623558z" transform="matrix(1,0,0,-1,0.736384,2.0434592)" fill="rgb(0,0,0)" stroke-linecap="round" stroke-linejoin="round" /><path d="M-0.229247,0.7668827 L-0.229247,0.7668827 -0.2270451,0.7674914 -0.2240237,0.7685737 -0.2202361,0.770103 -0.2157354,0.7720529 -0.210575,0.7743969 -0.2048079,0.7771084 -0.1916665,0.783528 -0.1767371,0.7910994 -0.1604453,0.7996106 -0.1432165,0.8088495 -0.1254766,0.8186038 -0.1254766,0.8186038 -0.1162434,0.8237249 -0.1064545,0.8291165 -0.0855512,0.8405291 -0.040834,0.8645953 -0.0183866,0.8765198 0.0032089,0.887886 0.0232694,0.8983291 0.0325104,0.9030907 0.0411114,0.9074848 0.0411114,0.9074848 0.0591603,0.9167303 0.0779902,0.9265098 0.0975194,0.9367758 0.1176662,0.9474808 0.1594861,0.970018 0.2027962,0.9937418 0.2912732,1.0432299 0.3351331,1.0682347 0.3778692,1.0929072 0.418828,1.1168675 0.4384367,1.1284619 0.457356,1.1397359 0.4755043,1.150642 0.4927998,1.1611327 0.5091608,1.1711605 0.5245057,1.1806781 0.5387528,1.1896379 0.5518203,1.1979924 0.5636267,1.2056942 0.5740901,1.2126959 0.583129,1.2189499 0.5906616,1.2244088 0.5966062,1.2290251 0.6008812,1.2327514 0.6008812,1.2327514 0.6046903,1.2367608 0.6084334,1.2413907 0.6153588,1.2518845 0.6209311,1.2629783 0.6229829,1.268358 0.624424,1.2734173 0.624424,1.2734173 0.626217,1.2811862 0.6279699,1.2878581 0.6299184,1.2933605 0.6322982,1.2976211 0.6353449,1.3005674 0.6392941,1.3021271 0.6443817,1.3022276 0.6508431,1.3007966 0.6589142,1.2977616 0.663627,1.29562 0.6688306,1.2930502 0.6745544,1.2900432 0.6808279,1.28659 0.6876806,1.2826815 0.6951418,1.2783086 0.7032412,1.2734623 0.7120081,1.2681335 0.721472,1.2623132 0.7316623,1.2559923 0.7426085,1.2491618 0.7543401,1.2418126 0.7668866,1.2339357 0.7802773,1.225522 0.7802773,1.225522 0.8050378,1.2098783 0.8291479,1.1944688 0.8755953,1.1642282 0.9199772,1.1345502 0.9626513,1.105185 1.0039752,1.075883 1.0443066,1.0463943 1.0840031,1.016469 1.1234224,0.9858575 1.1234224,0.9858575 1.1335255,0.9778571 1.1430285,0.9702446 1.151933,0.963016 1.1602406,0.9561672 1.1679531,0.9496941 1.175072,0.9435926 1.181599,0.9378585 1.1875358,0.9324879 1.192884,0.9274766 1.1976452,0.9228205 1.2018212,0.9185155 1.2054135,0.9145576 1.2084238,0.9109426 1.2108538,0.9076665 1.2127051,0.9047251 1.2139793,0.9021144 1.2146781,0.8998303 1.2148032,0.8978686 1.2143562,0.8962254 1.2133388,0.8948965 1.2117525,0.8938777 1.2095991,0.8931651 1.2068802,0.8927545 1.2035975,0.8926419 1.1997525,0.8928231 1.195347,0.893294 1.1903826,0.8940506 1.184861,0.8950888 1.1787837,0.8964044 1.1721525,0.8979935 1.164969,0.8998518 1.1572348,0.9019753 1.1572348,0.9019753 1.1268735,0.9098248 1.0958472,0.9165029 1.064339,0.9220145 1.0325323,0.9263645 1.0006103,0.9295575 0.968756,0.9315987 0.9371528,0.9324927 0.9059838,0.9322444 0.8754322,0.9308586 0.8456812,0.9283404 0.8169141,0.9246943 0.7893141,0.9199254 0.7630642,0.9140385 0.7383479,0.9070384 0.7153481,0.89893 0.6942482,0.8897181 0.6942482,0.8897181 0.6849509,0.8850612 0.67626,0.8804063 0.6605238,0.8709333 0.6466931,0.8609603 0.6344214,0.8501488 0.6233619,0.8381599 0.6131682,0.824655 0.6034935,0.8092953 0.5939913,0.7917423 0.5939913,0.7917423 0.5904442,0.7849007 0.5870924,0.7787988 0.5838546,0.7733859 0.5806494,0.7686114 0.5740116,0.7607757 0.5665281,0.7548869 0.5575481,0.7505404 0.5522935,0.7488191 0.5464207,0.7473317 0.5398483,0.7460275 0.532495,0.7448559 0.5242794,0.7437665 0.5151202,0.7427086 0.5151202,0.7427086 0.4883229,0.7394735 0.4608236,0.7355915 0.4047265,0.7261411 0.3488443,0.7148656 0.3216135,0.7087023 0.2951922,0.7022734 0.2698322,0.6956423 0.2457854,0.6888727 0.2233037,0.6820279 0.202639,0.6751717 0.1840433,0.6683675 0.1756001,0.6650048 0.1677685,0.6616788 0.1605801,0.6583977 0.1540664,0.6551693 0.1482588,0.6520015 0.1431889,0.6489023 0.1431889,0.6489023 0.1328736,0.6416064 0.1236351,0.6339018 0.1154776,0.6258081 0.1084054,0.6173455 0.1024229,0.6085335 0.0975343,0.5993922 0.0937439,0.5899414 0.091056,0.580201 0.089475,0.5701907 0.089005,0.5599305 0.0896504,0.5494402 0.0914154,0.5387397 0.0943045,0.5278488 0.0983218,0.5167873 0.1034717,0.5055752 0.1097584,0.4942323 0.1097584,0.4942323 0.1194074,0.4799126 0.1305703,0.466467 0.1431785,0.4539208 0.1571631,0.4422995 0.1724554,0.4316285 0.1889867,0.4219331 0.2066881,0.413239 0.225491,0.4055714 0.2453266,0.3989557 0.266126,0.3934175 0.2878206,0.388982 0.3103416,0.3856748 0.3336202,0.3835212 0.3575877,0.3825467 0.3821752,0.3827767 0.4073141,0.3842365 0.4073141,0.3842365 0.4273506,0.3856004 0.4362979,0.3860063 0.4442351,0.3862233 0.4509402,0.3862478 0.4561911,0.3860761 0.4597658,0.3857045 0.4614423,0.3851294 0.4614423,0.3851294 0.4611505,0.3840388 0.4590835,0.3821902 0.4554149,0.3796833 0.4503182,0.3766182 0.4439671,0.3730947 0.4365351,0.3692127 0.4281958,0.3650721 0.4191228,0.3607728 0.4191228,0.3607728 0.4007932,0.3519554 0.3922859,0.3476309 0.3845119,0.3435221 0.3776923,0.3397487 0.3720483,0.3364301 0.367801,0.3336861 0.3651717,0.3316363 0.3651717,0.3316363 0.3625986,0.3287943 0.3601669,0.3253449 0.3557809,0.3168872 0.3521215,0.3067897 0.3492964,0.2955786 0.3474132,0.2837806 0.3465798,0.2719219 0.3469038,0.2605291 0.348493,0.2501284 0.348493,0.2501284 0.3513931,0.240331 0.3554791,0.2309226 0.3607908,0.22188 0.3673682,0.2131799 0.3752513,0.204799 0.3844798,0.1967141 0.3950938,0.1889018 0.4071332,0.1813388 0.4206378,0.174002 0.4356476,0.1668679 0.4522025,0.1599133 0.4703424,0.153115 0.4901073,0.1464497 0.511537,0.139894 0.5346716,0.1334246 0.5595508,0.1270184 0.5595508,0.1270184 0.5989691,0.1169185 0.6392527,0.1059547 0.6801252,0.0942269 0.72131,0.0818349 0.8035113,0.0554577 0.8439749,0.0416721 0.8836451,0.0276216 0.9222455,0.0134061 0.9594997,-0.0008747 0.9951313,-0.0151208 1.0288637,-0.0292325 1.0604207,-0.0431099 1.0752969,-0.0499295 1.0895256,-0.0566532 1.1030722,-0.0632683 1.1159022,-0.0697625 1.1279809,-0.0761233 1.1392739,-0.0823381 1.1392739,-0.0823381 1.1570893,-0.0924914 1.1738834,-0.1023004 1.1897353,-0.1118243 1.2047241,-0.121122 1.2189289,-0.1302525 1.2324289,-0.1392749 1.2576311,-0.1572312 1.2809638,-0.175463 1.3030601,-0.1944423 1.3245531,-0.2146412 1.346076,-0.2365318 1.346076,-0.2365318 1.3684212,-0.2606949 1.3790159,-0.2725991 1.3888489,-0.2839443 1.3976378,-0.2944001 1.4051003,-0.3036359 1.4082458,-0.3076929 1.4109539,-0.311321 1.4131892,-0.3144788 1.4149164,-0.317125 1.4149164,-0.317125 1.421291,-0.3275262 1.4281721,-0.3388102 1.434732,-0.3496165 1.4376328,-0.3544154 1.4401429,-0.3585846 1.4401429,-0.3585846 1.4435976,-0.3640724 1.4467104,-0.3682278 1.4497466,-0.3711478 1.4529715,-0.3729294 1.4566502,-0.3736693 1.4610482,-0.3734646 1.4664307,-0.372412 1.473063,-0.3706085 1.473063,-0.3706085 1.4814002,-0.3679434 1.4888024,-0.3650643 1.4952849,-0.3619215 1.5008632,-0.3584649 1.5055529,-0.3546447 1.5093692,-0.350411 1.5123279,-0.3457139 1.5144442,-0.3405035 1.5157337,-0.3347298 1.5162119,-0.3283431 1.5158941,-0.3212934 1.514796,-0.3135309 1.5129329,-0.3050055 1.5103204,-0.2956675 1.5069739,-0.2854669 1.5029088,-0.2743539 1.5029088,-0.2743539 1.4982658,-0.2628623 1.4933171,-0.2525027 1.4874061,-0.2424095 1.4798757,-0.231717 1.4752981,-0.2258756 1.4700693,-0.2195597 1.4641073,-0.2126612 1.4573299,-0.2050719 1.4496551,-0.1966835 1.4410008,-0.1873879 1.4312848,-0.1770768 1.420425,-0.1656422 1.420425,-0.1656422 1.4055556,-0.1502102 1.3913646,-0.1358882 1.3776993,-0.1225651 1.3644068,-0.1101299 1.3513344,-0.0984714 1.3383292,-0.0874787 1.3119093,-0.0670466 1.2839248,-0.0479451 1.2689637,-0.0386157 1.2531531,-0.029286 1.2363401,-0.0198447 1.218372,-0.010181 1.1990958,-0.0001837 1.1783589,0.0102582 1.1783589,0.0102582 1.1432423,0.0275465 1.1092161,0.0439365 1.0762068,0.059457 1.0441407,0.0741369 1.0129444,0.0880049 0.9825442,0.1010898 0.9528666,0.1134205 0.9238381,0.1250258 0.8953851,0.1359344 0.8674341,0.1461752 0.8399114,0.155777 0.8127436,0.1647686 0.7591783,0.1810364 0.7061497,0.1952092 0.7061497,0.1952092 0.684045,0.2007261 0.6632494,0.2059322 0.6437264,0.2108417 0.6254394,0.2154687 0.608352,0.2198273 0.5924276,0.2239316 0.5776297,0.2277957 0.5639217,0.2314337 0.5512671,0.2348598 0.5396293,0.238088 0.5289719,0.2411325 0.5192582,0.2440074 0.5104518,0.2467268 0.5025161,0.2493048 0.4954145,0.2517555 0.4891106,0.2540931 0.4835678,0.2563316 0.4787495,0.2584852 0.4746193,0.2605679 0.4711406,0.2625939 0.4659914,0.2665323 0.4630097,0.2704133 0.4619033,0.2743496 0.4623798,0.2784543 0.4641469,0.2828402 0.4669124,0.2876202 0.4669124,0.2876202 0.4690336,0.2903704 0.4719767,0.2932056 0.4757408,0.2961255 0.4803253,0.2991299 0.4857292,0.3022186 0.4919519,0.3053915 0.4989926,0.3086482 0.5068505,0.3119886 0.5155248,0.3154124 0.5250148,0.3189195 0.5353197,0.3225097 0.5464387,0.3261827 0.558371,0.3299383 0.571116,0.3337763 0.5846728,0.3376966 0.5990406,0.3416988 0.6142187,0.3457828 0.6302063,0.3499484 0.6470026,0.3541953 0.6646069,0.3585234 0.6830183,0.3629324 0.7022362,0.3674221 0.7222598,0.3719924 0.7430882,0.3766429 0.7647208,0.3813736 0.7871566,0.3861841 0.8103951,0.3910743 0.8344353,0.396044 0.8592766,0.4010929 0.8849181,0.4062208 0.9113591,0.4114276 0.9385988,0.416713 0.9385988,0.416713 0.9883125,0.4263117 1.0366115,0.4356795 1.0832905,0.4447751 1.1281442,0.4535572 1.170967,0.4619844 1.2115538,0.4700155 1.2309445,0.4738695 1.2496991,0.477609 1.2677921,0.4812289 1.2851976,0.4847238 1.3018901,0.4880887 1.3178438,0.4913185 1.3330332,0.4944079 1.3474325,0.4973517 1.3610161,0.5001449 1.3737583,0.5027822 1.3856333,0.5052585 1.3966157,0.5075686 1.4066796,0.5097074 1.4157994,0.5116696 1.4239495,0.5134502 1.4311041,0.515044 1.4372376,0.5164457 1.4423244,0.5176503 1.4463387,0.5186526 1.4492548,0.5194473 1.4492548,0.5194473 1.4594138,0.5233705 1.4688303,0.5289565 1.4774612,0.5361493 1.4852631,0.5448933 1.4921927,0.5551325 1.4982068,0.5668112 1.503262,0.5798736 1.507315,0.5942638 1.507315,0.5942638 1.5090583,0.6024179 1.5101003,0.6093576 1.5103979,0.6153187 1.5099082,0.6205372 1.5085883,0.6252489 1.5063952,0.6296896 1.503286,0.6340952 1.4992177,0.6387015 1.4992177,0.6387015 1.4952255,0.6422898 1.4900178,0.6459431 1.48357,0.6496692 1.4758571,0.6534757 1.4668544,0.6573704 1.4565372,0.6613609 1.4448806,0.665455 1.43186,0.6696604 1.4174504,0.6739847 1.4016272,0.6784358 1.3843655,0.6830212 1.3656405,0.6877487 1.3454276,0.692626 1.3237019,0.6976609 1.3004386,0.7028609 1.2756129,0.7082339 1.2756129,0.7082339 1.2391027,0.715853 1.2038788,0.7228593 1.1698449,0.7292635 1.1369049,0.7350766 1.1049622,0.7403094 1.0739205,0.7449726 1.0436836,0.7490772 1.0141551,0.752634 0.9852386,0.7556539 0.9568379,0.7581476 0.9011982,0.7616 0.8464654,0.763078 0.7918688,0.7626683 0.7918688,0.7626683 0.7745918,0.7624241 0.7581606,0.7625243 0.7429573,0.7629434 0.729364,0.7636559 0.7177631,0.7646362 0.7128291,0.7652188 0.7085365,0.7658588 0.7049331,0.766553 0.7020665,0.7672983 0.6999846,0.7680913 0.6987352,0.768929 0.6987352,0.768929 0.6965399,0.7716191 0.6950314,0.7743486 0.6941932,0.777111 0.6940089,0.7799 0.6944621,0.7827091 0.6955364,0.7855318 0.6994822,0.7911927 0.7057151,0.7968314 0.7141037,0.8023965 0.7245164,0.8078367 0.7368218,0.8131007 0.7508885,0.8181371 0.7665852,0.8228946 0.7837802,0.8273218 0.8023424,0.8313675 0.8221401,0.8349802 0.8430419,0.8381087 0.8649165,0.8407017 0.8876324,0.8427077 0.8876324,0.8427077 0.9070494,0.8437194 0.9276943,0.8440318 0.9493069,0.8436834 0.9716272,0.8427126 1.0173502,0.8390577 1.062782,0.833375 1.0847383,0.8298693 1.1058414,0.8259722 1.1258311,0.8217219 1.1444472,0.817157 1.1614296,0.812316 1.1765183,0.8072373 1.1894529,0.8019594 1.1950312,0.7992578 1.1999734,0.7965208 1.1999734,0.7965208 1.2078138,0.7920266 1.2150311,0.7882805 1.2216363,0.7852865 1.2276404,0.7830484 1.2330544,0.78157 1.2378892,0.7808554 1.242156,0.7809083 1.2458657,0.7817326 1.2490292,0.7833322 1.2516577,0.785711 1.253762,0.7888729 1.2553533,0.7928217 1.2564425,0.7975614 1.2570405,0.8030957 1.2571585,0.8094286 1.2568073,0.816564 1.2568073,0.816564 1.2564407,0.8234499 1.2564806,0.8294582 1.2569375,0.8346267 1.2578219,0.8389935 1.2591444,0.8425963 1.2609154,0.845473 1.2631455,0.8476614 1.2658452,0.8491994 1.2658452,0.8491994 1.2706243,0.8502452 1.2750941,0.849295 1.2792337,0.846382 1.2830225,0.8415397 1.2864396,0.8348016 1.2894642,0.826201 1.2920756,0.8157714 1.2942528,0.8035462 1.2942528,0.8035462 1.2965169,0.7943637 1.300241,0.7860315 1.3050725,0.7788464 1.3106587,0.7731052 1.3166469,0.7691049 1.3226844,0.7671421 1.3256114,0.7670176 1.3284186,0.7675138 1.3310617,0.7686678 1.3334968,0.7705167 1.3334968,0.7705167 1.3360557,0.7736235 1.3381426,0.777564 1.3397645,0.7822703 1.3409286,0.7876741 1.3416421,0.7937075 1.341912,0.8003023 1.3417455,0.8073904 1.3411498,0.8149037 1.3386992,0.8309336 1.3346174,0.8478474 1.3289615,0.8651002 1.3217886,0.8821473 1.3217886,0.8821473 1.3184345,0.8891621 1.3152498,0.8955925 1.309082,0.9070876 1.3026719,0.9174074 1.295406,0.9273271 1.286671,0.9376215 1.2815608,0.9431513 1.2758533,0.9490655 1.2694718,0.9554609 1.2623396,0.9624342 1.2543801,0.9700825 1.2455164,0.9785026 1.2455164,0.9785026 1.234119,0.9890969 1.2219604,1.0000209 1.2089393,1.0113518 1.1949549,1.0231668 1.1799061,1.0355431 1.1636917,1.0485578 1.1462109,1.0622882 1.1273624,1.0768114 1.1070454,1.0922047 1.0851586,1.1085451 1.0616012,1.12591 1.0362719,1.1443764 1.0090699,1.1640216 0.994735,1.1743103 0.979894,1.1849227 0.9645342,1.1958684 0.9486431,1.207157 0.932208,1.2187982 0.9152163,1.2308016 0.9152163,1.2308016 0.8754604,1.2585769 0.8358775,1.2856829 0.7964838,1.3121101 0.7572954,1.3378488 0.7183287,1.3628896 0.6795996,1.3872227 0.6411245,1.4108387 0.6029195,1.433728 0.5650009,1.4558809 0.5273847,1.477288 0.4900872,1.4979396 0.4531246,1.5178261 0.4165131,1.536938 0.3802688,1.5552657 0.3444079,1.5727996 0.3089467,1.5895301 0.3089467,1.5895301 0.2985808,1.5943466 0.2875105,1.5995213 0.2636554,1.610754 0.2381793,1.6228455 0.2118801,1.6354133 0.1855557,1.648075 0.1600041,1.6604479 0.1360231,1.6721495 0.1248709,1.6776291 0.1144106,1.6827974 0.1144106,1.6827974 0.0945588,1.6925591 0.075624,1.7017211 0.0580503,1.7100791 0.0422818,1.7174285 0.0352133,1.720661 0.0287626,1.7235648 0.0229852,1.7261141 0.0179367,1.7282835 0.0136725,1.7300475 0.0102481,1.7313803 0.0077192,1.7322565 0.0061411,1.7326505 0.0061411,1.7326505 -0.000738,1.7326089 -0.0067154,1.7305388 -0.0117854,1.7264514 -0.0159421,1.7203581 -0.0191796,1.7122701 -0.0214919,1.7021987 -0.0228733,1.6901551 -0.0233179,1.6761507 -0.0233179,1.6761507 -0.0237233,1.6587034 -0.0248775,1.6405981 -0.02568,1.6319671 -0.0266032,1.6239736 -0.027625,1.616885 -0.0287232,1.6109686 -0.0287232,1.6109686 -0.0301916,1.6033392 -0.0309302,1.596909 -0.0308306,1.5913357 -0.0297845,1.5862769 -0.0276836,1.5813903 -0.0244193,1.5763335 -0.0198834,1.5707643 -0.0139676,1.5643402 -0.0139676,1.5643402 -0.009817,1.5600841 -0.0060452,1.5564721 -0.0025985,1.5535276 0.0005764,1.5512741 0.0035333,1.5497352 0.0063254,1.5489341 0.0090064,1.5488945 0.0116298,1.5496397 0.0142491,1.5511933 0.0169177,1.5535787 0.0196891,1.5568193 0.022617,1.5609386 0.0257548,1.5659602 0.0291559,1.5719074 0.032874,1.5788036 0.0369625,1.5866725 0.0369625,1.5866725 0.0429868,1.5972812 0.0460316,1.6018896 0.0489825,1.6058869 0.0517528,1.6091629 0.0542558,1.6116074 0.0564049,1.6131101 0.0581132,1.6135607 0.0581132,1.6135607 0.0597012,1.6132842 0.0619489,1.612655 0.0648346,1.6116843 0.0683365,1.6103831 0.0724329,1.6087625 0.0771019,1.6068336 0.0823219,1.6046075 0.0880709,1.6020952 0.1010694,1.5962564 0.1159233,1.589406 0.1324583,1.5816324 0.1505003,1.5730244 0.1698752,1.5636706 0.1904089,1.5536596 0.2119271,1.54308 0.2342558,1.5320205 0.2806479,1.5088161 0.3281919,1.4847554 0.3754948,1.4605474 0.3986204,1.4486098 0.4211632,1.4369013 0.4429492,1.4255104 0.4638041,1.4145258 0.4835538,1.4040362 0.5020241,1.3941301 0.519041,1.3848963 0.5344302,1.3764232 0.5480177,1.3687996 0.5596292,1.3621141 0.5646395,1.3591508 0.5690906,1.3564552 0.5729606,1.3540385 0.5762278,1.3519117 0.5788703,1.3500859 0.5808666,1.3485722 0.5821946,1.3473816 0.5828328,1.3465252 0.5828328,1.3465252 0.5834508,1.3428253 0.5828864,1.3407686 0.5815595,1.3384394 0.5793352,1.3357369 0.5760783,1.3325602 0.5716538,1.3288082 0.5659267,1.3243801 0.5587619,1.319175 0.5500242,1.3130919 0.5395788,1.30603 0.5272904,1.2978882 0.513024,1.2885657 0.5051068,1.2834301 0.4966446,1.2779615 0.4876202,1.2721473 0.478017,1.2659748 0.467818,1.2594314 0.4570063,1.2525045 0.4570063,1.2525045 0.4402107,1.2418113 0.4222933,1.2305194 0.4033409,1.2186796 0.3834404,1.2063426 0.3626785,1.1935592 0.341142,1.1803801 0.3189179,1.166856 0.2960928,1.1530376 0.2489871,1.1247208 0.2005197,1.0958355 0.1022773,1.0379828 0.0538914,1.0098268 0.0069218,0.9827255 -0.0158148,0.9696972 -0.037937,0.9570846 -0.0593578,0.9449387 -0.0799905,0.93331 -0.0997482,0.9222493 -0.1185441,0.9118073 -0.1362914,0.9020348 -0.1529034,0.8929824 -0.1682931,0.8847009 -0.1823738,0.877241 -0.1950586,0.8706535 -0.2062607,0.864989 -0.2062607,0.864989 -0.2153015,0.860432 -0.223459,0.8561768 -0.2307754,0.8521831 -0.2372932,0.8484109 -0.2430547,0.8448199 -0.2481021,0.8413699 -0.2524779,0.8380206 -0.2562244,0.834732 -0.2619986,0.8281759 -0.2657636,0.8213798 -0.2678579,0.8140223 -0.2686204,0.8057817 -0.2686204,0.8057817 -0.2679849,0.7967156 -0.2657533,0.7884836 -0.2621114,0.7812692 -0.2572449,0.7752558 -0.2513394,0.7706269 -0.2445808,0.7675661 -0.2371547,0.7662569 -0.229247,0.7668827z" transform="matrix(1,0,0,-1,0.736384,2.0434592)" fill="rgb(0,0,0)" stroke-linecap="round" stroke-linejoin="round" /><path d="M1.6992332,-0.4197919 L1.6992332,-0.4197919 1.6751004,-0.4418616 1.6493316,-0.4621939 1.6219681,-0.4807564 1.5930537,-0.4975192 1.5626348,-0.5124556 1.53076,-0.5255416 1.4974804,-0.5367563 1.4628493,-0.5460816 1.4269222,-0.5535028 1.3897565,-0.5590078 1.3514119,-0.5625879 1.3119496,-0.5642373 1.271433,-0.5639534 1.2299269,-0.5617367 1.1874977,-0.5575907 1.1442134,-0.551522 1.1001433,-0.5435404 1.055358,-0.5336586 1.0099292,-0.5218925 0.9639297,-0.5082609 0.9174331,-0.4927856 0.8705139,-0.4754915 0.8232472,-0.4564061 0.7757087,-0.4355602 0.7279746,-0.412987 0.6801213,-0.3887227 0.6322254,-0.3628061 0.5843636,-0.3352789 0.5366125,-0.306185 0.4890487,-0.275571 0.4417483,-0.243486 0.3947871,-0.2099814 0.3482402,-0.1751108 0.3021822,-0.13893 0.2566869,-0.101497 0.211827,-0.0628717 0.1676745,-0.023116 0.1243001,0.0177064 0.0817732,0.0595302 0.0401619,0.1022884 -0.0004671,0.1459125 -0.0400488,0.1903327 -0.0785198,0.2354778 -0.1158185,0.2812755 -0.1518852,0.3276526 -0.186662,0.3745346 -0.2200934,0.4218466 -0.2521257,0.4695128 -0.2827077,0.5174568 -0.3117904,0.5656019 -0.3393272,0.613871 -0.365274,0.6621867 -0.3895893,0.7104717 -0.4122342,0.7586487 -0.4331723,0.8066406 -0.4523702,0.8543704 -0.4697971,0.9017617 -0.485425,0.9487386 -0.499229,0.995226 -0.511187,1.0411493 -0.5212798,1.0864351 -0.5294912,1.1310108 -0.5358082,1.1748049 -0.5402205,1.2177475 -0.5427211,1.2597697 -0.5433061,1.3008042 -0.5419744,1.3407853 -0.5387282,1.379649 -0.5335727,1.417333 -0.5265162,1.453777 -0.5175699,1.4889227 -0.5067482,1.5227137 -0.4940685,1.555096 -0.4795509,1.5860176 -0.4632189,1.6154291 -0.4450984,1.6432834 -0.4252186,1.6695358 -0.4036113,1.6941444 -0.3803111,1.7170696 -0.3553553,1.7382749 -0.3287838,1.7577262 -0.3006392,1.7753924 -0.2709666,1.7912452 -0.2398135,1.8052591 -0.2072298,1.8174119 -0.1732677,1.827684 -0.1379815,1.8360589 -0.1014278,1.8425233 -0.0636651,1.8470667 -0.0247539,1.849682 0.0152436,1.850365 0.0562632,1.8491144 0.0982393,1.8459324 0.1411046,1.840824 0.1847905,1.8337975 0.2292271,1.824864 0.2743432,1.8140378 0.3200665,1.8013364 0.3663238,1.7867801 0.413041,1.7703921 0.4601434,1.7521987 0.5075555,1.7322291 0.5552013,1.7105151 0.6030046,1.6870917 0.6508888,1.6619963 0.6987773,1.635269 0.7465933,1.6069528 0.7942602,1.5770929 0.8417018,1.5457371 0.8888421,1.5129357 0.9356055,1.4787413 0.9819172,1.4432084 1.0277031,1.4063942 1.0728897,1.3683574 1.1174048,1.3291591 1.161177,1.288862 1.2041362,1.2475306 1.2462138,1.2052311 1.2873422,1.1620313 1.3274556,1.1180004 1.3664897,1.0732088 1.4043822,1.0277282 1.4410722,0.9816316 1.476501,0.9349927 1.510612,0.8878863 1.5433503,0.8403877 1.5746638,0.792573 1.6045021,0.7445188 1.6328175,0.6963021 1.6595647,0.648 1.6847008,0.59969 1.7081856,0.5514493 1.7299815,0.5033552 1.7500535,0.4554849 1.7683695,0.4079148 1.7849002,0.3607212 1.7996192,0.3139797 1.8125027,0.2677651 1.8235303,0.2221514 1.8326843,0.1772117 1.8399499,0.1330179 1.8453156,0.0896409 1.8487728,0.04715 1.8503159,0.0056133 1.8499424,-0.0349026 1.847653,-0.0743329 1.8434513,-0.1126144 1.8373441,-0.1496859 1.8293411,-0.1854879 1.8194552,-0.2199631 1.8077021,-0.2530564 1.7941007,-0.2847147 1.7786728,-0.3148873 1.7614431,-0.3435259 1.7424392,-0.3705847 1.7216915,-0.3960203 1.6992332,-0.4197919z" transform="matrix(1,0,0,-1,0.736384,2.0434592)" fill="rgb(255,255,255)" stroke="rgb(0,0,0)" stroke-width="0.0010cm" stroke-linecap="round" stroke-linejoin="round" /><path d="M0.5864412,0.4313965 L0.5864412,0.4313965 0.5594285,0.4247182 0.5466308,0.421717 0.5347599,0.4190412 0.5241566,0.4167658 0.5151616,0.414966 0.5081156,0.4137168 0.5054301,0.4133221 0.5033596,0.4130932 0.5033596,0.4130932 0.4980878,0.4127198 0.4944068,0.4126868 0.4923706,0.4131431 0.4920331,0.4142375 0.4934482,0.4161191 0.4966698,0.4189366 0.5017518,0.4228389 0.5087481,0.4279748 0.5087481,0.4279748 0.5136353,0.4317975 0.518964,0.4364372 0.5302589,0.4474548 0.5412598,0.4596009 0.546221,0.4656513 0.5505939,0.4714488 0.5505939,0.4714488 0.5553162,0.4785149 0.5604543,0.4870623 0.5659235,0.4968941 0.5716388,0.5078136 0.5775153,0.519624 0.5834682,0.5321285 0.5952632,0.5584328 0.6063447,0.5851521 0.6114057,0.5981754 0.6160335,0.6107122 0.6201434,0.6225656 0.6236504,0.6335388 0.6264696,0.6434352 0.6285162,0.6520578 0.6349282,0.6831775 0.667625,0.6831775 0.667625,0.6831775 0.6880895,0.6829724 0.7107095,0.6823674 0.735308,0.6813779 0.7617078,0.6800195 0.7897318,0.6783076 0.8192029,0.6762578 0.849944,0.6738855 0.8817779,0.6712062 0.9145276,0.6682354 0.9480159,0.6649887 1.0164997,0.6577292 1.0858126,0.6495518 1.1545376,0.6405803 1.1545376,0.6405803 1.2065386,0.6337094 1.2317447,0.6305618 1.2555037,0.6277137 1.2666256,0.6264272 1.2771276,0.6252457 1.2869238,0.6241793 1.2959282,0.6232383 1.3040546,0.6224325 1.3112173,0.6217721 1.31733,0.6212671 1.3223068,0.6209278 1.3223068,0.6209278 1.3338516,0.6199797 1.3436984,0.6185978 1.3518592,0.616825 1.3583462,0.6147042 1.3631716,0.6122783 1.3663475,0.6095901 1.3678862,0.6066826 1.3677996,0.6035986 1.3661001,0.600381 1.3627997,0.5970727 1.3579107,0.5937166 1.3514451,0.5903556 1.3434151,0.5870326 1.3338329,0.5837905 1.3227106,0.5806721 1.3100604,0.5777204 1.3100604,0.5777204 1.3050628,0.5766543 1.2986622,0.575285 1.2909577,0.5736337 1.282048,0.5717217 1.2720321,0.5695703 1.261009,0.5672009 1.2490774,0.5646346 1.2363364,0.5618928 1.2228849,0.5589968 1.2088217,0.5559679 1.1792561,0.5495964 1.117137,0.5361949 1.117137,0.5361949 1.1008837,0.532718 1.083493,0.5290579 1.0651229,0.5252454 1.0459315,0.5213116 1.0057162,0.5132035 0.9641108,0.5049809 0.9223787,0.496891 0.8817836,0.4891813 0.8623073,0.4855463 0.8435891,0.4820991 0.825787,0.4788705 0.8090588,0.4758916 0.8090588,0.4758916 0.7430774,0.4638492 0.7103857,0.4576015 0.6791109,0.451446 0.6642901,0.4484598 0.6501659,0.4455652 0.6368525,0.4427849 0.624464,0.4401417 0.6131144,0.4376585 0.602918,0.435358 0.5939889,0.4332631 0.5864412,0.4313965z" transform="matrix(1,0,0,-1,0.736384,2.0434592)" fill="rgb(255,255,255)" stroke="rgb(0,0,0)" stroke-width="0.0010cm" stroke-linecap="round" stroke-linejoin="round" /><path d="M0.2553083,0.488944 L0.2553083,0.488944 0.2403871,0.4951514 0.2270592,0.5011024 0.2152983,0.5068351 0.2050781,0.5123874 0.1963723,0.5177973 0.1891546,0.5231028 0.1833985,0.5283418 0.1790778,0.5335524 0.1761661,0.5387726 0.1746371,0.5440402 0.1744644,0.5493934 0.1756218,0.55487 0.1780829,0.560508 0.1818213,0.5663455 0.1868107,0.5724203 0.1930249,0.5787706 0.1930249,0.5787706 0.198829,0.5837043 0.2057756,0.5884748 0.2140167,0.5931498 0.2237045,0.5977971 0.234991,0.6024842 0.2480285,0.6072789 0.2629689,0.612249 0.2799645,0.617462 0.2799645,0.617462 0.2944889,0.6216011 0.3102397,0.6257894 0.3269677,0.6299795 0.344424,0.6341241 0.380525,0.6420875 0.4165499,0.6493009 0.4339111,0.6525081 0.4505061,0.6553858 0.4660859,0.6578866 0.4804013,0.6599634 0.4932032,0.6615687 0.5042426,0.6626552 0.5132704,0.6631755 0.5169521,0.6632086 0.5200376,0.6630824 0.5200376,0.6630824 0.5261381,0.6625761 0.5307565,0.6619408 0.5341087,0.66095 0.5364108,0.6593772 0.5378787,0.6569959 0.5387286,0.6535794 0.5391763,0.6489012 0.539438,0.6427348 0.539438,0.6427348 0.5393064,0.6361303 0.5385117,0.6288832 0.5371001,0.6210965 0.5351174,0.612873 0.5296231,0.5955278 0.5223968,0.5776716 0.5138068,0.5601281 0.504221,0.5437213 0.4991697,0.5362015 0.4940076,0.5292748 0.4887805,0.5230442 0.4835346,0.5176126 0.4835346,0.5176126 0.4738421,0.5093639 0.4629603,0.5019033 0.4510133,0.4952464 0.4381253,0.4894088 0.4244207,0.4844061 0.4100238,0.4802539 0.3950586,0.4769678 0.3796496,0.4745635 0.363921,0.4730565 0.347997,0.4724624 0.3320018,0.4727969 0.3160598,0.4740756 0.3002952,0.476314 0.2848323,0.4795278 0.2697952,0.4837326 0.2553083,0.488944z" transform="matrix(1,0,0,-1,0.736384,2.0434592)" fill="rgb(255,255,255)" stroke="rgb(0,0,0)" stroke-width="0.0010cm" stroke-linecap="round" stroke-linejoin="round" /></svg>