<?xml version="1.0" encoding="utf-8"?>
<!-- Generator: Fusion 360, Shaper Origin Export Add-In, Version 1.6.10  -->
<svg xmlns="http://www.w3.org/2000/svg" xmlns:xlink="http://www.w3.org/1999/xlink" xmlns:shaper="http://www.shapertools.com/namespaces/shaper" shaper:fusionaddin="version:1.6.10" width="8.3895966cm" height="1.650082cm" version="1.1" x="0cm" y="0cm" viewBox="0 0 8.3895966 1.650082" enable-background="new 0 0 8.3895966 1.650082" xml:space="preserve"><path d="M-3.6947983,0.725041 A0.1,0.1 0 0,1 -3.7947983,0.825041 L-4.1447983,0.825041 A0.05,0.05 90 0,1 -4.1947983,0.775041 L-4.1947983,-0.725041 A0.1,0.1 180 0,1 -4.0947983,-0.825041 L-3.8954661,-0.825041 A0.1,0.1 270 0,1 -3.7954683,-0.7243755 L-3.7974561,-0.4257066 A0.1,0.1 180.3813253 0,0 -3.6974583,-0.325041 L-3.4981017,-0.325041 A0.1,0.1 90 0,0 -3.3981017,-0.425041 L-3.3981017,-0.725041 A0.1,0.1 180 0,1 -3.2981017,-0.825041 L-1.098126,-0.825041 A0.1,0.1 270 0,1 -0.998126,-0.725041 L-0.998126,-0.425041 A0.1,0.1 180 0,0 -0.898126,-0.325041 L-0.6981017,-0.325041 A0.1,0.1 90 0,0 -0.5981017,-0.425041 L-0.5981017,-0.725041 A0.1,0.1 180 0,1 -0.4981017,-0.825041 L1.6990509,-0.825041 A0.1,0.1 270 0,1 1.7990485,-0.7257461 L1.8011738,-0.4243359 A0.1,0.1 179.5959956 0,0 1.9011713,-0.325041 L2.1018983,-0.325041 A0.1,0.1 90 0,0 2.2018983,-0.425041 L2.2018983,-0.725041 A0.1,0.1 180 0,1 2.3018983,-0.825041 L2.3518983,-0.825041 A0.1,0.1 270 0,1 2.4518983,-0.725041 L2.4518983,-0.1749979 A0.1,0.1 180 0,0 2.5518983,-0.0749979 L3.0518983,-0.0749979 A0.1,0.1 90 0,0 3.1518983,-0.1749979 L3.1518983,-0.725041 A0.1,0.1 180 0,1 3.2518983,-0.825041 L3.294774,-0.825041 A0.1,0.1 270 0,1 3.394774,-0.725041 L3.394774,-0.425041 A0.1,0.1 180 0,0 3.494774,-0.325041 L3.6947983,-0.325041 A0.1,0.1 90 0,0 3.7947983,-0.425041 L3.7947983,-0.725041 A0.1,0.1 180 0,1 3.8947983,-0.825041 L4.0947983,-0.825041 A0.1,0.1 270 0,1 4.1947983,-0.725041 L4.1947983,0.725041 A0.1,0.1 0 0,1 4.0947983,0.825041 L3.7947983,0.825041 A0.1,0.1 90 0,1 3.6947983,0.725041 A19.968296,19.968296 280.6630698 0,0 -3.6947983,0.725041z" transform="matrix(1,0,0,-1,4.1947983,0.825041)" fill="rgb(0,0,0)" stroke-linecap="round" stroke-linejoin="round" /></svg>