<?xml version="1.0" encoding="utf-8"?>
<!-- Generator: Fusion 360, Shaper Origin Export Add-In, Version 1.6.10  -->
<svg xmlns="http://www.w3.org/2000/svg" xmlns:xlink="http://www.w3.org/1999/xlink" xmlns:shaper="http://www.shapertools.com/namespaces/shaper" shaper:fusionaddin="version:1.6.10" width="4.9394737cm" height="4.0800136cm" version="1.1" x="0cm" y="0cm" viewBox="0 0 4.9394737 4.0800136" enable-background="new 0 0 4.9394737 4.0800136" xml:space="preserve"><path d="M1.9697368,2.0400068 A1.9911362,1.9911362 351.5922913 0,0 -1.9697368,2.0400068 L-2.4697368,2.0400068 -2.4697368,1.44 -2.1,1.44 -2.1,0.94 -2.4697368,0.94 -2.4697368,0.44 -2.1,0.44 -2.1,-0.06 -2.4697368,-0.06 -2.4697368,-0.56 -2.1,-0.56 -2.1,-1.06 -2.4697368,-1.06 -2.4697368,-1.6600068 -0.25,-1.6600068 -0.25,-2.0400068 0.25,-2.0400068 0.25,-1.6600068 2.4697368,-1.6600068 2.4697368,-1.06 2.1,-1.06 2.1,-0.56 2.4697368,-0.56 2.4697368,-0.06 2.1,-0.06 2.1,0.44 2.4697368,0.44 2.4697368,0.94 2.1,0.94 2.1,1.44 2.4697368,1.44 2.4697368,2.0400068 1.9697368,2.0400068z" transform="matrix(1,0,0,-1,2.4697368,2.0400068)" fill="rgb(0,0,0)" stroke-linecap="round" stroke-linejoin="round" /></svg>