<?xml version="1.0" encoding="utf-8"?>
<!-- Generator: Fusion 360, Shaper Origin Export Add-In, Version 1.6.10  -->
<svg xmlns="http://www.w3.org/2000/svg" xmlns:xlink="http://www.w3.org/1999/xlink" xmlns:shaper="http://www.shapertools.com/namespaces/shaper" shaper:fusionaddin="version:1.6.10" width="7.5cm" height="7.5cm" version="1.1" x="0cm" y="0cm" viewBox="0 0 7.5 7.5" enable-background="new 0 0 7.5 7.5" xml:space="preserve"><path d="M-1.96,-0 a3.75,3.75 0 1,1 7.5,0 a3.75,3.75 0 1,1 -7.5,0z" transform="matrix(1,0,0,-1,1.96,3.75)" fill="rgb(0,0,0)" stroke-linecap="round" stroke-linejoin="round" /><path d="M2.04,2.48 L2.04,2.1007863 1.54,2.1007863 1.54,2.48 2.04,2.48z" transform="matrix(1,0,0,-1,1.96,3.75)" fill="rgb(255,255,255)" stroke="rgb(0,0,0)" stroke-width="0.0010cm" stroke-linecap="round" stroke-linejoin="round" /><path d="M2.04,-2.1007863 L2.04,-2.48 1.54,-2.48 1.54,-2.1007863 2.04,-2.1007863z" transform="matrix(1,0,0,-1,1.96,3.75)" fill="rgb(255,255,255)" stroke="rgb(0,0,0)" stroke-width="0.0010cm" stroke-linecap="round" stroke-linejoin="round" /><path d="M3.89,-0.25 L3.89,0.25 4.27,0.25 4.27,-0.25 3.89,-0.25z" transform="matrix(1,0,0,-1,1.96,3.75)" fill="rgb(255,255,255)" stroke="rgb(0,0,0)" stroke-width="0.0010cm" stroke-linecap="round" stroke-linejoin="round" /><path d="M0.0843651,-1.5556349 a0.15,0.15 0 1,1 0.3,0 a0.15,0.15 0 1,1 -0.3,0z" transform="matrix(1,0,0,-1,1.96,3.75)" fill="rgb(255,255,255)" stroke="rgb(0,0,0)" stroke-width="0.0010cm" stroke-linecap="round" stroke-linejoin="round" /><path d="M0.69,-0 a1.1,1.1 0 1,1 2.2,0 a1.1,1.1 0 1,1 -2.2,0z" transform="matrix(1,0,0,-1,1.96,3.75)" fill="rgb(255,255,255)" stroke="rgb(0,0,0)" stroke-width="0.0010cm" stroke-linecap="round" stroke-linejoin="round" /><path d="M3.1956349,1.5556349 a0.15,0.15 0 1,1 0.3,0 a0.15,0.15 0 1,1 -0.3,0z" transform="matrix(1,0,0,-1,1.96,3.75)" fill="rgb(255,255,255)" stroke="rgb(0,0,0)" stroke-width="0.0010cm" stroke-linecap="round" stroke-linejoin="round" /><path d="M-0.3095071,-0.25 L-0.69,-0.25 -0.69,0.25 -0.3095071,0.25 -0.3095071,-0.25z" transform="matrix(1,0,0,-1,1.96,3.75)" fill="rgb(255,255,255)" stroke="rgb(0,0,0)" stroke-width="0.0010cm" stroke-linecap="round" stroke-linejoin="round" /></svg>