<?xml version="1.0" encoding="utf-8"?>
<!-- Generator: Fusion 360, Shaper Origin Export Add-In, Version 1.6.10  -->
<svg xmlns="http://www.w3.org/2000/svg" xmlns:xlink="http://www.w3.org/1999/xlink" xmlns:shaper="http://www.shapertools.com/namespaces/shaper" shaper:fusionaddin="version:1.6.10" width="7.2720821cm" height="7.2720821cm" version="1.1" x="0cm" y="0cm" viewBox="0 0 7.2720821 7.2720821" enable-background="new 0 0 7.2720821 7.2720821" xml:space="preserve"><path d="M-1.3216459,-3.9254697 L-1.7833158,-5.0915148 A3.6,3.6 248.3202689 0,1 -1.7740181,-5.0951961 L-1.3108447,-3.9253538 A0.16,0.16 272.5494201 0,1 -1.2350159,-3.9023332 L-1.6776442,-5.1317806 A3.6,3.6 250.1202689 0,1 -1.6682354,-5.135168 L-1.2209312,-3.8927327 A0.16,0.16 307.3325884 0,1 -1.162105,-3.7293366 L-1.0620009,-3.4512868 A1.81,1.81 250.2 0,1 -1.017708,-3.4665885 L-1.57076,-5.1687073 A3.6,3.6 251.9202689 0,1 -1.5612494,-5.1717975 L-1.008206,-3.4697049 A1.81,1.81 252 0,1 -0.9634544,-3.4836077 L-1.4627686,-5.2022585 A3.6,3.6 253.7202689 0,1 -1.4531656,-5.2050484 L-0.9538591,-3.4864242 A1.81,1.81 253.8 0,1 -0.9086929,-3.4989145 L-1.344354,-5.1957025 A0.0382208,0.0382208 83.1169181 1,1 -1.3346682,-5.1981894 L-0.8990139,-3.5014281 A1.81,1.81 255.6 0,1 -0.8534777,-3.5124936 L-1.2438916,-5.2591051 A3.6,3.6 257.3202689 0,1 -1.2341324,-5.2612866 L-0.8437245,-3.5147019 A1.81,1.81 257.4 0,1 -0.7978631,-3.5243316 L-1.133222,-5.2823445 A3.6,3.6 259.1202689 0,1 -1.1233992,-5.2842183 L-0.7880454,-3.5262325 A1.81,1.81 259.2 0,1 -0.7419042,-3.5344169 L-1.0218771,-5.3020962 A3.6,3.6 260.9202689 0,1 -1.0120002,-5.3036606 L-0.7320316,-3.5360085 A1.81,1.81 261 0,1 -0.6856561,-3.5427395 L-0.9099667,-5.3183407 A3.6,3.6 262.7202689 0,1 -0.9000455,-5.3195941 L-0.6757384,-3.5440202 A1.81,1.81 262.8 0,1 -0.6291743,-3.5492912 L-0.7930813,-5.2832456 -0.8454214,-5.3265452 -0.7976146,-5.3843337 -0.7398261,-5.3365269 -0.7831256,-5.2841867 -0.6192213,-3.5502598 A1.81,1.81 264.6 0,1 -0.5725146,-3.5540655 L-0.6848917,-5.3402476 A3.6,3.6 266.3202689 0,1 -0.6749114,-5.3408755 L-0.5625361,-3.554721 A1.81,1.81 266.4 0,1 -0.5157329,-3.5570578 L-0.5719492,-5.3458883 A3.6,3.6 268.1202689 0,1 -0.5619541,-5.3462024 L-0.5057387,-3.5573995 A1.81,1.81 268.2 0,1 -0.4588852,-3.558265 L-0.4588852,-5.3479786 A3.6,3.6 269.9202689 0,1 -0.4488852,-5.3479787 L-0.4488852,-3.5582926 A1.81,1.81 270 0,1 -0.4020277,-3.557686 L-0.3458114,-5.3465165 A3.6,3.6 271.7202689 0,1 -0.3358164,-5.3462024 L-0.3920318,-3.5573995 A1.81,1.81 271.8 0,1 -0.3452164,-3.5553213 L-0.2352184,-5.3036893 A0.0382208,0.0382208 101.1169181 1,1 -0.2252381,-5.3030614 L-0.3352344,-3.554721 A1.81,1.81 273.6 0,1 -0.2885074,-3.5511733 L-0.1200805,-5.3329442 A3.6,3.6 275.3202689 0,1 -0.1101249,-5.3320031 L-0.2785492,-3.5502598 A1.81,1.81 275.4 0,1 -0.2319567,-3.5452461 L-0.0076461,-5.3208474 A3.6,3.6 277.1202689 0,1 0.002275,-5.3195941 L-0.2220321,-3.5440202 A1.81,1.81 277.2 0,1 -0.1756201,-3.5375456 L0.1043528,-5.3052249 A3.6,3.6 278.9202689 0,1 0.1142297,-5.3036606 L-0.1657389,-3.5360085 A1.81,1.81 279 0,1 -0.1195531,-3.5280792 L0.2158058,-5.2860921 A3.6,3.6 280.7202689 0,1 0.2256287,-5.2842183 L-0.1097251,-3.5262325 A1.81,1.81 280.8 0,1 -0.0638112,-3.5168564 L0.3161254,-5.2165952 0.2797273,-5.2739494 0.3430519,-5.3141365 0.3832389,-5.2508119 0.3258846,-5.2144137 -0.054046,-3.5147019 A1.81,1.81 282.6 0,1 -0.0084493,-3.5038883 L0.4366344,-5.2373748 A3.6,3.6 284.3202689 0,1 0.4463203,-5.2348879 L0.0012434,-3.5014281 A1.81,1.81 284.4 0,1 0.046478,-3.4891876 L0.1273281,-3.7674755 0.0832206,-3.7849389 0.2306519,-4.1573078 0.2395602,-4.1537808 0.5457922,-5.2078383 A3.6,3.6 286.1202689 0,1 0.5553951,-5.2050484 L0.2488994,-4.1500831 0.3127723,-4.1247941 0.6539683,-5.1748876 A3.6,3.6 287.9202689 0,1 0.6634789,-5.1717975 L0.3220884,-4.1211055 0.3856862,-4.0959254 0.7610561,-5.1385553 A3.6,3.6 289.7202689 0,1 0.7704649,-5.135168 L0.3949886,-4.0922423 0.4584471,-4.0671173 0.853002,-5.0636491 A0.0382208,0.0382208 119.1169181 1,1 0.8622998,-5.0599679 L0.4677449,-4.0634361 0.5311988,-4.0383129 0.9715449,-5.0558926 A3.6,3.6 293.3202689 0,1 0.9807225,-5.0519211 L0.5405012,-4.0346298 0.6040852,-4.0094551 1.0747382,-5.0096437 A3.6,3.6 295.1202689 0,1 1.0837865,-5.0053859 L0.6134014,-4.0057666 0.6772512,-3.9804867 1.1764279,-4.9601762 A3.6,3.6 296.9202689 0,1 1.185338,-4.9556364 L0.6865904,-3.976789 0.7141357,-3.965883 0.5990887,-3.6753077 1.2765137,-4.9075391 A3.6,3.6 298.7202689 0,1 1.2852767,-4.9027215 L0.4230889,-3.3344077 A1.81,1.81 298.8 0,1 0.4638582,-3.3113023 L1.3504476,-4.810443 1.3335544,-4.8762379 1.4061981,-4.8948896 1.4248498,-4.8222459 1.359055,-4.8053526 0.4724797,-3.3062357 A1.81,1.81 300.6 0,1 0.5125032,-3.2818611 L1.4714797,-4.7929663 A3.6,3.6 302.3202689 0,1 1.479923,-4.7876081 L0.5209613,-3.2765262 A1.81,1.81 302.4 0,1 0.5601993,-3.2509064 L1.5661676,-4.7311438 A3.6,3.6 304.1202689 0,1 1.5744385,-4.725523 L0.5684857,-3.2453084 A1.81,1.81 304.2 0,1 0.6068997,-3.2184689 L1.6588669,-4.6663776 A3.6,3.6 305.9202689 0,1 1.6669571,-4.6604998 L0.6150061,-3.2126134 A1.81,1.81 306 0,1 0.652558,-3.1845804 L1.7494862,-4.5987316 A3.6,3.6 307.7202689 0,1 1.7573877,-4.5926026 L0.6604765,-3.1784732 A1.81,1.81 307.8 0,1 0.6971294,-3.1492745 L1.8137846,-4.4990788 A0.0382208,0.0382208 137.1169181 1,1 1.8214897,-4.4927045 L0.7048522,-3.1429216 A1.81,1.81 309.6 0,1 0.7405699,-3.112586 L1.9241287,-4.4550701 A3.6,3.6 311.3202689 0,1 1.9316299,-4.448457 L0.7480892,-3.1059936 A1.81,1.81 311.4 0,1 0.7828364,-3.0745512 L2.0079797,-4.3791963 A3.6,3.6 313.1202689 0,1 2.0152694,-4.3723508 L0.790145,-3.0677258 A1.81,1.81 313.2 0,1 0.8238874,-3.0352074 L2.0894061,-4.3007261 A3.6,3.6 314.9202689 0,1 2.0964772,-4.293655 L0.830978,-3.0281559 A1.81,1.81 315 0,1 0.8636824,-2.9945936 L2.1683275,-4.2197369 A3.6,3.6 316.7202689 0,1 2.175173,-4.2124473 L0.870548,-2.9873229 A1.81,1.81 316.8 0,1 0.9021819,-2.9527499 L2.2086385,-4.1045463 2.2129038,-4.1723412 2.2877558,-4.1676319 2.2830465,-4.0927799 2.2152516,-4.0970452 0.9088158,-2.9452671 A1.81,1.81 318.6 0,1 0.9393482,-2.9097176 L2.3183463,-4.050524 A3.6,3.6 320.3202689 0,1 2.3247205,-4.0428189 L0.9457437,-2.90203 A1.81,1.81 320.4 0,1 0.9751444,-2.865539 L2.3892956,-3.9624671 A3.6,3.6 322.1202689 0,1 2.3954247,-3.9545656 L0.9812953,-2.8576544 A1.81,1.81 322.2 0,1 1.0095353,-2.8202578 L2.4574441,-3.8722251 A3.6,3.6 323.9202689 0,1 2.4633219,-3.864135 L1.0154355,-2.8121839 A1.81,1.81 324 0,1 1.0424869,-2.7739188 L2.5227243,-3.7798871 A3.6,3.6 325.7202689 0,1 2.5283452,-3.7716163 L1.0481306,-2.7656635 A1.81,1.81 325.8 0,1 1.0739667,-2.7265676 L2.5530813,-3.6652423 A0.0382208,0.0382208 155.1169181 1,1 2.5584396,-3.656799 L1.0793483,-2.7181391 A1.81,1.81 327.6 0,1 1.1039436,-2.6782509 L2.6444254,-3.5892893 A3.6,3.6 329.3202689 0,1 2.6495158,-3.5806819 L1.1090578,-2.6696576 A1.81,1.81 329.4 0,1 1.1323881,-2.6290165 L2.7007261,-3.4912176 A3.6,3.6 331.1202689 0,1 2.7055437,-3.4824546 L1.1372298,-2.6202668 A1.81,1.81 331.2 0,1 1.159272,-2.5789129 L2.7539186,-3.3914259 A3.6,3.6 332.9202689 0,1 2.7584585,-3.3825159 L1.1638366,-2.5700154 A1.81,1.81 333 0,1 1.1845689,-2.5279896 L2.8039503,-3.2900126 A3.6,3.6 334.7202689 0,1 2.8082081,-3.2809644 L1.1888517,-2.5189531 A1.81,1.81 334.8 0,1 1.2082538,-2.4762969 L2.8066925,-3.168003 2.8316988,-3.2311618 2.901432,-3.2035524 2.8738227,-3.1338192 2.8106639,-3.1588255 1.2122506,-2.4671303 A1.81,1.81 336.6 0,1 1.2303033,-2.4238856 L2.8943369,-3.0827232 A3.6,3.6 338.3202689 0,1 2.8980182,-3.0734254 L1.2340102,-2.414598 A1.81,1.81 338.4 0,1 1.2506956,-2.3708077 L2.9346027,-2.9770516 A3.6,3.6 340.1202689 0,1 2.9379901,-2.9676428 L1.2541089,-2.3614082 A1.81,1.81 340.2 0,1 1.2694106,-2.3171154 L2.9715294,-2.8701673 A3.6,3.6 341.9202689 0,1 2.9746196,-2.8606568 L1.272527,-2.3076134 A1.81,1.81 342 0,1 1.2864299,-2.2628617 L3.0050806,-2.7621759 A3.6,3.6 343.7202689 0,1 3.0078705,-2.752573 L1.2892463,-2.2532665 A1.81,1.81 343.8 0,1 1.3017366,-2.2081003 L2.9985247,-2.6437614 A0.0382208,0.0382208 173.1169181 1,1 3.0010115,-2.6340756 L1.3042503,-2.1984213 A1.81,1.81 345.6 0,1 1.3153157,-2.152885 L3.0619273,-2.543299 A3.6,3.6 347.3202689 0,1 3.0641087,-2.5335398 L1.3175241,-2.1431319 A1.81,1.81 347.4 0,1 1.3271537,-2.0972705 L3.0851666,-2.4326294 A3.6,3.6 349.1202689 0,1 3.0870405,-2.4228065 L1.3290547,-2.0874528 A1.81,1.81 349.2 0,1 1.337239,-2.0413115 L3.1049183,-2.3212844 A3.6,3.6 350.9202689 0,1 3.1064827,-2.3114076 L1.3388307,-2.031439 A1.81,1.81 351 0,1 1.3455616,-1.9850634 L3.1211628,-2.209374 A3.6,3.6 352.7202689 0,1 3.1224162,-2.1994529 L1.3468424,-1.9751458 A1.81,1.81 352.8 0,1 1.3521133,-1.9285817 L3.0860678,-2.0924886 3.1293673,-2.1448288 3.1871558,-2.097022 3.139349,-2.0392335 3.0870089,-2.082533 1.3530819,-1.9186287 A1.81,1.81 354.6 0,1 1.3568877,-1.871922 L3.1430697,-1.984299 A3.6,3.6 356.3202689 0,1 3.1436976,-1.9743188 L1.3575431,-1.8619434 A1.81,1.81 356.4 0,1 1.3598799,-1.8151403 L3.1487104,-1.8713565 A3.6,3.6 358.1202689 0,1 3.1490246,-1.8613615 L1.3602216,-1.8051461 A1.81,1.81 358.2 0,1 1.3610871,-1.7582926 L3.1508008,-1.7582926 A3.6,3.6 359.9202689 0,1 3.1508008,-1.7482926 L1.3611148,-1.7482926 A1.81,1.81 0 0,1 1.3605081,-1.7014351 L3.1493387,-1.6452188 A3.6,3.6 1.7202689 0,1 3.1490246,-1.6352237 L1.3602216,-1.6914391 A1.81,1.81 1.8 0,1 1.3581435,-1.6446238 L3.1065115,-1.5346258 A0.0382208,0.0382208 191.1169181 1,1 3.1058836,-1.5246455 L1.3575431,-1.6346418 A1.81,1.81 3.6 0,1 1.3539955,-1.5879148 L3.1357663,-1.4194878 A3.6,3.6 5.3202689 0,1 3.1348253,-1.4095322 L1.3530819,-1.5779566 A1.81,1.81 5.4 0,1 1.3480683,-1.5313641 L3.1236695,-1.3070535 A3.6,3.6 7.1202689 0,1 3.1224162,-1.2971323 L1.3468424,-1.5214395 A1.81,1.81 7.2 0,1 1.3403677,-1.4750274 L3.108047,-1.1950545 A3.6,3.6 8.9202689 0,1 3.1064827,-1.1851776 L1.3388307,-1.4651462 A1.81,1.81 9 0,1 1.3309014,-1.4189605 L3.0889143,-1.0836016 A3.6,3.6 10.7202689 0,1 3.0870405,-1.0737787 L1.3290547,-1.4091324 A1.81,1.81 10.8 0,1 1.3196786,-1.3632185 L3.0194173,-0.9832819 3.0767716,-1.0196801 3.1169586,-0.9563555 3.053634,-0.9161684 3.0172359,-0.9735227 1.3175241,-1.3534533 A1.81,1.81 12.6 0,1 1.3067104,-1.3078566 L3.0401969,-0.8627729 A3.6,3.6 14.3202689 0,1 3.0377101,-0.8530871 L1.3042503,-1.2981639 A1.81,1.81 14.4 0,1 1.2920097,-1.2529293 L1.5751205,-1.170678 1.5942506,-1.218995 1.9666195,-1.0715637 1.9614258,-1.058446 3.0106604,-0.7536152 A3.6,3.6 16.1202689 0,1 3.0078705,-0.7440122 L1.9577281,-1.0491068 1.9323809,-0.985087 2.9777098,-0.645439 A3.6,3.6 17.9202689 0,1 2.9746196,-0.6359284 L1.9286924,-0.9757708 1.9034543,-0.9120266 2.9413775,-0.5383513 A3.6,3.6 19.7202689 0,1 2.9379901,-0.5289424 L1.8997712,-0.9027243 1.8745883,-0.8391196 2.8664713,-0.4464054 A0.0382208,0.0382208 209.1169181 1,1 2.86279,-0.4371076 L1.8709071,-0.8298218 1.845726,-0.7662218 2.8587147,-0.3278624 A3.6,3.6 23.3202689 0,1 2.8547433,-0.3186849 L1.842043,-0.7569194 1.8168103,-0.693189 2.8124658,-0.2246691 A3.6,3.6 25.1202689 0,1 2.8082081,-0.2156208 L1.8131218,-0.6838729 1.7877837,-0.6198761 2.7629984,-0.1229794 A3.6,3.6 26.9202689 0,1 2.7584585,-0.1140693 L1.784086,-0.6105369 1.7751947,-0.58808 1.4431708,-0.7195375 2.7103612,-0.0228937 A3.6,3.6 28.7202689 0,1 2.7055437,-0.0141306 L1.1372298,-0.8763185 A1.81,1.81 28.8 0,1 1.1141245,-0.8355491 L2.6132652,0.0510402 2.67906,0.034147 2.6977117,0.1067907 2.625068,0.1254425 2.6081748,0.0596476 1.1090578,-0.8269276 A1.81,1.81 30.6 0,1 1.0846832,-0.7869042 L2.5957885,0.1720723 A3.6,3.6 32.3202689 0,1 2.5904302,0.1805156 L1.0793483,-0.7784461 A1.81,1.81 32.4 0,1 1.0537286,-0.739208 L2.533966,0.2667603 A3.6,3.6 34.1202689 0,1 2.5283452,0.2750311 L1.0481306,-0.7309217 A1.81,1.81 34.2 0,1 1.021291,-0.6925077 L2.4691998,0.3594596 A3.6,3.6 35.9202689 0,1 2.4633219,0.3675498 L1.0154355,-0.6844013 A1.81,1.81 36 0,1 0.9874026,-0.6468493 L2.4015538,0.4500788 A3.6,3.6 37.7202689 0,1 2.3954247,0.4579804 L0.9812953,-0.6389308 A1.81,1.81 37.8 0,1 0.9520967,-0.6022779 L2.3019009,0.5143772 A0.0382208,0.0382208 227.1169181 1,1 2.2955267,0.5220824 L0.9457437,-0.5945552 A1.81,1.81 39.6 0,1 0.9154082,-0.5588375 L2.2578922,0.6247214 A3.6,3.6 41.3202689 0,1 2.2512791,0.6322225 L0.9088158,-0.5513181 A1.81,1.81 41.4 0,1 0.8773733,-0.5165709 L2.1820184,0.7085724 A3.6,3.6 43.1202689 0,1 2.175173,0.7158621 L0.870548,-0.5092623 A1.81,1.81 43.2 0,1 0.8380296,-0.4755199 L2.1035482,0.7899987 A3.6,3.6 44.9202689 0,1 2.0964772,0.7970698 L0.830978,-0.4684293 A1.81,1.81 45 0,1 0.7974158,-0.435725 L2.0225591,0.8689201 A3.6,3.6 46.7202689 0,1 2.0152694,0.8757656 L0.790145,-0.4288594 A1.81,1.81 46.8 0,1 0.7555721,-0.3972254 L1.9073685,0.9092311 1.9751633,0.9134964 1.9704541,0.9883484 1.895602,0.9836391 1.8998673,0.9158443 0.7480892,-0.3905916 A1.81,1.81 48.6 0,1 0.7125397,-0.3600592 L1.8533461,1.0189389 A3.6,3.6 50.3202689 0,1 1.845641,1.0253132 L0.7048522,-0.3536636 A1.81,1.81 50.4 0,1 0.6683611,-0.3242629 L1.7652893,1.0898883 A3.6,3.6 52.1202689 0,1 1.7573877,1.0960174 L0.6604765,-0.318112 A1.81,1.81 52.2 0,1 0.62308,-0.289872 L1.6750473,1.1580367 A3.6,3.6 53.9202689 0,1 1.6669571,1.1639146 L0.6150061,-0.2839718 A1.81,1.81 54 0,1 0.5767409,-0.2569204 L1.5827092,1.2233169 A3.6,3.6 55.7202689 0,1 1.5744385,1.2289378 L0.5684857,-0.2512768 A1.81,1.81 55.8 0,1 0.5293897,-0.2254407 L1.4680644,1.253674 A0.0382208,0.0382208 245.1169181 1,1 1.4596211,1.2590322 L0.5209613,-0.2200591 A1.81,1.81 57.6 0,1 0.4810731,-0.1954637 L1.3921114,1.345018 A3.6,3.6 59.3202689 0,1 1.383504,1.3501085 L0.4724797,-0.1903495 A1.81,1.81 59.4 0,1 0.4318387,-0.1670193 L1.2940398,1.4013188 A3.6,3.6 61.1202689 0,1 1.2852767,1.4061363 L0.4230889,-0.1621775 A1.81,1.81 61.2 0,1 0.3817351,-0.1401353 L0.527666,0.1462703 A0.16,0.16 307.850725 0,1 0.5894055,0.2674409 L1.1942481,1.4545112 A3.6,3.6 62.9202689 0,1 1.185338,1.4590512 L0.5887326,0.2881472 A0.16,0.16 5.5732709 0,1 0.557989,0.3679378 L1.0928348,1.5045429 A3.6,3.6 64.7202689 0,1 1.0837865,1.5088007 L0.5510389,0.3766544 A0.16,0.16 40.5633851 0,1 0.4989136,0.4167617 L0.9708252,1.5072851 1.0339839,1.5322914 1.0063746,1.6020246 0.9366413,1.5744153 0.9616476,1.5112566 0.4897724,0.4208172 A0.16,0.16 67.8661729 0,1 0.4253283,0.4325541 L0.8855453,1.5949296 A3.6,3.6 68.3202689 0,1 0.8762476,1.5986108 L0.4143087,0.4318864 A0.16,0.16 95.4442314 0,1 0.3360801,0.4025111 L0.7798737,1.6351954 A3.6,3.6 70.1202689 0,1 0.7704649,1.6385828 L0.3210344,0.3902415 A0.16,0.16 132.6751663 0,1 0.270941,0.2511017 L0.1642304,-0.0452984 A1.81,1.81 70.2 0,1 0.1199375,-0.0299968 L0.6729895,1.6721221 A3.6,3.6 71.9202689 0,1 0.6634789,1.6752123 L0.1104355,-0.0268803 A1.81,1.81 72 0,1 0.0656839,-0.0129775 L0.5649981,1.7056732 A3.6,3.6 73.7202689 0,1 0.5553951,1.7084632 L0.0560887,-0.010161 A1.81,1.81 73.8 0,1 0.0109224,0.0023293 L0.4465835,1.6991173 A0.0382208,0.0382208 263.1169181 1,1 0.4368977,1.7016042 L0.0012434,0.0048429 A1.81,1.81 75.6 0,1 -0.0442928,0.0159083 L0.3461211,1.7625199 A3.6,3.6 77.3202689 0,1 0.3363619,1.7647014 L-0.054046,0.0181167 A1.81,1.81 77.4 0,1 -0.0999074,0.0277464 L0.2354515,1.7857593 A3.6,3.6 79.1202689 0,1 0.2256287,1.7876331 L-0.1097251,0.0296473 A1.81,1.81 79.2 0,1 -0.1558663,0.0378317 L0.1241066,1.805511 A3.6,3.6 80.9202689 0,1 0.1142297,1.8070753 L-0.1657389,0.0394233 A1.81,1.81 81 0,1 -0.2121144,0.0461543 L0.0121962,1.8217555 A3.6,3.6 82.7202689 0,1 0.002275,1.8230088 L-0.2220321,0.047435 A1.81,1.81 82.8 0,1 -0.2685962,0.052706 L-0.1046892,1.7866604 -0.0523491,1.82996 -0.1001559,1.8877485 -0.1579444,1.8399417 -0.1146448,1.7876015 -0.2785492,0.0536746 A1.81,1.81 84.6 0,1 -0.3252559,0.0574803 L-0.2128788,1.8436624 A3.6,3.6 86.3202689 0,1 -0.2228591,1.8442903 L-0.3352344,0.0581358 A1.81,1.81 86.4 0,1 -0.3820376,0.0604725 L-0.3258213,1.8493031 A3.6,3.6 88.1202689 0,1 -0.3358164,1.8496172 L-0.3920318,0.0608143 A1.81,1.81 88.2 0,1 -0.4388852,0.0616798 L-0.4388852,1.8513934 A3.6,3.6 89.9202689 0,1 -0.4488852,1.8513934 L-0.4488852,0.0617074 A1.81,1.81 90 0,1 -0.4957428,0.0611008 L-0.5519591,1.8499313 A3.6,3.6 91.7202689 0,1 -0.5619541,1.8496172 L-0.5057387,0.0608143 A1.81,1.81 91.8 0,1 -0.5525541,0.0587361 L-0.6625521,1.8071041 A0.0382208,0.0382208 281.1169181 1,1 -0.6725323,1.8064762 L-0.5625361,0.0581358 A1.81,1.81 93.6 0,1 -0.6092631,0.0545881 L-0.77769,1.836359 A3.6,3.6 95.3202689 0,1 -0.7876456,1.8354179 L-0.6192213,0.0536746 A1.81,1.81 95.4 0,1 -0.6658138,0.0486609 L-0.8901244,1.8242622 A3.6,3.6 97.1202689 0,1 -0.9000455,1.8230088 L-0.6757384,0.047435 A1.81,1.81 97.2 0,1 -0.7221504,0.0409604 L-1.0021233,1.8086397 A3.6,3.6 98.9202689 0,1 -1.0120002,1.8070753 L-0.7320316,0.0394233 A1.81,1.81 99 0,1 -0.7782174,0.031494 L-1.1135763,1.7895069 A3.6,3.6 100.7202689 0,1 -1.1233992,1.7876331 L-0.7880454,0.0296473 A1.81,1.81 100.8 0,1 -0.8339593,0.0202712 L-1.2138959,1.7200099 -1.1774978,1.7773642 -1.2408224,1.8175512 -1.2810094,1.7542267 -1.2236551,1.7178285 -0.8437245,0.0181167 A1.81,1.81 102.6 0,1 -0.8893212,0.0073031 L-1.3344049,1.7407896 A3.6,3.6 104.3202689 0,1 -1.3440908,1.7383027 L-0.974706,0.2996442 -1.1191246,0.6644039 -1.1373307,0.6571956 -1.4435627,1.7112531 A3.6,3.6 106.1202689 0,1 -1.4531656,1.7084632 L-1.1466699,0.6534979 -1.2105428,0.6282088 -1.5517388,1.6783024 A3.6,3.6 107.9202689 0,1 -1.5612494,1.6752123 L-1.2198589,0.6245203 -1.2834567,0.5993402 -1.6588266,1.6419701 A3.6,3.6 109.7202689 0,1 -1.6682354,1.6385828 L-1.2927591,0.5956571 -1.3562176,0.5705321 -1.7507725,1.5670639 A0.0382208,0.0382208 299.1169181 1,1 -1.7600702,1.5633827 L-1.3655154,0.5668508 -1.4289693,0.5417276 -1.8693154,1.5593074 A3.6,3.6 113.3202689 0,1 -1.878493,1.5553359 L-1.4382717,0.5380446 -1.5018557,0.5128699 -1.9725087,1.5130585 A3.6,3.6 115.1202689 0,1 -1.981557,1.5088007 L-1.5111719,0.5091814 -1.5750217,0.4839014 -2.0741984,1.463591 A3.6,3.6 116.9202689 0,1 -2.0831085,1.4590512 L-1.5843609,0.4802038 -1.6026084,0.4729791 -1.4584214,0.1088044 -2.1742841,1.4109538 A3.6,3.6 118.7202689 0,1 -2.1830472,1.4061363 L-1.3208594,-0.1621775 A1.81,1.81 118.8 0,1 -1.3616287,-0.1852829 L-2.2482181,1.3138578 -2.2313248,1.3796526 -2.3039686,1.3983044 -2.3226203,1.3256607 -2.2568255,1.3087674 -1.3702502,-0.1903495 A1.81,1.81 120.6 0,1 -1.4102737,-0.2147241 L-2.3692502,1.2963811 A3.6,3.6 122.3202689 0,1 -2.3776935,1.2910229 L-1.4187317,-0.2200591 A1.81,1.81 122.4 0,1 -1.4579698,-0.2456788 L-2.4639381,1.2345586 A3.6,3.6 124.1202689 0,1 -2.4722089,1.2289378 L-1.4662562,-0.2512768 A1.81,1.81 124.2 0,1 -1.5046701,-0.2781163 L-2.5566374,1.1697924 A3.6,3.6 125.9202689 0,1 -2.5647276,1.1639146 L-1.5127766,-0.2839718 A1.81,1.81 126 0,1 -1.5503285,-0.3120048 L-2.6472567,1.1021464 A3.6,3.6 127.7202689 0,1 -2.6551582,1.0960174 L-1.558247,-0.318112 A1.81,1.81 127.8 0,1 -1.5948999,-0.3473107 L-2.7115551,1.0024935 A0.0382208,0.0382208 317.1169181 1,1 -2.7192602,0.9961193 L-1.6026227,-0.3536636 A1.81,1.81 129.6 0,1 -1.6383403,-0.3839992 L-2.8218992,0.9584848 A3.6,3.6 131.3202689 0,1 -2.8294003,0.9518718 L-1.6458597,-0.3905916 A1.81,1.81 131.4 0,1 -1.6806069,-0.4220341 L-2.9057502,0.882611 A3.6,3.6 133.1202689 0,1 -2.9130399,0.8757656 L-1.6879155,-0.4288594 A1.81,1.81 133.2 0,1 -1.7216579,-0.4613778 L-2.9871766,0.8041409 A3.6,3.6 134.9202689 0,1 -2.9942477,0.7970698 L-1.7287485,-0.4684293 A1.81,1.81 135 0,1 -1.7614529,-0.5019916 L-3.066098,0.7231517 A3.6,3.6 136.7202689 0,1 -3.0729434,0.7158621 L-1.7683185,-0.5092623 A1.81,1.81 136.8 0,1 -1.7999524,-0.5438353 L-3.106409,0.6079611 -3.1106743,0.675756 -3.1855263,0.6710467 -3.180817,0.5961947 -3.1130221,0.60046 -1.8065863,-0.5513181 A1.81,1.81 138.6 0,1 -1.8371187,-0.5868677 L-3.2161168,0.5539388 A3.6,3.6 140.3202689 0,1 -3.222491,0.5462336 L-1.8435142,-0.5945552 A1.81,1.81 140.4 0,1 -1.8729149,-0.6310462 L-3.2870661,0.4658819 A3.6,3.6 142.1202689 0,1 -3.2931952,0.4579804 L-1.8790658,-0.6389308 A1.81,1.81 142.2 0,1 -1.9073058,-0.6763274 L-3.3552146,0.3756399 A3.6,3.6 143.9202689 0,1 -3.3610924,0.3675498 L-1.913206,-0.6844013 A1.81,1.81 144 0,1 -1.9402574,-0.7226664 L-3.4204948,0.2833019 A3.6,3.6 145.7202689 0,1 -3.4261157,0.2750311 L-1.9459011,-0.7309217 A1.81,1.81 145.8 0,1 -1.9717372,-0.7700176 L-3.4508518,0.1686571 A0.0382208,0.0382208 335.1169181 1,1 -3.4562101,0.1602138 L-1.9771188,-0.7784461 A1.81,1.81 147.6 0,1 -2.0017141,-0.8183343 L-3.5421959,0.0927041 A3.6,3.6 149.3202689 0,1 -3.5472863,0.0840967 L-2.0068283,-0.8269276 A1.81,1.81 149.4 0,1 -2.0301586,-0.8675687 L-3.5984966,-0.0053676 A3.6,3.6 151.1202689 0,1 -3.6033142,-0.0141306 L-2.0350003,-0.8763185 A1.81,1.81 151.2 0,1 -2.0570425,-0.9176723 L-3.6516891,-0.1051593 A3.6,3.6 152.9202689 0,1 -3.656229,-0.1140693 L-2.0616071,-0.9265698 A1.81,1.81 153 0,1 -2.0823394,-0.9685956 L-3.7017208,-0.2065726 A3.6,3.6 154.7202689 0,1 -3.7059786,-0.2156208 L-2.0866222,-0.9776321 A1.81,1.81 154.8 0,1 -2.1060243,-1.0202883 L-3.704463,-0.3285822 -3.7294693,-0.2654234 -3.7992025,-0.2930328 -3.7715932,-0.362766 -3.7084344,-0.3377597 -2.1100211,-1.0294549 A1.81,1.81 156.6 0,1 -2.1280738,-1.0726996 L-3.7921074,-0.413862 A3.6,3.6 158.3202689 0,1 -3.7957887,-0.4231598 L-2.1317807,-1.0819872 A1.81,1.81 158.4 0,1 -2.1484661,-1.1257775 L-3.8323732,-0.5195336 A3.6,3.6 160.1202689 0,1 -3.8357606,-0.5289424 L-2.1518794,-1.135177 A1.81,1.81 160.2 0,1 -2.1671811,-1.1794698 L-3.8692999,-0.6264179 A3.6,3.6 161.9202689 0,1 -3.8723901,-0.6359284 L-2.1702975,-1.1889718 A1.81,1.81 162 0,1 -2.1842004,-1.2337235 L-3.9028511,-0.7344093 A3.6,3.6 163.7202689 0,1 -3.905641,-0.7440122 L-2.1870168,-1.2433187 A1.81,1.81 163.8 0,1 -2.1995071,-1.2884849 L-3.8962951,-0.8528238 A0.0382208,0.0382208 353.1169181 1,1 -3.898782,-0.8625097 L-2.2020208,-1.2981639 A1.81,1.81 165.6 0,1 -2.2130862,-1.3437002 L-3.9596977,-0.9532863 A3.6,3.6 167.3202689 0,1 -3.9618792,-0.9630454 L-2.2152946,-1.3534533 A1.81,1.81 167.4 0,1 -2.2249242,-1.3993147 L-3.9829371,-1.0639558 A3.6,3.6 169.1202689 0,1 -3.984811,-1.0737787 L-2.2268252,-1.4091324 A1.81,1.81 169.2 0,1 -2.2350095,-1.4552737 L-4.0026888,-1.1753008 A3.6,3.6 170.9202689 0,1 -4.0042532,-1.1851776 L-2.2366011,-1.4651462 A1.81,1.81 171 0,1 -2.2433321,-1.5115218 L-4.0189333,-1.2872112 A3.6,3.6 172.7202689 0,1 -4.0201867,-1.2971323 L-2.2446129,-1.5214395 A1.81,1.81 172.8 0,1 -2.2498838,-1.5680035 L-3.9838383,-1.4040966 -4.0271378,-1.3517564 -4.0849263,-1.3995632 -4.0371195,-1.4573517 -3.9847794,-1.4140522 -2.2508524,-1.5779566 A1.81,1.81 174.6 0,1 -2.2546581,-1.6246632 L-4.0408402,-1.5122862 A3.6,3.6 176.3202689 0,1 -4.0414681,-1.5222664 L-2.2553136,-1.6346418 A1.81,1.81 176.4 0,1 -2.2576504,-1.6814449 L-4.0464809,-1.6252287 A3.6,3.6 178.1202689 0,1 -4.0467951,-1.6352237 L-2.2579921,-1.6914391 A1.81,1.81 178.2 0,1 -2.2588576,-1.7382926 L-4.0485713,-1.7382926 A3.6,3.6 179.9202689 0,1 -4.0485713,-1.7482926 L-2.2588852,-1.7482926 A1.81,1.81 180 0,1 -2.2582786,-1.7951501 L-4.0471092,-1.8513664 A3.6,3.6 181.7202689 0,1 -4.0467951,-1.8613615 L-2.2579921,-1.8051461 A1.81,1.81 181.8 0,1 -2.255914,-1.8519614 L-4.004282,-1.9619594 A0.0382208,0.0382208 11.1169181 1,1 -4.0036541,-1.9719397 L-2.2553136,-1.8619434 A1.81,1.81 183.6 0,1 -2.251766,-1.9086704 L-4.0335368,-2.0770974 A3.6,3.6 185.3202689 0,1 -4.0325958,-2.087053 L-2.2508524,-1.9186287 A1.81,1.81 185.4 0,1 -2.2458388,-1.9652211 L-4.02144,-2.1895317 A3.6,3.6 187.1202689 0,1 -4.0201867,-2.1994529 L-2.2446129,-1.9751458 A1.81,1.81 187.2 0,1 -2.2381382,-2.0215578 L-4.0058175,-2.3015307 A3.6,3.6 188.9202689 0,1 -4.0042532,-2.3114076 L-2.2366011,-2.031439 A1.81,1.81 189 0,1 -2.2286718,-2.0776247 L-3.9866848,-2.4129836 A3.6,3.6 190.7202689 0,1 -3.984811,-2.4228065 L-2.2268252,-2.0874528 A1.81,1.81 190.8 0,1 -2.2174491,-2.1333667 L-3.9171878,-2.5133033 -3.9745421,-2.4769052 -4.0147291,-2.5402298 -3.9514045,-2.5804168 -3.9150064,-2.5230625 -2.2152946,-2.1431319 A1.81,1.81 192.6 0,1 -2.2044809,-2.1887286 L-3.9379674,-2.6338123 A3.6,3.6 194.3202689 0,1 -3.9354805,-2.6434981 L-2.2020208,-2.1984213 A1.81,1.81 194.4 0,1 -2.1897802,-2.2436559 L-2.4632453,-2.3231048 -2.4827233,-2.273909 -2.8550922,-2.4213402 -2.8495505,-2.4353369 -3.9084309,-2.7429701 A3.6,3.6 196.1202689 0,1 -3.905641,-2.752573 L-2.8458529,-2.4446761 -2.820622,-2.508402 -3.8754803,-2.8511462 A3.6,3.6 197.9202689 0,1 -3.8723901,-2.8606568 L-2.8169335,-2.5177181 -2.7918113,-2.5811695 -3.839148,-2.958234 A3.6,3.6 199.7202689 0,1 -3.8357606,-2.9676428 L-2.7881282,-2.5904719 -2.7630611,-2.6537844 -3.7642418,-3.0501798 A0.0382208,0.0382208 29.1169181 1,1 -3.7605605,-3.0594776 L-2.7593798,-2.6630821 -2.7343145,-2.72639 -3.7564852,-3.1687228 A3.6,3.6 203.3202689 0,1 -3.7525138,-3.1779003 L-2.7306314,-2.7356923 -2.7055147,-2.79913 -3.7102363,-3.2719161 A3.6,3.6 205.1202689 0,1 -3.7059786,-3.2809644 L-2.7018261,-2.8084461 -2.6766044,-2.8721489 -3.6607689,-3.3736058 A3.6,3.6 206.9202689 0,1 -3.656229,-3.3825159 L-2.6729067,-2.8814882 -2.6636674,-2.904824 -2.3409413,-2.7770477 -3.6081317,-3.4736915 A3.6,3.6 208.7202689 0,1 -3.6033142,-3.4824546 L-2.0350003,-2.6202668 A1.81,1.81 208.8 0,1 -2.011895,-2.6610361 L-3.5110357,-3.5476254 -3.5768305,-3.5307322 -3.5954822,-3.6033759 -3.5228385,-3.6220277 -3.5059453,-3.5562329 -2.0068283,-2.6696576 A1.81,1.81 210.6 0,1 -1.9824537,-2.709681 L-3.493559,-3.6686576 A3.6,3.6 212.3202689 0,1 -3.4882007,-3.6771008 L-1.9771188,-2.7181391 A1.81,1.81 212.4 0,1 -1.9514991,-2.7573772 L-3.4317365,-3.7633455 A3.6,3.6 214.1202689 0,1 -3.4261157,-3.7716163 L-1.9459011,-2.7656635 A1.81,1.81 214.2 0,1 -1.9190615,-2.8040775 L-3.3669703,-3.8560448 A3.6,3.6 215.9202689 0,1 -3.3610924,-3.864135 L-1.913206,-2.8121839 A1.81,1.81 216 0,1 -1.8851731,-2.8497359 L-3.2993243,-3.946664 A3.6,3.6 217.7202689 0,1 -3.2931952,-3.9545656 L-1.8790658,-2.8576544 A1.81,1.81 217.8 0,1 -1.8498672,-2.8943073 L-3.1996714,-4.0109625 A0.0382208,0.0382208 47.1169181 1,1 -3.1932972,-4.0186676 L-1.8435142,-2.90203 A1.81,1.81 219.6 0,1 -1.8131787,-2.9377477 L-3.1556627,-4.1213066 A3.6,3.6 221.3202689 0,1 -3.1490496,-4.1288077 L-1.8065863,-2.9452671 A1.81,1.81 221.4 0,1 -1.7751438,-2.9800143 L-3.0797889,-4.2051576 A3.6,3.6 223.1202689 0,1 -3.0729434,-4.2124473 L-1.7683185,-2.9873229 A1.81,1.81 223.2 0,1 -1.7358001,-3.0210653 L-3.0013187,-4.2865839 A3.6,3.6 224.9202689 0,1 -2.9942477,-4.293655 L-1.7287485,-3.0281559 A1.81,1.81 225 0,1 -1.6951863,-3.0608602 L-2.9203296,-4.3655053 A3.6,3.6 226.7202689 0,1 -2.9130399,-4.3723508 L-1.6879155,-3.0677258 A1.81,1.81 226.8 0,1 -1.6533426,-3.0993598 L-2.8051389,-4.4058163 -2.8729338,-4.4100816 -2.8682245,-4.4849336 -2.7933725,-4.4802244 -2.7976378,-4.4124295 -1.6458597,-3.1059936 A1.81,1.81 228.6 0,1 -1.6103102,-3.1365261 L-2.7511166,-4.5155241 A3.6,3.6 230.3202689 0,1 -2.7434115,-4.5218984 L-1.6026227,-3.1429216 A1.81,1.81 230.4 0,1 -1.5661316,-3.1723223 L-2.6630598,-4.5864735 A3.6,3.6 232.1202689 0,1 -2.6551582,-4.5926026 L-1.558247,-3.1784732 A1.81,1.81 232.2 0,1 -1.5208505,-3.2067132 L-2.5728178,-4.6546219 A3.6,3.6 233.9202689 0,1 -2.5647276,-4.6604998 L-1.5127766,-3.2126134 A1.81,1.81 234 0,1 -1.4745114,-3.2396648 L-2.4804797,-4.7199022 A3.6,3.6 235.7202689 0,1 -2.4722089,-4.725523 L-1.4662562,-3.2453084 A1.81,1.81 235.8 0,1 -1.4271602,-3.2711446 L-2.3658349,-4.7502592 A0.0382208,0.0382208 65.1169181 1,1 -2.3573916,-4.7556175 L-1.4187317,-3.2765262 A1.81,1.81 237.6 0,1 -1.3788436,-3.3011215 L-2.2898819,-4.8416032 A3.6,3.6 239.3202689 0,1 -2.2812745,-4.8466937 L-1.3702502,-3.3062357 A1.81,1.81 239.4 0,1 -1.3296092,-3.329566 L-2.1918103,-4.897904 A3.6,3.6 241.1202689 0,1 -2.1830472,-4.9027215 L-1.3208594,-3.3344077 A1.81,1.81 241.2 0,1 -1.2795056,-3.3564499 L-2.0920186,-4.9510964 A3.6,3.6 242.9202689 0,1 -2.0831085,-4.9556364 L-1.4779434,-3.767933 A0.16,0.16 180.8669206 0,1 -1.4509973,-3.8544028 L-1.9906053,-5.0011281 A3.6,3.6 244.7202689 0,1 -1.981557,-5.0053859 L-1.4443094,-3.8636766 A0.16,0.16 217.8450341 0,1 -1.3936999,-3.9064509 L-1.8685957,-5.0038703 -1.9317544,-5.0288766 -1.9041451,-5.0986099 -1.8344118,-5.0710005 -1.8594181,-5.0078418 -1.3847346,-3.9109129 A0.16,0.16 245.3338271 0,1 -1.3216459,-3.9254697z" transform="matrix(1,0,0,-1,4.0849263,1.8877485)" fill="rgb(0,0,0)" stroke-linecap="round" stroke-linejoin="round" /><path d="M-1.4679617,-3.7655122 a0.15,0.15 0 1,1 0.3,0 a0.15,0.15 0 1,1 -0.3,0z" transform="matrix(1,0,0,-1,4.0849263,1.8877485)" fill="rgb(255,255,255)" stroke="rgb(0,0,0)" stroke-width="0.0010cm" stroke-linecap="round" stroke-linejoin="round" /><path d="M0.279489,0.2726082 a0.15,0.15 0 1,1 0.3,0 a0.15,0.15 0 1,1 -0.3,0z" transform="matrix(1,0,0,-1,4.0849263,1.8877485)" fill="rgb(255,255,255)" stroke="rgb(0,0,0)" stroke-width="0.0010cm" stroke-linecap="round" stroke-linejoin="round" /><path d="M0.2747129,0.2320573 A0.16,0.16 194.6813397 0,1 0.3093896,0.166891 L0.2174202,-0.0653972 A1.81,1.81 68.4 0,1 0.1736298,-0.0487118 L0.2747129,0.2320573z" transform="matrix(1,0,0,-1,4.0849263,1.8877485)" fill="rgb(255,255,255)" stroke="rgb(0,0,0)" stroke-width="0.0010cm" stroke-linecap="round" stroke-linejoin="round" /><path d="M0.37193,0.12332 A0.16,0.16 248.9155467 0,1 0.4267988,0.1126308 L0.3217753,-0.1105556 A1.81,1.81 64.8 0,1 0.279119,-0.0911536 L0.37193,0.12332z" transform="matrix(1,0,0,-1,4.0849263,1.8877485)" fill="rgb(255,255,255)" stroke="rgb(0,0,0)" stroke-width="0.0010cm" stroke-linecap="round" stroke-linejoin="round" /><path d="M0.4379453,0.1128318 A0.16,0.16 273.0295897 0,1 0.5105188,0.1346438 L0.3728376,-0.1355708 A1.81,1.81 63 0,1 0.3308118,-0.1148384 L0.4379453,0.1128318z" transform="matrix(1,0,0,-1,4.0849263,1.8877485)" fill="rgb(255,255,255)" stroke="rgb(0,0,0)" stroke-width="0.0010cm" stroke-linecap="round" stroke-linejoin="round" /><path d="M0.3169655,0.1588608 A0.16,0.16 225.3098981 0,1 0.3627161,0.1272074 L0.2699524,-0.0871567 A1.81,1.81 66.6 0,1 0.2267078,-0.0691041 L0.3169655,0.1588608z" transform="matrix(1,0,0,-1,4.0849263,1.8877485)" fill="rgb(255,255,255)" stroke="rgb(0,0,0)" stroke-width="0.0010cm" stroke-linecap="round" stroke-linejoin="round" /><path d="M-1.4547631,0.1021499 L-1.4023137,0.1229161 -1.2706081,-0.1355708 A1.81,1.81 117 0,1 -1.312083,-0.1573842 L-1.4547631,0.1021499z" transform="matrix(1,0,0,-1,4.0849263,1.8877485)" fill="rgb(255,255,255)" stroke="rgb(0,0,0)" stroke-width="0.0010cm" stroke-linecap="round" stroke-linejoin="round" /><path d="M-1.2111489,-3.6463861 A0.16,0.16 48.1194245 0,1 -1.2576783,-3.6173031 L-1.1677229,-3.4094285 A1.81,1.81 246.6 0,1 -1.1244783,-3.4274811 L-1.2111489,-3.6463861z" transform="matrix(1,0,0,-1,4.0849263,1.8877485)" fill="rgb(255,255,255)" stroke="rgb(0,0,0)" stroke-width="0.0010cm" stroke-linecap="round" stroke-linejoin="round" /><path d="M-2.2488852,-1.7482926 a1.8,1.8 0 1,1 3.6,0 a1.8,1.8 0 1,1 -3.6,0z" transform="matrix(1,0,0,-1,4.0849263,1.8877485)" fill="rgb(255,255,255)" stroke="rgb(0,0,0)" stroke-width="0.0010cm" stroke-linecap="round" stroke-linejoin="round" /><path d="M-1.3408589,0.1472478 L-1.2195458,-0.1105556 A1.81,1.81 115.2 0,1 -1.2616854,-0.1310555 L-1.3929745,0.1266138 -1.3408589,0.1472478z" transform="matrix(1,0,0,-1,4.0849263,1.8877485)" fill="rgb(255,255,255)" stroke="rgb(0,0,0)" stroke-width="0.0010cm" stroke-linecap="round" stroke-linejoin="round" /><path d="M-1.2796465,0.1714835 L-1.1677229,-0.0871567 A1.81,1.81 113.4 0,1 -1.2104857,-0.1063228 L-1.3315427,0.1509363 -1.2796465,0.1714835z" transform="matrix(1,0,0,-1,4.0849263,1.8877485)" fill="rgb(255,255,255)" stroke="rgb(0,0,0)" stroke-width="0.0010cm" stroke-linecap="round" stroke-linejoin="round" /><path d="M-1.218555,0.1956713 L-1.1151907,-0.0653972 A1.81,1.81 111.6 0,1 -1.1585344,-0.0832106 L-1.2703442,0.1751665 -1.218555,0.1956713z" transform="matrix(1,0,0,-1,4.0849263,1.8877485)" fill="rgb(255,255,255)" stroke="rgb(0,0,0)" stroke-width="0.0010cm" stroke-linecap="round" stroke-linejoin="round" /><path d="M-1.1574635,0.2198592 L-1.0620009,-0.0452984 A1.81,1.81 109.8 0,1 -1.1058828,-0.0617416 L-1.2092572,0.1993526 -1.1574635,0.2198592z" transform="matrix(1,0,0,-1,4.0849263,1.8877485)" fill="rgb(255,255,255)" stroke="rgb(0,0,0)" stroke-width="0.0010cm" stroke-linecap="round" stroke-linejoin="round" /><path d="M-1.0962512,0.2440948 L-1.008206,-0.0268803 A1.81,1.81 108 0,1 -1.0525827,-0.041937 L-1.1481611,0.2235422 -1.0962512,0.2440948z" transform="matrix(1,0,0,-1,4.0849263,1.8877485)" fill="rgb(255,255,255)" stroke="rgb(0,0,0)" stroke-width="0.0010cm" stroke-linecap="round" stroke-linejoin="round" /><path d="M-1.0347963,0.2684265 L-0.9538591,-0.010161 A1.81,1.81 106.2 0,1 -0.9986869,-0.0238164 L-1.086935,0.2477834 -1.0347963,0.2684265z" transform="matrix(1,0,0,-1,4.0849263,1.8877485)" fill="rgb(255,255,255)" stroke="rgb(0,0,0)" stroke-width="0.0010cm" stroke-linecap="round" stroke-linejoin="round" /><path d="M-0.9729753,0.2929032 L-0.8990139,0.0048429 A1.81,1.81 104.4 0,1 -0.9442485,-0.0073977 L-1.0254571,0.2721242 -0.9729753,0.2929032z" transform="matrix(1,0,0,-1,4.0849263,1.8877485)" fill="rgb(255,255,255)" stroke="rgb(0,0,0)" stroke-width="0.0010cm" stroke-linecap="round" stroke-linejoin="round" /><path d="M-1.5896294,0.4673626 L-1.1247411,0.6514248 -0.9851433,0.2988409 -1.4500315,0.1147786 -1.5896294,0.4673626z" transform="matrix(1,0,0,-1,4.0849263,1.8877485)" fill="rgb(255,255,255)" stroke="rgb(0,0,0)" stroke-width="0.0010cm" stroke-linecap="round" stroke-linejoin="round" /><path d="M-2.2937815,-2.7511214 L-2.3144742,-2.6988577 -2.0616071,-2.5700154 A1.81,1.81 207 0,1 -2.0397937,-2.6114904 L-2.2937815,-2.7511214z" transform="matrix(1,0,0,-1,4.0849263,1.8877485)" fill="rgb(255,255,255)" stroke="rgb(0,0,0)" stroke-width="0.0010cm" stroke-linecap="round" stroke-linejoin="round" /><path d="M-2.4111261,-2.4547428 L-2.1518794,-2.3614082 A1.81,1.81 199.8 0,1 -2.1354362,-2.4052901 L-2.3906922,-2.5063531 -2.4111261,-2.4547428z" transform="matrix(1,0,0,-1,4.0849263,1.8877485)" fill="rgb(255,255,255)" stroke="rgb(0,0,0)" stroke-width="0.0010cm" stroke-linecap="round" stroke-linejoin="round" /><path d="M-2.3665788,-2.5672565 L-2.3870109,-2.5156508 -2.1317807,-2.414598 A1.81,1.81 201.6 0,1 -2.1139672,-2.4579418 L-2.3665788,-2.5672565z" transform="matrix(1,0,0,-1,4.0849263,1.8877485)" fill="rgb(255,255,255)" stroke="rgb(0,0,0)" stroke-width="0.0010cm" stroke-linecap="round" stroke-linejoin="round" /><path d="M-2.3181719,-2.6895184 L-2.3387328,-2.6375874 -2.0866222,-2.5189531 A1.81,1.81 205.2 0,1 -2.0661223,-2.5610928 L-2.3181719,-2.6895184z" transform="matrix(1,0,0,-1,4.0849263,1.8877485)" fill="rgb(255,255,255)" stroke="rgb(0,0,0)" stroke-width="0.0010cm" stroke-linecap="round" stroke-linejoin="round" /><path d="M-2.4148092,-2.4454404 L-2.435289,-2.3937143 -2.1702975,-2.3076134 A1.81,1.81 198 0,1 -2.1552408,-2.3519901 L-2.4148092,-2.4454404z" transform="matrix(1,0,0,-1,4.0849263,1.8877485)" fill="rgb(255,255,255)" stroke="rgb(0,0,0)" stroke-width="0.0010cm" stroke-linecap="round" stroke-linejoin="round" /><path d="M-2.4389775,-2.3843982 L-2.4595476,-2.332444 -2.1870168,-2.2532665 A1.81,1.81 196.2 0,1 -2.1733614,-2.2980943 L-2.4389775,-2.3843982z" transform="matrix(1,0,0,-1,4.0849263,1.8877485)" fill="rgb(255,255,255)" stroke="rgb(0,0,0)" stroke-width="0.0010cm" stroke-linecap="round" stroke-linejoin="round" /><path d="M-2.3424214,-2.6282712 L-2.3628957,-2.5765589 -2.1100211,-2.4671303 A1.81,1.81 203.4 0,1 -2.090855,-2.5098931 L-2.3424214,-2.6282712z" transform="matrix(1,0,0,-1,4.0849263,1.8877485)" fill="rgb(255,255,255)" stroke="rgb(0,0,0)" stroke-width="0.0010cm" stroke-linecap="round" stroke-linejoin="round" /><path d="M-2.6580509,-2.891845 L-2.8421132,-2.4269568 -2.4883398,-2.286888 -2.3042775,-2.7517762 -2.6580509,-2.891845z" transform="matrix(1,0,0,-1,4.0849263,1.8877485)" fill="rgb(255,255,255)" stroke="rgb(0,0,0)" stroke-width="0.0010cm" stroke-linecap="round" stroke-linejoin="round" /><path d="M1.5227691,-1.0384534 L1.2541089,-1.135177 A1.81,1.81 19.8 0,1 1.2376658,-1.0912951 L1.5022194,-0.9865509 1.5227691,-1.0384534z" transform="matrix(1,0,0,-1,4.0849263,1.8877485)" fill="rgb(255,255,255)" stroke="rgb(0,0,0)" stroke-width="0.0010cm" stroke-linecap="round" stroke-linejoin="round" /><path d="M1.4048438,-0.740608 L1.4256535,-0.7931674 1.1638366,-0.9265698 A1.81,1.81 27 0,1 1.1420232,-0.8850948 L1.4048438,-0.740608z" transform="matrix(1,0,0,-1,4.0849263,1.8877485)" fill="rgb(255,255,255)" stroke="rgb(0,0,0)" stroke-width="0.0010cm" stroke-linecap="round" stroke-linejoin="round" /><path d="M1.4500285,-0.8547316 L1.1888517,-0.9776321 A1.81,1.81 25.2 0,1 1.1683519,-0.9354924 L1.4293512,-0.8025066 1.4500285,-0.8547316z" transform="matrix(1,0,0,-1,4.0849263,1.8877485)" fill="rgb(255,255,255)" stroke="rgb(0,0,0)" stroke-width="0.0010cm" stroke-linecap="round" stroke-linejoin="round" /><path d="M1.5470479,-1.0997746 L1.272527,-1.1889718 A1.81,1.81 18 0,1 1.2574703,-1.1445951 L1.5264521,-1.0477557 1.5470479,-1.0997746z" transform="matrix(1,0,0,-1,4.0849263,1.8877485)" fill="rgb(255,255,255)" stroke="rgb(0,0,0)" stroke-width="0.0010cm" stroke-linecap="round" stroke-linejoin="round" /><path d="M1.4985382,-0.9772531 L1.2340102,-1.0819872 A1.81,1.81 21.6 0,1 1.2161968,-1.0386434 L1.4779904,-0.9253552 1.4985382,-0.9772531z" transform="matrix(1,0,0,-1,4.0849263,1.8877485)" fill="rgb(255,255,255)" stroke="rgb(0,0,0)" stroke-width="0.0010cm" stroke-linecap="round" stroke-linejoin="round" /><path d="M1.5810686,-1.1585365 L1.5602658,-1.1059945 1.5607355,-1.1058419 1.557047,-1.0965257 1.5565773,-1.0966783 1.5358656,-1.0443667 1.5363296,-1.0441996 1.5326465,-1.0348973 1.5321825,-1.0350643 1.5115172,-0.9828696 1.5119755,-0.9826882 1.5082943,-0.9733904 1.507836,-0.9735719 1.4871724,-0.9213818 1.487625,-0.9211859 1.483942,-0.9118836 1.4834894,-0.9120794 1.4627832,-0.8597816 1.4632301,-0.8595713 1.4595415,-0.8502551 1.4590947,-0.8504654 1.4383009,-0.7979465 1.4387421,-0.7977217 1.4350444,-0.7883825 1.4346033,-0.7886073 1.4158048,-0.7411278 1.7695782,-0.601059 1.9536405,-1.0659472 1.5998671,-1.206016 1.5847663,-1.1678757 1.5852417,-1.1677376 1.5815441,-1.1583984 1.5810686,-1.1585365z" transform="matrix(1,0,0,-1,4.0849263,1.8877485)" fill="rgb(255,255,255)" stroke="rgb(0,0,0)" stroke-width="0.0010cm" stroke-linecap="round" stroke-linejoin="round" /><path d="M1.4743073,-0.9160529 L1.2122506,-1.0294549 A1.81,1.81 23.4 0,1 1.1930845,-0.9866921 L1.453717,-0.8640478 1.4743073,-0.9160529z" transform="matrix(1,0,0,-1,4.0849263,1.8877485)" fill="rgb(255,255,255)" stroke="rgb(0,0,0)" stroke-width="0.0010cm" stroke-linecap="round" stroke-linejoin="round" /><path d="M1.5714229,-1.1613388 L1.2892463,-1.2433187 A1.81,1.81 16.2 0,1 1.2755909,-1.1984909 L1.5507364,-1.1090908 1.5714229,-1.1613388z" transform="matrix(1,0,0,-1,4.0849263,1.8877485)" fill="rgb(255,255,255)" stroke="rgb(0,0,0)" stroke-width="0.0010cm" stroke-linecap="round" stroke-linejoin="round" /><path d="M0.1366674,-3.7637779 L0.0560887,-3.4864242 A1.81,1.81 286.2 0,1 0.1009164,-3.4727688 L0.1887685,-3.7431496 0.1366674,-3.7637779z" transform="matrix(1,0,0,-1,4.0849263,1.8877485)" fill="rgb(255,255,255)" stroke="rgb(0,0,0)" stroke-width="0.0010cm" stroke-linecap="round" stroke-linejoin="round" /><path d="M0.3813678,-3.6668941 L0.2699524,-3.4094285 A1.81,1.81 293.4 0,1 0.3127152,-3.3902624 L0.4332265,-3.6463618 0.3813678,-3.6668941z" transform="matrix(1,0,0,-1,4.0849263,1.8877485)" fill="rgb(255,255,255)" stroke="rgb(0,0,0)" stroke-width="0.0010cm" stroke-linecap="round" stroke-linejoin="round" /><path d="M0.3203136,-3.6910672 L0.2174202,-3.431188 A1.81,1.81 291.6 0,1 0.2607639,-3.4133746 L0.3720654,-3.6705772 0.3203136,-3.6910672z" transform="matrix(1,0,0,-1,4.0849263,1.8877485)" fill="rgb(255,255,255)" stroke="rgb(0,0,0)" stroke-width="0.0010cm" stroke-linecap="round" stroke-linejoin="round" /><path d="M0.1980846,-3.7394611 L0.1104355,-3.4697049 A1.81,1.81 288 0,1 0.1548122,-3.4546482 L0.2499571,-3.7189233 0.1980846,-3.7394611z" transform="matrix(1,0,0,-1,4.0849263,1.8877485)" fill="rgb(255,255,255)" stroke="rgb(0,0,0)" stroke-width="0.0010cm" stroke-linecap="round" stroke-linejoin="round" /><path d="M0.4425426,-3.6426733 L0.3217753,-3.3860296 A1.81,1.81 295.2 0,1 0.363915,-3.3655297 L0.4946207,-3.6220541 0.4425426,-3.6426733z" transform="matrix(1,0,0,-1,4.0849263,1.8877485)" fill="rgb(255,255,255)" stroke="rgb(0,0,0)" stroke-width="0.0010cm" stroke-linecap="round" stroke-linejoin="round" /><path d="M0.5563715,-3.5976053 L0.5039599,-3.6183565 0.3728376,-3.3610144 A1.81,1.81 297 0,1 0.4143125,-3.339201 L0.5563715,-3.5976053z" transform="matrix(1,0,0,-1,4.0849263,1.8877485)" fill="rgb(255,255,255)" stroke="rgb(0,0,0)" stroke-width="0.0010cm" stroke-linecap="round" stroke-linejoin="round" /><path d="M0.2592595,-3.7152402 L0.1642304,-3.4512868 A1.81,1.81 289.8 0,1 0.2081123,-3.4348436 L0.3110159,-3.6947484 0.2592595,-3.7152402z" transform="matrix(1,0,0,-1,4.0849263,1.8877485)" fill="rgb(255,255,255)" stroke="rgb(0,0,0)" stroke-width="0.0010cm" stroke-linecap="round" stroke-linejoin="round" /><path d="M0.7011566,-3.9602665 L0.2362684,-4.1443288 0.0961996,-3.7905554 0.1301305,-3.7771213 0.130489,-3.7783552 0.1398282,-3.7746575 0.1394697,-3.7734236 0.1918647,-3.7526789 0.1922608,-3.7538979 0.201577,-3.7502094 0.2011809,-3.7489904 0.2533462,-3.7283367 0.2537797,-3.7295409 0.263082,-3.7258578 0.2626485,-3.7246537 0.3146971,-3.7040462 0.315168,-3.7052355 0.3244658,-3.7015543 0.3239949,-3.7003649 0.3760389,-3.6797593 0.3765471,-3.6809338 0.3858495,-3.6772508 0.3853412,-3.6760762 0.4374927,-3.655428 0.4380384,-3.6565877 0.4473546,-3.6528992 0.4468088,-3.6517394 0.4991808,-3.6310039 0.4997641,-3.6321488 0.5091034,-3.6284511 0.50852,-3.6273062 0.5610879,-3.6064932 0.7011566,-3.9602665z" transform="matrix(1,0,0,-1,4.0849263,1.8877485)" fill="rgb(255,255,255)" stroke="rgb(0,0,0)" stroke-width="0.0010cm" stroke-linecap="round" stroke-linejoin="round" /><path d="M-1.3342704,-3.6063455 A0.16,0.16 95.8502766 0,1 -1.4100381,-3.6346613 L-1.2706081,-3.3610144 A1.81,1.81 243 0,1 -1.2285823,-3.3817468 L-1.3342704,-3.6063455z" transform="matrix(1,0,0,-1,4.0849263,1.8877485)" fill="rgb(255,255,255)" stroke="rgb(0,0,0)" stroke-width="0.0010cm" stroke-linecap="round" stroke-linejoin="round" /><path d="M-1.2670681,-3.6138222 A0.16,0.16 71.4528562 0,1 -1.3228617,-3.6055872 L-1.2195458,-3.3860296 A1.81,1.81 244.8 0,1 -1.1768895,-3.4054316 L-1.2670681,-3.6138222z" transform="matrix(1,0,0,-1,4.0849263,1.8877485)" fill="rgb(255,255,255)" stroke="rgb(0,0,0)" stroke-width="0.0010cm" stroke-linecap="round" stroke-linejoin="round" /><path d="M-1.1668379,-3.7129614 A0.16,0.16 19.1742537 0,1 -1.2033545,-3.6538645 L-1.1151907,-3.431188 A1.81,1.81 248.4 0,1 -1.0714003,-3.4478734 L-1.1668379,-3.7129614z" transform="matrix(1,0,0,-1,4.0849263,1.8877485)" fill="rgb(255,255,255)" stroke="rgb(0,0,0)" stroke-width="0.0010cm" stroke-linecap="round" stroke-linejoin="round" /></svg>