<?xml version="1.0" encoding="utf-8"?>
<!-- Generator: Fusion 360, Shaper Origin Export Add-In, Version 1.6.10  -->
<svg xmlns="http://www.w3.org/2000/svg" xmlns:xlink="http://www.w3.org/1999/xlink" xmlns:shaper="http://www.shapertools.com/namespaces/shaper" shaper:fusionaddin="version:1.6.10" width="7.2916573cm" height="7.2916573cm" version="1.1" x="0cm" y="0cm" viewBox="0 0 7.2916573 7.2916573" enable-background="new 0 0 7.2916573 7.2916573" xml:space="preserve"><path d="M-1.5298288,0.2868721 A2.81,2.81 133.2 0,1 -1.5861379,0.2324988 L-2.1445428,0.7909037 A3.6,3.6 134.9202689 0,1 -2.1516139,0.7838327 L-1.5932215,0.2254403 A2.81,2.81 135 0,1 -1.6477949,0.1693251 L-2.2234642,0.7099146 A3.6,3.6 136.7202689 0,1 -2.2303097,0.7026249 L-1.6546533,0.1620476 A2.81,2.81 136.8 0,1 -1.7074371,0.1042459 L-2.2713818,0.6014301 A0.0382208,0.0382208 326.1169181 1,1 -2.277995,0.593929 L-1.7140636,0.0967566 A2.81,2.81 138.6 0,1 -1.7650057,0.0373254 L-2.373483,0.5407016 A3.6,3.6 140.3202689 0,1 -2.3798572,0.5329965 L-1.7713937,0.0296317 A2.81,2.81 140.4 0,1 -1.8204439,-0.0313703 L-2.4444323,0.4526448 A3.6,3.6 142.1202689 0,1 -2.4505614,0.4447432 L-1.826587,-0.0392609 A2.81,2.81 142.2 0,1 -1.873697,-0.1017735 L-2.5125808,0.3624028 A3.6,3.6 143.9202689 0,1 -2.5184586,0.3543126 L-1.8795892,-0.1098532 A2.81,2.81 144 0,1 -1.9247123,-0.1738147 L-2.577861,0.2700647 A3.6,3.6 145.7202689 0,1 -2.5834819,0.2617939 L-1.1032673,-0.7441588 A1.81,1.81 145.8 0,1 -1.1291034,-0.7832548 L-2.5996559,0.1499862 -2.6144742,0.2162792 -2.6876679,0.1999185 -2.6713072,0.1267247 -2.6050142,0.141543 -1.134485,-0.7916833 A1.81,1.81 147.6 0,1 -1.1590803,-0.8315714 L-2.6995621,0.0794669 A3.6,3.6 149.3202689 0,1 -2.7046525,0.0708595 L-1.1641945,-0.8401648 A1.81,1.81 149.4 0,1 -1.1875248,-0.8808058 L-2.7558628,-0.0186047 A3.6,3.6 151.1202689 0,1 -2.7606804,-0.0273678 L-1.1923665,-0.8895556 A1.81,1.81 151.2 0,1 -1.2144087,-0.9309094 L-2.8090553,-0.1183964 A3.6,3.6 152.9202689 0,1 -2.8135952,-0.1273065 L-1.2189733,-0.939807 A1.81,1.81 153 0,1 -1.2397056,-0.9818327 L-2.859087,-0.2198097 A3.6,3.6 154.7202689 0,1 -2.8633448,-0.228858 L-1.2439884,-0.9908692 A1.81,1.81 154.8 0,1 -1.2633905,-1.0335255 L-2.8711358,-0.337792 A0.0382208,0.0382208 344.1169181 1,1 -2.8751073,-0.3469695 L-1.2673873,-1.0426921 A1.81,1.81 156.6 0,1 -1.28544,-1.0859367 L-2.9494736,-0.4270992 A3.6,3.6 158.3202689 0,1 -2.9531549,-0.4363969 L-1.2891469,-1.0952243 A1.81,1.81 158.4 0,1 -1.3058323,-1.1390147 L-2.9897394,-0.5327708 A3.6,3.6 160.1202689 0,1 -2.9931268,-0.5421796 L-1.3092456,-1.1484141 A1.81,1.81 160.2 0,1 -1.3245473,-1.192707 L-3.0266661,-0.639655 A3.6,3.6 161.9202689 0,1 -3.0297563,-0.6491656 L-1.3276637,-1.202209 A1.81,1.81 162 0,1 -1.3415666,-1.2469606 L-3.0602173,-0.7476464 A3.6,3.6 163.7202689 0,1 -3.0630072,-0.7572494 L-1.344383,-1.2565559 A1.81,1.81 163.8 0,1 -1.3568733,-1.3017221 L-3.0438392,-0.8685829 -3.0784179,-0.8101136 -3.1429735,-0.8482917 -3.1047954,-0.9128473 -3.0463261,-0.8782687 -1.359387,-1.3114011 A1.81,1.81 165.6 0,1 -1.3704524,-1.3569373 L-3.1170639,-0.9665234 A3.6,3.6 167.3202689 0,1 -3.1192454,-0.9762826 L-1.3726608,-1.3666905 A1.81,1.81 167.4 0,1 -1.3822904,-1.4125519 L-3.1403033,-1.077193 A3.6,3.6 169.1202689 0,1 -3.1421772,-1.0870159 L-1.3841914,-1.4223696 A1.81,1.81 169.2 0,1 -1.3923757,-1.4685108 L-3.160055,-1.1885379 A3.6,3.6 170.9202689 0,1 -3.1616194,-1.1984148 L-1.3939673,-1.4783834 A1.81,1.81 171 0,1 -1.4006983,-1.5247589 L-3.1762995,-1.3004483 A3.6,3.6 172.7202689 0,1 -3.1775529,-1.3103695 L-1.4019791,-1.5346766 A1.81,1.81 172.8 0,1 -1.40725,-1.5812407 L-3.1513002,-1.4163794 A0.0382208,0.0382208 2.1169181 1,1 -3.1522413,-1.426335 L-1.4082186,-1.5911937 A1.81,1.81 174.6 0,1 -1.4120244,-1.6379004 L-3.1982064,-1.5255233 A3.6,3.6 176.3202689 0,1 -3.1988343,-1.5355036 L-1.4126798,-1.6478789 A1.81,1.81 176.4 0,1 -1.4150166,-1.6946821 L-3.2038471,-1.6384658 A3.6,3.6 178.1202689 0,1 -3.2041613,-1.6484609 L-1.4153583,-1.7046763 A1.81,1.81 178.2 0,1 -1.4162238,-1.7515298 L-3.2059375,-1.7515298 A3.6,3.6 179.9202689 0,1 -3.2059375,-1.7615298 L-1.4162514,-1.7615298 A1.81,1.81 180 0,1 -1.4156448,-1.8083873 L-3.2044754,-1.8646036 A3.6,3.6 181.7202689 0,1 -3.2041613,-1.8745986 L-1.4153583,-1.8183832 A1.81,1.81 181.8 0,1 -1.4132802,-1.8651986 L-3.1515275,-1.9745598 -3.2024817,-1.9296376 -3.2520801,-1.985896 -3.1958218,-2.0354944 -3.1508996,-1.9845401 -1.4126798,-1.8751806 A1.81,1.81 183.6 0,1 -1.4091322,-1.9219076 L-3.190903,-2.0903345 A3.6,3.6 185.3202689 0,1 -3.189962,-2.1002901 L-1.4082186,-1.9318658 A1.81,1.81 185.4 0,1 -1.403205,-1.9784583 L-3.1788062,-2.2027689 A3.6,3.6 187.1202689 0,1 -3.1775529,-2.21269 L-1.4019791,-1.9883829 A1.81,1.81 187.2 0,1 -1.3955044,-2.0347949 L-3.1631837,-2.3147678 A3.6,3.6 188.9202689 0,1 -3.1616194,-2.3246447 L-1.3939673,-2.0446761 A1.81,1.81 189 0,1 -1.3860381,-2.0908619 L-3.144051,-2.4262208 A3.6,3.6 190.7202689 0,1 -3.1421772,-2.4360437 L-1.3841914,-2.1006899 A1.81,1.81 190.8 0,1 -1.3748153,-2.1466038 L-3.0844505,-2.5287526 A0.0382208,0.0382208 20.1169181 1,1 -3.082269,-2.5385117 L-1.3726608,-2.156369 A1.81,1.81 192.6 0,1 -1.3618471,-2.2019657 L-3.0953336,-2.6470494 A3.6,3.6 194.3202689 0,1 -3.0928467,-2.6567353 L-1.359387,-2.2116585 A1.81,1.81 194.4 0,1 -1.3471464,-2.256893 L-3.0657971,-2.7562072 A3.6,3.6 196.1202689 0,1 -3.0630072,-2.7658101 L-1.344383,-2.2665037 A1.81,1.81 196.2 0,1 -1.3307276,-2.3113314 L-3.0328465,-2.8643833 A3.6,3.6 197.9202689 0,1 -3.0297563,-2.8738939 L-1.3276637,-2.3208505 A1.81,1.81 198 0,1 -1.312607,-2.3652272 L-2.9965142,-2.9714711 A3.6,3.6 199.7202689 0,1 -2.9931268,-2.9808799 L-1.3092456,-2.3746454 A1.81,1.81 199.8 0,1 -1.2928024,-2.4185273 L-2.9121794,-3.059684 -2.9745215,-3.0327061 -3.0043076,-3.1015377 -2.935476,-3.1313238 -2.9084982,-3.0689817 -1.2891469,-2.4278352 A1.81,1.81 201.6 0,1 -1.2713334,-2.4711789 L-2.9138514,-3.1819599 A3.6,3.6 203.3202689 0,1 -2.90988,-3.1911375 L-1.2673873,-2.4803674 A1.81,1.81 203.4 0,1 -1.2482212,-2.5231302 L-2.8676025,-3.2851533 A3.6,3.6 205.1202689 0,1 -2.8633448,-3.2942015 L-1.2439884,-2.5321903 A1.81,1.81 205.2 0,1 -1.2234885,-2.57433 L-2.8181351,-3.3868429 A3.6,3.6 206.9202689 0,1 -2.8135952,-3.395753 L-1.2189733,-2.5832526 A1.81,1.81 207 0,1 -1.1971599,-2.6247275 L-2.7654979,-3.4869287 A3.6,3.6 208.7202689 0,1 -2.7606804,-3.4956917 L-1.1923665,-2.6335039 A1.81,1.81 208.8 0,1 -1.1692612,-2.6742732 L-2.6771304,-3.5660246 A0.0382208,0.0382208 38.1169181 1,1 -2.67204,-3.574632 L-1.1641945,-2.6828947 A1.81,1.81 210.6 0,1 -1.1398199,-2.7229182 L-2.6509252,-3.6818947 A3.6,3.6 212.3202689 0,1 -2.6455669,-3.690338 L-1.134485,-2.7313763 A1.81,1.81 212.4 0,1 -1.1088653,-2.7706143 L-2.5891027,-3.7765826 A3.6,3.6 214.1202689 0,1 -2.5834819,-3.7848535 L-1.1032673,-2.7789007 A1.81,1.81 214.2 0,1 -1.0764277,-2.8173147 L-2.5243365,-3.8692819 A3.6,3.6 215.9202689 0,1 -2.5184586,-3.8773721 L-1.0705722,-2.8254211 A1.81,1.81 216 0,1 -1.0425393,-2.862973 L-2.4566905,-3.9599012 A3.6,3.6 217.7202689 0,1 -2.4505614,-3.9678027 L-1.036432,-2.8708915 A1.81,1.81 217.8 0,1 -1.0072334,-2.9075444 L-2.3492241,-4.0177357 -2.4168515,-4.011343 -2.4239096,-4.0860102 -2.3492425,-4.0930683 -2.3428498,-4.0254408 -1.0008804,-2.9152672 A1.81,1.81 219.6 0,1 -0.9705449,-2.9509849 L-2.3130289,-4.1345437 A3.6,3.6 221.3202689 0,1 -2.3064158,-4.1420449 L-1.7140636,-3.6198161 A2.81,2.81 221.4 0,1 -1.6614858,-3.6778053 L-2.2371551,-4.2183947 A3.6,3.6 223.1202689 0,1 -2.2303097,-4.2256844 L-1.6546533,-3.6851071 A2.81,2.81 223.2 0,1 -1.60028,-3.7414162 L-2.1586849,-4.2998211 A3.6,3.6 224.9202689 0,1 -2.1516139,-4.3068922 L-1.5932215,-3.7484998 A2.81,2.81 225 0,1 -1.5371063,-3.8030732 L-2.0776958,-4.3787425 A3.6,3.6 226.7202689 0,1 -2.0704061,-4.385588 L-1.5298288,-3.8099316 A2.81,2.81 226.8 0,1 -1.4720271,-3.8627154 L-1.9692113,-4.4266601 A0.0382208,0.0382208 56.1169181 1,1 -1.9617102,-4.4332733 L-1.4645378,-3.8693419 A2.81,2.81 228.6 0,1 -1.4051067,-3.920284 L-1.9084828,-4.5287613 A3.6,3.6 230.3202689 0,1 -1.9007777,-4.5351355 L-1.3974129,-3.926672 A2.81,2.81 230.4 0,1 -1.3364109,-3.9757222 L-1.820426,-4.5997106 A3.6,3.6 232.1202689 0,1 -1.8125244,-4.6058397 L-1.3285203,-3.9818653 A2.81,2.81 232.2 0,1 -1.2660077,-4.0289753 L-1.730184,-4.6678591 A3.6,3.6 233.9202689 0,1 -1.7220938,-4.6737369 L-1.257928,-4.0348675 A2.81,2.81 234 0,1 -1.1939665,-4.0799906 L-1.6378459,-4.7331393 A3.6,3.6 235.7202689 0,1 -1.6295751,-4.7387602 L-0.6236224,-3.2585456 A1.81,1.81 235.8 0,1 -0.5845264,-3.2843817 L-1.5177675,-4.7549343 -1.5840604,-4.7697525 -1.5676997,-4.8429463 -1.4945059,-4.8265855 -1.5093242,-4.7602925 -0.5760979,-3.2897633 A1.81,1.81 237.6 0,1 -0.5362098,-3.3143586 L-1.4472481,-4.8548404 A3.6,3.6 239.3202689 0,1 -1.4386407,-4.8599308 L-0.5276164,-3.3194728 A1.81,1.81 239.4 0,1 -0.4869754,-3.3428031 L-1.3491765,-4.9111411 A3.6,3.6 241.1202689 0,1 -1.3404134,-4.9159587 L-0.4782256,-3.3476448 A1.81,1.81 241.2 0,1 -0.4368718,-3.369687 L-1.2493848,-4.9643336 A3.6,3.6 242.9202689 0,1 -1.2404747,-4.9688735 L-0.4279743,-3.3742516 A1.81,1.81 243 0,1 -0.3859485,-3.3949839 L-1.1479715,-5.0143653 A3.6,3.6 244.7202689 0,1 -1.1389232,-5.0186231 L-0.376912,-3.3992667 A1.81,1.81 244.8 0,1 -0.3342557,-3.4186688 L-1.0299892,-5.0264141 A0.0382208,0.0382208 74.1169181 1,1 -1.0208117,-5.0303856 L-0.3250891,-3.4226656 A1.81,1.81 246.6 0,1 -0.2818445,-3.4407183 L-0.940682,-5.1047519 A3.6,3.6 248.3202689 0,1 -0.9313843,-5.1084332 L-0.2725569,-3.4444252 A1.81,1.81 248.4 0,1 -0.2287665,-3.4611106 L-0.8350104,-5.1450177 A3.6,3.6 250.1202689 0,1 -0.8256016,-5.1484051 L-0.2193671,-3.4645239 A1.81,1.81 250.2 0,1 -0.1750742,-3.4798256 L-0.7281262,-5.1819444 A3.6,3.6 251.9202689 0,1 -0.7186156,-5.1850346 L-0.1655722,-3.482942 A1.81,1.81 252 0,1 -0.1208206,-3.4968449 L-0.6201348,-5.2154956 A3.6,3.6 253.7202689 0,1 -0.6105318,-5.2182855 L-0.1112254,-3.4996613 A1.81,1.81 253.8 0,1 -0.0660591,-3.5121516 L-0.4991983,-5.1991175 -0.5576676,-5.2336962 -0.5194895,-5.2982518 -0.4549339,-5.2600737 -0.4895125,-5.2016044 -0.0563801,-3.5146653 A1.81,1.81 255.6 0,1 -0.0108439,-3.5257307 L-0.4012578,-5.2723423 A3.6,3.6 257.3202689 0,1 -0.3914986,-5.2745237 L-0.0010907,-3.5279391 A1.81,1.81 257.4 0,1 0.0447707,-3.5375687 L-0.2905882,-5.2955816 A3.6,3.6 259.1202689 0,1 -0.2807654,-5.2974555 L0.0545884,-3.5394697 A1.81,1.81 259.2 0,1 0.1007296,-3.547654 L-0.1792433,-5.3153333 A3.6,3.6 260.9202689 0,1 -0.1693664,-5.3168977 L0.1106022,-3.5492457 A1.81,1.81 261 0,1 0.1569777,-3.5559766 L-0.0673329,-5.3315779 A3.6,3.6 262.7202689 0,1 -0.0574117,-5.3328312 L0.1668954,-3.5572574 A1.81,1.81 262.8 0,1 0.2134595,-3.5625283 L0.0485982,-5.3065785 A0.0382208,0.0382208 92.1169181 1,1 0.0585538,-5.3075196 L0.2234125,-3.5634969 A1.81,1.81 264.6 0,1 0.2701192,-3.5673027 L0.1577421,-5.3534847 A3.6,3.6 266.3202689 0,1 0.1677224,-5.3541127 L0.2800977,-3.5679581 A1.81,1.81 266.4 0,1 0.3269009,-3.5702949 L0.2706846,-5.3591254 A3.6,3.6 268.1202689 0,1 0.2806797,-5.3594396 L0.3368951,-3.5706366 A1.81,1.81 268.2 0,1 0.3837486,-3.5715021 L0.3837486,-5.3612158 A3.6,3.6 269.9202689 0,1 0.3937486,-5.3612158 L0.3937486,-4.5715298 A2.81,2.81 270 0,1 0.4720172,-4.5704395 L0.4968224,-5.3597537 A3.6,3.6 271.7202689 0,1 0.5068174,-5.3594396 L0.4820128,-4.5701432 A2.81,2.81 271.8 0,1 0.5602085,-4.566595 L0.6067786,-5.3068058 0.5618564,-5.35776 0.6181148,-5.4073584 0.6677132,-5.3511001 0.6167589,-5.3061779 0.5701899,-4.5659849 A2.81,2.81 273.6 0,1 0.6482356,-4.5599822 L0.7225533,-5.3461813 A3.6,3.6 275.3202689 0,1 0.7325089,-5.3452403 L0.6581929,-4.5590589 A2.81,2.81 275.4 0,1 0.7360116,-4.5506077 L0.8349877,-5.3340845 A3.6,3.6 277.1202689 0,1 0.8449088,-5.3328312 L0.7459349,-4.5493721 A2.81,2.81 277.2 0,1 0.8234497,-4.5384808 L0.9469866,-5.318462 A3.6,3.6 278.9202689 0,1 0.9568635,-5.3168977 L0.6768949,-3.5492457 A1.81,1.81 279 0,1 0.7230807,-3.5413164 L1.0584396,-5.2993293 A3.6,3.6 280.7202689 0,1 1.0682625,-5.2974555 L0.7329087,-3.5394697 A1.81,1.81 280.8 0,1 0.7788226,-3.5300936 L1.1609714,-5.2397288 A0.0382208,0.0382208 110.1169181 1,1 1.1707305,-5.2375474 L0.7885878,-3.5279391 A1.81,1.81 282.6 0,1 0.8341845,-3.5171254 L1.2792682,-5.2506119 A3.6,3.6 284.3202689 0,1 1.2889541,-5.2481251 L0.8438772,-3.5146653 A1.81,1.81 284.4 0,1 0.8891118,-3.5024247 L1.388426,-5.2210754 A3.6,3.6 286.1202689 0,1 1.3980289,-5.2182855 L0.8987225,-3.4996613 A1.81,1.81 286.2 0,1 0.9435502,-3.4860059 L1.4966021,-5.1881248 A3.6,3.6 287.9202689 0,1 1.5061127,-5.1850346 L0.9530693,-3.482942 A1.81,1.81 288 0,1 0.997446,-3.4678853 L1.6036899,-5.1517925 A3.6,3.6 289.7202689 0,1 1.6130987,-5.1484051 L1.0068642,-3.4645239 A1.81,1.81 289.8 0,1 1.0507461,-3.4480808 L1.6919027,-5.0674577 1.6649249,-5.1297998 1.7337565,-5.1595859 1.7635426,-5.0907543 1.7012005,-5.0637765 1.060054,-3.4444252 A1.81,1.81 291.6 0,1 1.1033977,-3.4266118 L1.8141787,-5.0691297 A3.6,3.6 293.3202689 0,1 1.8233563,-5.0651583 L1.1125862,-3.4226656 A1.81,1.81 293.4 0,1 1.155349,-3.4034995 L1.917372,-5.0228808 A3.6,3.6 295.1202689 0,1 1.9264203,-5.0186231 L1.1644091,-3.3992667 A1.81,1.81 295.2 0,1 1.2065487,-3.3787669 L2.0190617,-4.9734134 A3.6,3.6 296.9202689 0,1 2.0279718,-4.9688735 L1.2154714,-3.3742516 A1.81,1.81 297 0,1 1.2569463,-3.3524382 L2.1191475,-4.9207762 A3.6,3.6 298.7202689 0,1 2.1279105,-4.9159587 L1.2657227,-3.3476448 A1.81,1.81 298.8 0,1 1.306492,-3.3245395 L2.1982434,-4.8324087 A0.0382208,0.0382208 128.1169181 1,1 2.2068508,-4.8273183 L1.3151135,-3.3194728 A1.81,1.81 300.6 0,1 1.355137,-3.2950982 L2.3141135,-4.8062035 A3.6,3.6 302.3202689 0,1 2.3225568,-4.8008452 L1.363595,-3.2897633 A1.81,1.81 302.4 0,1 1.4028331,-3.2641436 L2.4088014,-4.744381 A3.6,3.6 304.1202689 0,1 2.4170722,-4.7387602 L1.4111195,-3.2585456 A1.81,1.81 304.2 0,1 1.4495335,-3.231706 L2.5015007,-4.6796148 A3.6,3.6 305.9202689 0,1 2.5095909,-4.6737369 L1.4576399,-3.2258505 A1.81,1.81 306 0,1 1.4951918,-3.1978176 L2.59212,-4.6119688 A3.6,3.6 307.7202689 0,1 2.6000215,-4.6058397 L1.5031103,-3.1917103 A1.81,1.81 307.8 0,1 1.5397632,-3.1625117 L2.6499545,-4.5045024 2.6435618,-4.5721298 2.7182289,-4.579188 2.7252871,-4.5045208 2.6576596,-4.4981281 1.547486,-3.1561587 A1.81,1.81 309.6 0,1 1.5832036,-3.1258232 L2.7667625,-4.4683072 A3.6,3.6 311.3202689 0,1 2.7742636,-4.4616941 L2.2520349,-3.8693419 A2.81,2.81 311.4 0,1 2.3100241,-3.8167641 L2.8506135,-4.3924334 A3.6,3.6 313.1202689 0,1 2.8579032,-4.385588 L2.3173259,-3.8099316 A2.81,2.81 313.2 0,1 2.373635,-3.7555583 L2.9320399,-4.3139632 A3.6,3.6 314.9202689 0,1 2.939111,-4.3068922 L2.3807186,-3.7484998 A2.81,2.81 315 0,1 2.435292,-3.6923846 L3.0109613,-4.2329741 A3.6,3.6 316.7202689 0,1 3.0178068,-4.2256844 L2.4421504,-3.6851071 A2.81,2.81 316.8 0,1 2.4949342,-3.6273054 L3.0588789,-4.1244896 A0.0382208,0.0382208 146.1169181 1,1 3.0654921,-4.1169885 L2.5015607,-3.6198161 A2.81,2.81 318.6 0,1 2.5525028,-3.560385 L3.1609801,-4.0637611 A3.6,3.6 320.3202689 0,1 3.1673543,-4.056056 L2.5588908,-3.5526912 A2.81,2.81 320.4 0,1 2.607941,-3.4916892 L3.2319294,-3.9757043 A3.6,3.6 322.1202689 0,1 3.2380585,-3.9678027 L2.6140841,-3.4837986 A2.81,2.81 322.2 0,1 2.6611941,-3.421286 L3.3000779,-3.8854623 A3.6,3.6 323.9202689 0,1 3.3059557,-3.8773721 L2.6670863,-3.4132063 A2.81,2.81 324 0,1 2.7122094,-3.3492449 L3.3653581,-3.7931242 A3.6,3.6 325.7202689 0,1 3.370979,-3.7848535 L1.8907644,-2.7789007 A1.81,1.81 325.8 0,1 1.9166005,-2.7398047 L3.3871531,-3.6730458 3.4019713,-3.7393387 3.475165,-3.722978 3.4588043,-3.6497842 3.3925113,-3.6646025 1.9219821,-2.7313763 A1.81,1.81 327.6 0,1 1.9465774,-2.6914881 L3.4870592,-3.6025264 A3.6,3.6 329.3202689 0,1 3.4921496,-3.593919 L1.9516916,-2.6828947 A1.81,1.81 329.4 0,1 1.9750219,-2.6422537 L3.5433599,-3.5044548 A3.6,3.6 331.1202689 0,1 3.5481775,-3.4956917 L1.9798636,-2.6335039 A1.81,1.81 331.2 0,1 2.0019058,-2.5921501 L3.5965524,-3.4046631 A3.6,3.6 332.9202689 0,1 3.6010923,-3.395753 L2.0064704,-2.5832526 A1.81,1.81 333 0,1 2.0272027,-2.5412268 L3.6465841,-3.3032498 A3.6,3.6 334.7202689 0,1 3.6508419,-3.2942015 L2.0314855,-2.5321903 A1.81,1.81 334.8 0,1 2.0508876,-2.489534 L3.6586329,-3.1852675 A0.0382208,0.0382208 164.1169181 1,1 3.6626044,-3.17609 L2.0548844,-2.4803674 A1.81,1.81 336.6 0,1 2.0729371,-2.4371228 L3.7369707,-3.0959603 A3.6,3.6 338.3202689 0,1 3.740652,-3.0866626 L2.076644,-2.4278352 A1.81,1.81 338.4 0,1 2.0933294,-2.3840448 L3.7772365,-2.9902887 A3.6,3.6 340.1202689 0,1 3.7806239,-2.9808799 L2.0967427,-2.3746454 A1.81,1.81 340.2 0,1 2.1120444,-2.3303525 L3.8141632,-2.8834045 A3.6,3.6 341.9202689 0,1 3.8172534,-2.8738939 L2.1151608,-2.3208505 A1.81,1.81 342 0,1 2.1290637,-2.2760989 L3.8477144,-2.7754131 A3.6,3.6 343.7202689 0,1 3.8505043,-2.7658101 L2.1318801,-2.2665037 A1.81,1.81 343.8 0,1 2.1443704,-2.2213374 L3.8313363,-2.6544766 3.865915,-2.7129459 3.9304706,-2.6747678 3.8922925,-2.6102122 3.8338232,-2.6447908 2.1468841,-2.2116585 A1.81,1.81 345.6 0,1 2.1579495,-2.1661222 L3.904561,-2.5565361 A3.6,3.6 347.3202689 0,1 3.9067425,-2.5467769 L2.1601579,-2.156369 A1.81,1.81 347.4 0,1 2.1697875,-2.1105076 L3.9278004,-2.4458665 A3.6,3.6 349.1202689 0,1 3.9296743,-2.4360437 L2.1716885,-2.1006899 A1.81,1.81 349.2 0,1 2.1798728,-2.0545487 L3.9475521,-2.3345216 A3.6,3.6 350.9202689 0,1 3.9491165,-2.3246447 L2.1814644,-2.0446761 A1.81,1.81 351 0,1 2.1881954,-1.9983006 L3.9637966,-2.2226112 A3.6,3.6 352.7202689 0,1 3.96505,-2.21269 L2.1894762,-1.9883829 A1.81,1.81 352.8 0,1 2.1947471,-1.9418188 L3.9387973,-2.1066801 A0.0382208,0.0382208 182.1169181 1,1 3.9397384,-2.0967245 L2.1957157,-1.9318658 A1.81,1.81 354.6 0,1 2.1995215,-1.8851591 L3.9857035,-1.9975362 A3.6,3.6 356.3202689 0,1 3.9863314,-1.9875559 L2.2001769,-1.8751806 A1.81,1.81 356.4 0,1 2.2025137,-1.8283774 L3.9913442,-1.8845937 A3.6,3.6 358.1202689 0,1 3.9916584,-1.8745986 L2.2028554,-1.8183832 A1.81,1.81 358.2 0,1 2.2037209,-1.7715298 L3.9934346,-1.7715298 A3.6,3.6 359.9202689 0,1 3.9934346,-1.7615298 L2.2037486,-1.7615298 A1.81,1.81 0 0,1 2.2031419,-1.7146722 L3.9919725,-1.658456 A3.6,3.6 1.7202689 0,1 3.9916584,-1.6484609 L2.2028554,-1.7046763 A1.81,1.81 1.8 0,1 2.2007773,-1.6578609 L3.9390246,-1.5484997 3.9899788,-1.5934219 4.0395772,-1.5371635 3.9833189,-1.4875652 3.9383967,-1.5385194 2.2001769,-1.6478789 A1.81,1.81 3.6 0,1 2.1966293,-1.6011519 L3.9784001,-1.432725 A3.6,3.6 5.3202689 0,1 3.9774591,-1.4227694 L2.1957157,-1.5911937 A1.81,1.81 5.4 0,1 2.1907021,-1.5446012 L3.9663033,-1.3202906 A3.6,3.6 7.1202689 0,1 3.96505,-1.3103695 L2.1894762,-1.5346766 A1.81,1.81 7.2 0,1 2.1830015,-1.4882646 L3.9506808,-1.2082917 A3.6,3.6 8.9202689 0,1 3.9491165,-1.1984148 L2.1814644,-1.4783834 A1.81,1.81 9 0,1 2.1735352,-1.4321976 L3.9315481,-1.0968387 A3.6,3.6 10.7202689 0,1 3.9296743,-1.0870159 L2.1716885,-1.4223696 A1.81,1.81 10.8 0,1 2.1623124,-1.3764557 L3.8719476,-0.9943069 A0.0382208,0.0382208 200.1169181 1,1 3.8697661,-0.9845478 L2.1601579,-1.3666905 A1.81,1.81 12.6 0,1 2.1493442,-1.3210938 L3.8828307,-0.8760101 A3.6,3.6 14.3202689 0,1 3.8803438,-0.8663242 L2.1468841,-1.3114011 A1.81,1.81 14.4 0,1 2.1346435,-1.2661665 L3.8532942,-0.7668523 A3.6,3.6 16.1202689 0,1 3.8505043,-0.7572494 L2.1318801,-1.2565559 A1.81,1.81 16.2 0,1 2.1182247,-1.2117281 L3.8203436,-0.6586762 A3.6,3.6 17.9202689 0,1 3.8172534,-0.6491656 L2.1151608,-1.202209 A1.81,1.81 18 0,1 2.1001041,-1.1578323 L3.7840113,-0.5515884 A3.6,3.6 19.7202689 0,1 3.7806239,-0.5421796 L2.0967427,-1.1484141 A1.81,1.81 19.8 0,1 2.0802996,-1.1045322 L3.6996765,-0.4633756 3.7620186,-0.4903534 3.7918047,-0.4215218 3.7229731,-0.3917357 3.6959953,-0.4540778 2.076644,-1.0952243 A1.81,1.81 21.6 0,1 2.0588305,-1.0518806 L3.7013485,-0.3410996 A3.6,3.6 23.3202689 0,1 3.6973771,-0.331922 L2.0548844,-1.0426921 A1.81,1.81 23.4 0,1 2.0357183,-0.9999293 L3.6550996,-0.2379063 A3.6,3.6 25.1202689 0,1 3.6508419,-0.228858 L2.0314855,-0.9908692 A1.81,1.81 25.2 0,1 2.0109857,-0.9487296 L3.6056322,-0.1362166 A3.6,3.6 26.9202689 0,1 3.6010923,-0.1273065 L2.0064704,-0.939807 A1.81,1.81 27 0,1 1.984657,-0.898332 L3.552995,-0.0361309 A3.6,3.6 28.7202689 0,1 3.5481775,-0.0273678 L1.9798636,-0.8895556 A1.81,1.81 28.8 0,1 1.9567583,-0.8487863 L3.4646275,0.0429651 A0.0382208,0.0382208 218.1169181 1,1 3.4595371,0.0515725 L1.9516916,-0.8401648 A1.81,1.81 30.6 0,1 1.927317,-0.8001413 L3.4384223,0.1588352 A3.6,3.6 32.3202689 0,1 3.433064,0.1672785 L1.9219821,-0.7916833 A1.81,1.81 32.4 0,1 1.8963624,-0.7524452 L3.3765998,0.2535231 A3.6,3.6 34.1202689 0,1 3.370979,0.2617939 L1.8907644,-0.7441588 A1.81,1.81 34.2 0,1 1.8639248,-0.7057449 L3.3118336,0.3462224 A3.6,3.6 35.9202689 0,1 3.3059557,0.3543126 L1.8580693,-0.6976384 A1.81,1.81 36 0,1 1.8300364,-0.6600865 L3.2441876,0.4368417 A3.6,3.6 37.7202689 0,1 3.2380585,0.4447432 L1.8239291,-0.652168 A1.81,1.81 37.8 0,1 1.7947305,-0.6155151 L3.1367212,0.4946762 3.2043486,0.4882835 3.2114067,0.5629506 3.1367396,0.5700088 3.1303469,0.5023813 1.7883775,-0.6077923 A1.81,1.81 39.6 0,1 1.758042,-0.5720747 L3.100526,0.6114842 A3.6,3.6 41.3202689 0,1 3.0939129,0.6189853 L2.5015607,0.0967566 A2.81,2.81 41.4 0,1 2.4489829,0.1547457 L3.0246522,0.6953352 A3.6,3.6 43.1202689 0,1 3.0178068,0.7026249 L2.4421504,0.1620476 A2.81,2.81 43.2 0,1 2.3877771,0.2183567 L2.946182,0.7767616 A3.6,3.6 44.9202689 0,1 2.939111,0.7838327 L2.3807186,0.2254403 A2.81,2.81 45 0,1 2.3246034,0.2800136 L2.8651929,0.855683 A3.6,3.6 46.7202689 0,1 2.8579032,0.8625284 L2.3173259,0.2868721 A2.81,2.81 46.8 0,1 2.2595242,0.3396559 L2.7567084,0.9036006 A0.0382208,0.0382208 236.1169181 1,1 2.7492073,0.9102138 L2.2520349,0.3462824 A2.81,2.81 48.6 0,1 2.1926038,0.3972245 L2.6959799,1.0057018 A3.6,3.6 50.3202689 0,1 2.6882748,1.012076 L2.18491,0.4036125 A2.81,2.81 50.4 0,1 2.123908,0.4526627 L2.6079231,1.0766511 A3.6,3.6 52.1202689 0,1 2.6000215,1.0827802 L2.1160174,0.4588058 A2.81,2.81 52.2 0,1 2.0535048,0.5059158 L2.5176811,1.1447996 A3.6,3.6 53.9202689 0,1 2.5095909,1.1506774 L2.0454251,0.511808 A2.81,2.81 54 0,1 1.9814636,0.5569311 L2.425343,1.2100798 A3.6,3.6 55.7202689 0,1 2.4170722,1.2157007 L1.4111195,-0.2645139 A1.81,1.81 55.8 0,1 1.3720235,-0.2386778 L2.3052646,1.2318747 2.3715575,1.246693 2.3551968,1.3198867 2.282003,1.303526 2.2968213,1.237233 1.363595,-0.2332962 A1.81,1.81 57.6 0,1 1.3237069,-0.2087009 L2.2347452,1.3317809 A3.6,3.6 59.3202689 0,1 2.2261378,1.3368713 L1.3151135,-0.2035867 A1.81,1.81 59.4 0,1 1.2744725,-0.1802564 L2.1366736,1.3880816 A3.6,3.6 61.1202689 0,1 2.1279105,1.3928992 L1.2657227,-0.1754147 A1.81,1.81 61.2 0,1 1.2243689,-0.1533725 L2.0368819,1.4412741 A3.6,3.6 62.9202689 0,1 2.0279718,1.445814 L1.2154714,-0.1488079 A1.81,1.81 63 0,1 1.1734456,-0.1280756 L1.9354686,1.4913057 A3.6,3.6 64.7202689 0,1 1.9264203,1.4955636 L1.1644091,-0.1237928 A1.81,1.81 64.8 0,1 1.1217528,-0.1043907 L1.8174863,1.5033546 A0.0382208,0.0382208 254.1169181 1,1 1.8083088,1.5073261 L1.1125862,-0.1003939 A1.81,1.81 66.6 0,1 1.0693416,-0.0823412 L1.7281791,1.5816924 A3.6,3.6 68.3202689 0,1 1.7188814,1.5853737 L1.060054,-0.0786343 A1.81,1.81 68.4 0,1 1.0162636,-0.0619489 L1.6225075,1.6219582 A3.6,3.6 70.1202689 0,1 1.6130987,1.6253456 L1.0068642,-0.0585356 A1.81,1.81 70.2 0,1 0.9625713,-0.0432339 L1.5156233,1.6588849 A3.6,3.6 71.9202689 0,1 1.5061127,1.6619751 L0.9530693,-0.0401175 A1.81,1.81 72 0,1 0.9083177,-0.0262146 L1.4076319,1.6924361 A3.6,3.6 73.7202689 0,1 1.3980289,1.695226 L0.8987225,-0.0233982 A1.81,1.81 73.8 0,1 0.8535562,-0.0109079 L1.2866954,1.676058 1.3451647,1.7106367 1.3069866,1.7751923 1.242431,1.7370142 1.2770096,1.6785449 0.8438772,-0.0083942 A1.81,1.81 75.6 0,1 0.798341,0.0026712 L1.1887549,1.7492827 A3.6,3.6 77.3202689 0,1 1.1789957,1.7514642 L0.7885878,0.0048796 A1.81,1.81 77.4 0,1 0.7427264,0.0145092 L1.0780853,1.7725221 A3.6,3.6 79.1202689 0,1 1.0682625,1.774396 L0.7329087,0.0164102 A1.81,1.81 79.2 0,1 0.6867675,0.0245945 L0.9667404,1.7922738 A3.6,3.6 80.9202689 0,1 0.9568635,1.7938382 L0.6768949,0.0261861 A1.81,1.81 81 0,1 0.6305194,0.0329171 L0.85483,1.8085183 A3.6,3.6 82.7202689 0,1 0.8449088,1.8097717 L0.6206017,0.0341979 A1.81,1.81 82.8 0,1 0.5740376,0.0394688 L0.7388989,1.783519 A0.0382208,0.0382208 272.1169181 1,1 0.7289433,1.7844601 L0.5640846,0.0404374 A1.81,1.81 84.6 0,1 0.5173779,0.0442431 L0.629755,1.8304252 A3.6,3.6 86.3202689 0,1 0.6197747,1.8310531 L0.5073994,0.0448986 A1.81,1.81 86.4 0,1 0.4605962,0.0472354 L0.5168125,1.8360659 A3.6,3.6 88.1202689 0,1 0.5068174,1.8363801 L0.4820128,1.0470837 A2.81,2.81 88.2 0,1 0.4037486,1.0484525 L0.4037486,1.8381563 A3.6,3.6 89.9202689 0,1 0.3937486,1.8381563 L0.3937486,1.0484702 A2.81,2.81 90 0,1 0.3154799,1.04738 L0.2906747,1.8366942 A3.6,3.6 91.7202689 0,1 0.2806797,1.8363801 L0.3054843,1.0470837 A2.81,2.81 91.8 0,1 0.2272886,1.0435355 L0.1807185,1.7837463 0.2256407,1.8347005 0.1693823,1.8842989 0.1197839,1.8280406 0.1707382,1.7831184 0.2173072,1.0429254 A2.81,2.81 93.6 0,1 0.1392615,1.0369227 L0.0649438,1.8231218 A3.6,3.6 95.3202689 0,1 0.0549882,1.8221808 L0.1293042,1.0359994 A2.81,2.81 95.4 0,1 0.0514855,1.0275482 L-0.0474906,1.811025 A3.6,3.6 97.1202689 0,1 -0.0574117,1.8097717 L0.0415622,1.0263126 A2.81,2.81 97.2 0,1 -0.0359526,1.0154213 L-0.1594895,1.7954025 A3.6,3.6 98.9202689 0,1 -0.1693664,1.7938382 L0.1106022,0.0261861 A1.81,1.81 99 0,1 0.0644164,0.0182568 L-0.2709425,1.7762697 A3.6,3.6 100.7202689 0,1 -0.2807654,1.774396 L0.0545884,0.0164102 A1.81,1.81 100.8 0,1 0.0086745,0.0070341 L-0.3734743,1.7166693 A0.0382208,0.0382208 290.1169181 1,1 -0.3832334,1.7144878 L-0.0010907,0.0048796 A1.81,1.81 102.6 0,1 -0.0466874,-0.0059341 L-0.4917711,1.7275524 A3.6,3.6 104.3202689 0,1 -0.501457,1.7250655 L-0.0563801,-0.0083942 A1.81,1.81 104.4 0,1 -0.1016147,-0.0206348 L-0.6009289,1.6980159 A3.6,3.6 106.1202689 0,1 -0.6105318,1.695226 L-0.1112254,-0.0233982 A1.81,1.81 106.2 0,1 -0.1560531,-0.0370536 L-0.709105,1.6650653 A3.6,3.6 107.9202689 0,1 -0.7186156,1.6619751 L-0.1655722,-0.0401175 A1.81,1.81 108 0,1 -0.2099489,-0.0551742 L-0.8161928,1.628733 A3.6,3.6 109.7202689 0,1 -0.8256016,1.6253456 L-0.2193671,-0.0585356 A1.81,1.81 109.8 0,1 -0.263249,-0.0749788 L-0.9044056,1.5443982 -0.8774278,1.6067403 -0.9462594,1.6365264 -0.9760455,1.5676948 -0.9137034,1.5407169 -0.2725569,-0.0786343 A1.81,1.81 111.6 0,1 -0.3159006,-0.0964478 L-1.0266816,1.5460702 A3.6,3.6 113.3202689 0,1 -1.0358592,1.5420988 L-0.3250891,-0.1003939 A1.81,1.81 113.4 0,1 -0.3678519,-0.11956 L-1.1298749,1.4998213 A3.6,3.6 115.1202689 0,1 -1.1389232,1.4955636 L-0.376912,-0.1237928 A1.81,1.81 115.2 0,1 -0.4190516,-0.1442927 L-1.2315646,1.4503539 A3.6,3.6 116.9202689 0,1 -1.2404747,1.445814 L-0.4279743,-0.1488079 A1.81,1.81 117 0,1 -0.4694492,-0.1706213 L-1.3316504,1.3977167 A3.6,3.6 118.7202689 0,1 -1.3404134,1.3928992 L-0.4782256,-0.1754147 A1.81,1.81 118.8 0,1 -0.5189949,-0.19852 L-1.4107463,1.3093492 A0.0382208,0.0382208 308.1169181 1,1 -1.4193537,1.3042588 L-0.5276164,-0.2035867 A1.81,1.81 120.6 0,1 -0.5676399,-0.2279613 L-1.5266164,1.2831439 A3.6,3.6 122.3202689 0,1 -1.5350597,1.2777857 L-0.5760979,-0.2332962 A1.81,1.81 122.4 0,1 -0.615336,-0.2589159 L-1.6213043,1.2213215 A3.6,3.6 124.1202689 0,1 -1.6295751,1.2157007 L-0.6236224,-0.2645139 A1.81,1.81 124.2 0,1 -0.6620363,-0.2913535 L-1.7140036,1.1565553 A3.6,3.6 125.9202689 0,1 -1.7220938,1.1506774 L-0.6701428,-0.297209 A1.81,1.81 126 0,1 -0.7076947,-0.3252419 L-1.8046229,1.0889093 A3.6,3.6 127.7202689 0,1 -1.8125244,1.0827802 L-0.7156132,-0.3313492 A1.81,1.81 127.8 0,1 -0.7522661,-0.3605478 L-1.8624574,0.9814429 -1.8560647,1.0490703 -1.9307318,1.0561284 -1.93779,0.9814613 -1.8701625,0.9750686 -0.7599889,-0.3669008 A1.81,1.81 129.6 0,1 -0.7957065,-0.3972363 L-1.9792654,0.9452477 A3.6,3.6 131.3202689 0,1 -1.9867665,0.9386346 L-1.4645378,0.3462824 A2.81,2.81 131.4 0,1 -1.522527,0.2937046 L-2.0631164,0.8693739 A3.6,3.6 133.1202689 0,1 -2.0704061,0.8625284 L-1.5298288,0.2868721z" transform="matrix(1,0,0,-1,3.2520801,1.8842989)" fill="rgb(0,0,0)" stroke-linecap="round" stroke-linejoin="round" /><path d="M-1.5229833,0.2795824 L-1.3114962,0.0543715 -1.3048536,0.061906 -1.5156814,0.2864149 A2.8,2.8 132.9953718 0,0 -1.4579247,0.3387812 L-0.8032259,-0.4038287 A1.81,1.81 131.4 0,1 -0.8379731,-0.4352712 L-1.0441068,-0.2157612 -1.0507494,-0.2232957 -0.8452817,-0.4420965 A1.81,1.81 133.2 0,1 -0.8790241,-0.4746149 L-1.0880425,-0.2655965 -1.0946687,-0.2731125 -0.8861147,-0.4816665 A1.81,1.81 135 0,1 -0.9188191,-0.5152287 L-1.1317984,-0.3152278 -1.1384148,-0.3227326 -0.9256847,-0.5224995 A1.81,1.81 136.8 0,1 -0.9573186,-0.5570724 L-1.1754614,-0.3647537 -1.1820745,-0.3722549 -0.9639525,-0.5645553 A1.81,1.81 138.6 0,1 -0.9944849,-0.6001048 L-1.2191178,-0.4142723 -1.2257342,-0.4217771 -1.0008804,-0.6077923 A1.81,1.81 140.4 0,1 -1.0302811,-0.6442834 L-1.2628541,-0.4638813 -1.2694803,-0.4713972 -1.036432,-0.652168 A1.81,1.81 142.2 0,1 -1.064672,-0.6895645 L-1.306757,-0.5136794 -1.3133996,-0.521214 -1.0705722,-0.6976384 A1.81,1.81 144 0,1 -1.0976236,-0.7359036 L-1.9164415,-0.1794355 A2.8,2.8 145.5953718 0,0 -1.871499,-0.115731 L-1.6215576,-0.2973241 -1.614915,-0.2897896 -1.8656067,-0.1076514 A2.8,2.8 143.7953718 0,0 -1.8186855,-0.04539 L-1.5697103,-0.2385149 -1.5630841,-0.230999 -1.8125423,-0.0374994 A2.8,2.8 141.9953718 0,0 -1.7636885,0.0232574 L-1.5180677,-0.1799378 -1.5114513,-0.172433 -1.7573005,0.0309512 A2.8,2.8 140.1953718 0,0 -1.7065624,0.0901435 L-1.4665269,-0.1214763 -1.4599138,-0.1139752 -1.6999359,0.0976328 A2.8,2.8 138.3953718 0,0 -1.6473636,0.1552021 L-1.4149861,-0.0630148 -1.4083698,-0.05551 -1.6405051,0.1624796 A2.8,2.8 136.5953718 0,0 -1.5861504,0.2183692 L-1.3633435,-0.0044377 -1.3567173,0.0030782 -1.5790667,0.2254277 A2.8,2.8 134.7953718 0,0 -1.5229833,0.2795824z" transform="matrix(1,0,0,-1,3.2520801,1.8842989)" fill="rgb(255,255,255)" stroke="rgb(0,0,0)" stroke-width="0.0010cm" stroke-linecap="round" stroke-linejoin="round" /><path d="M0.7347582,-4.5406865 A2.8,2.8 276.9953718 0,0 0.6572518,-4.5491033 L0.6130638,-4.0816423 A0.15,0.15 301.2739135 0,0 0.6035229,-4.0869715 L0.6472945,-4.5500266 A2.8,2.8 275.1953718 0,0 0.569562,-4.5560046 L0.5410817,-4.1033224 A0.15,0.15 272.2494005 0,0 0.5310656,-4.1033812 L0.5595806,-4.5566147 A2.8,2.8 273.3953718 0,0 0.4816987,-4.5601481 L0.4668279,-4.0869522 A0.15,0.15 242.8851435 0,0 0.456643,-4.0812257 L0.471703,-4.5604444 A2.8,2.8 271.5953718 0,0 0.3937486,-4.5615298 L0.3937486,-4.0033691 A0.15,0.15 199.4433029 0,0 0.3937486,-3.9035069 L0.3937486,-3.5715298 A1.81,1.81 270 0,1 0.4406061,-3.5709231 L0.4487741,-3.8308347 A0.15,0.15 125.1790907 0,0 0.4585794,-3.82448 L0.450602,-3.5706366 A1.81,1.81 271.8 0,1 0.4974174,-3.5685585 L0.5123053,-3.8051946 A0.15,0.15 98.7772355 0,0 0.5222497,-3.8039976 L0.5073994,-3.5679581 A1.81,1.81 273.6 0,1 0.5541264,-3.5644105 L0.577291,-3.8094662 A0.15,0.15 73.7013101 0,0 0.5876614,-3.8129133 L0.5640846,-3.5634969 A1.81,1.81 275.4 0,1 0.6106771,-3.5584833 L0.6480953,-3.8546789 A0.15,0.15 41.1774849 0,0 0.6601721,-3.8704889 L0.6206017,-3.5572574 A1.81,1.81 277.2 0,1 0.6670137,-3.5507827 L0.8218854,-4.5286038 A2.8,2.8 278.7953718 0,0 0.7446816,-4.5394509 L0.6768742,-4.0027004 A0.15,0.15 340.8273518 0,0 0.6691087,-4.021017 L0.7347582,-4.5406865z" transform="matrix(1,0,0,-1,3.2520801,1.8842989)" fill="rgb(255,255,255)" stroke="rgb(0,0,0)" stroke-width="0.0010cm" stroke-linecap="round" stroke-linejoin="round" /><path d="M2.4348607,0.1552021 L2.2133109,-0.052847 2.2208454,-0.0594896 2.4416932,0.1479002 A2.8,2.8 42.9953718 0,0 2.4940595,0.0901435 L1.7514496,-0.5645553 A1.81,1.81 41.4 0,1 1.7200071,-0.5298081 L1.9426025,-0.3207771 1.9350679,-0.3141345 1.7131818,-0.5224995 A1.81,1.81 43.2 0,1 1.6806634,-0.4887571 L1.8926672,-0.2767532 1.8851513,-0.270127 1.6736118,-0.4816665 A1.81,1.81 45 0,1 1.6400496,-0.4489621 L1.8429364,-0.2329096 1.8354316,-0.2262932 1.6327788,-0.4420965 A1.81,1.81 46.8 0,1 1.5982059,-0.4104626 L1.7933111,-0.1891591 1.78581,-0.182546 1.590723,-0.4038287 A1.81,1.81 48.6 0,1 1.5551735,-0.3732963 L1.7436933,-0.145415 1.7361885,-0.1387987 1.547486,-0.3669008 A1.81,1.81 50.4 0,1 1.5109949,-0.3375001 L1.6939847,-0.1015911 1.6864688,-0.0949649 1.5031103,-0.3313492 A1.81,1.81 52.2 0,1 1.4657138,-0.3031092 L1.6440867,-0.0576 1.6365521,-0.0509574 1.4576399,-0.297209 A1.81,1.81 54 0,1 1.4193747,-0.2701576 L1.9758428,0.5486602 A2.8,2.8 55.5953718 0,0 2.0395473,0.5037178 L1.8609062,0.2578395 1.8684407,0.2511969 2.0476269,0.4978255 A2.8,2.8 53.7953718 0,0 2.1098883,0.4509043 L1.919834,0.2058877 1.9273499,0.1992615 2.1177789,0.4447611 A2.8,2.8 51.9953718 0,0 2.1785357,0.3959073 L1.9785292,0.1541409 1.986034,0.1475245 2.1862295,0.3895193 A2.8,2.8 50.1953718 0,0 2.2454218,0.3387812 L2.0371085,0.1024963 2.0446096,0.0958831 2.2529111,0.3321547 A2.8,2.8 48.3953718 0,0 2.3104804,0.2795824 L2.0956879,0.0508516 2.1031927,0.0442352 2.3177579,0.2727239 A2.8,2.8 46.5953718 0,0 2.3736475,0.2183692 L2.1543831,-0.0008952 2.1618991,-0.0075214 2.380706,0.2112855 A2.8,2.8 44.7953718 0,0 2.4348607,0.1552021z" transform="matrix(1,0,0,-1,3.2520801,1.8842989)" fill="rgb(255,255,255)" stroke="rgb(0,0,0)" stroke-width="0.0010cm" stroke-linecap="round" stroke-linejoin="round" /><path d="M-1.4062514,-1.7615298 a1.8,1.8 0 1,1 3.6,0 a1.8,1.8 0 1,1 -3.6,0z" transform="matrix(1,0,0,-1,3.2520801,1.8842989)" fill="rgb(255,255,255)" stroke="rgb(0,0,0)" stroke-width="0.0010cm" stroke-linecap="round" stroke-linejoin="round" /><path d="M2.3736475,-3.7414287 L2.1508406,-3.5186218 2.1442144,-3.5261377 2.3665638,-3.7484872 A2.8,2.8 314.7953718 0,0 2.3104804,-3.8026419 L2.0989933,-3.577431 2.0923507,-3.5849655 2.3031785,-3.8094744 A2.8,2.8 312.9953718 0,0 2.2454218,-3.8618408 L1.590723,-3.1192308 A1.81,1.81 311.4 0,1 1.6254702,-3.0877883 L1.8316039,-3.3072983 1.8382465,-3.2997638 1.6327788,-3.080963 A1.81,1.81 313.2 0,1 1.6665212,-3.0484446 L1.8755396,-3.257463 1.8821658,-3.249947 1.6736118,-3.041393 A1.81,1.81 315 0,1 1.7063162,-3.0078308 L1.9192955,-3.2078317 1.9259119,-3.2003269 1.7131818,-3.00056 A1.81,1.81 316.8 0,1 1.7448157,-2.9659871 L1.9629585,-3.1583058 1.9695716,-3.1508047 1.7514496,-2.9585042 A1.81,1.81 318.6 0,1 1.781982,-2.9229547 L2.0066149,-3.1087872 2.0132313,-3.1012824 1.7883775,-2.9152672 A1.81,1.81 320.4 0,1 1.8177782,-2.8787761 L2.0503512,-3.0591782 2.0569774,-3.0516623 1.8239291,-2.8708915 A1.81,1.81 322.2 0,1 1.8521691,-2.833495 L2.0942541,-3.0093801 2.1008967,-3.0018455 1.8580693,-2.8254211 A1.81,1.81 324 0,1 1.8851207,-2.7871559 L2.7039386,-3.343624 A2.8,2.8 325.5953718 0,0 2.6589961,-3.4073285 L2.4090547,-3.2257354 2.4024121,-3.2332699 2.6531038,-3.4154081 A2.8,2.8 323.7953718 0,0 2.6061826,-3.4776695 L2.3572074,-3.2845446 2.3505812,-3.2920605 2.6000394,-3.4855601 A2.8,2.8 321.9953718 0,0 2.5511856,-3.5463169 L2.3055648,-3.3431217 2.2989484,-3.3506265 2.5447976,-3.5540107 A2.8,2.8 320.1953718 0,0 2.4940595,-3.613203 L2.254024,-3.4015832 2.2474109,-3.4090843 2.487433,-3.6206923 A2.8,2.8 318.3953718 0,0 2.4348607,-3.6782617 L2.2024832,-3.4600447 2.1958669,-3.4675495 2.4280022,-3.6855391 A2.8,2.8 316.5953718 0,0 2.3736475,-3.7414287z" transform="matrix(1,0,0,-1,3.2520801,1.8842989)" fill="rgb(255,255,255)" stroke="rgb(0,0,0)" stroke-width="0.0010cm" stroke-linecap="round" stroke-linejoin="round" /><path d="M0.0428155,1.0163914 L0.112047,0.4683675 A0.15,0.15 168.2727723 0,0 0.1191112,0.4922361 L0.0527389,1.017627 A2.8,2.8 96.9953718 0,0 0.1302453,1.0260437 L0.1741454,0.5616291 A0.15,0.15 124.411823 0,0 0.1836242,0.5676145 L0.1402026,1.0269671 A2.8,2.8 95.1953718 0,0 0.2179351,1.0329451 L0.2459714,0.58732 A0.15,0.15 94.9505995 0,0 0.2559578,0.5878504 L0.2279165,1.0335552 A2.8,2.8 93.3953718 0,0 0.3057984,1.0370886 L0.3203286,0.5747317 A0.15,0.15 65.8317579 0,0 0.3304916,0.5697012 L0.3157941,1.0373849 A2.8,2.8 91.5953718 0,0 0.3937486,1.0384702 L0.3937486,0.5036076 A0.15,0.15 25.9882547 0,0 0.4037486,0.4769119 L0.4037486,1.0384524 A2.8,2.8 89.7953718 0,0 0.4816987,1.0370886 L0.450602,0.0475771 A1.81,1.81 88.2 0,1 0.4037486,0.0484426 L0.4037486,0.3988473 A0.15,0.15 344.9171488 0,0 0.3937486,0.3721516 L0.3937486,0.0484702 A1.81,1.81 90 0,1 0.346891,0.0478636 L0.3386275,0.3108124 A0.15,0.15 302.1007923 0,0 0.3288004,0.3051537 L0.3368951,0.0475771 A1.81,1.81 91.8 0,1 0.2900797,0.045499 L0.2747775,0.2887206 A0.15,0.15 276.0700092 0,0 0.2648034,0.2879952 L0.2800977,0.0448986 A1.81,1.81 93.6 0,1 0.2333707,0.041351 L0.2092677,0.2963344 A0.15,0.15 250.6712168 0,0 0.1988352,0.3004376 L0.2234125,0.0404374 A1.81,1.81 95.4 0,1 0.17682,0.0354238 L0.1370213,0.3504628 A0.15,0.15 215.6462139 0,0 0.1242432,0.3718247 L0.1668954,0.0341979 A1.81,1.81 97.2 0,1 0.1204834,0.0277232 L-0.0343883,1.0055443 A2.8,2.8 98.7953718 0,0 0.0428155,1.0163914z" transform="matrix(1,0,0,-1,3.2520801,1.8842989)" fill="rgb(255,255,255)" stroke="rgb(0,0,0)" stroke-width="0.0010cm" stroke-linecap="round" stroke-linejoin="round" /><path d="M-1.6473636,-3.6782617 L-1.4184916,-3.4633365 -1.4260261,-3.4566939 -1.6541961,-3.6709597 A2.8,2.8 222.9953718 0,0 -1.7065624,-3.613203 L-0.9639525,-2.9585042 A1.81,1.81 221.4 0,1 -0.93251,-2.9932514 L-1.1474223,-3.1950675 -1.1398877,-3.2017101 -0.9256847,-3.00056 A1.81,1.81 223.2 0,1 -0.8931663,-3.0343024 L-1.0977358,-3.238872 -1.0902199,-3.2454982 -0.8861147,-3.041393 A1.81,1.81 225 0,1 -0.8525525,-3.0740974 L-1.0482529,-3.2824971 -1.0407481,-3.2891135 -0.8452817,-3.080963 A1.81,1.81 226.8 0,1 -0.8107088,-3.112597 L-0.9988749,-3.3260296 -0.9913738,-3.3326427 -0.8032259,-3.1192308 A1.81,1.81 228.6 0,1 -0.7676764,-3.1497632 L-0.9495044,-3.3695555 -0.9419996,-3.3761719 -0.7599889,-3.1561587 A1.81,1.81 230.4 0,1 -0.7234978,-3.1855594 L-0.9000437,-3.413161 -0.8925278,-3.4197872 -0.7156132,-3.1917103 A1.81,1.81 232.2 0,1 -0.6782167,-3.2199503 L-0.8503945,-3.4569327 -0.8428599,-3.4635753 -0.6701428,-3.2258505 A1.81,1.81 234 0,1 -0.6318776,-3.2529019 L-1.1883457,-4.0717198 A2.8,2.8 235.5953718 0,0 -1.2520502,-4.0267773 L-1.067505,-3.7727728 -1.0750396,-3.7661302 -1.2601298,-4.020885 A2.8,2.8 233.7953718 0,0 -1.3223912,-3.9739638 L-1.1261957,-3.72103 -1.1337116,-3.7144038 -1.3302818,-3.9678206 A2.8,2.8 231.9953718 0,0 -1.3910386,-3.9189668 L-1.1846547,-3.6694915 -1.1921595,-3.6628751 -1.3987324,-3.9125788 A2.8,2.8 230.1953718 0,0 -1.4579247,-3.8618408 L-1.2429983,-3.6180547 -1.2504994,-3.6114415 -1.465414,-3.8552142 A2.8,2.8 228.3953718 0,0 -1.5229833,-3.8026419 L-1.301342,-3.5666178 -1.3088468,-3.5600014 -1.5302608,-3.7957834 A2.8,2.8 226.5953718 0,0 -1.5861504,-3.7414287 L-1.359801,-3.5150793 -1.3673169,-3.5084531 -1.5932089,-3.734345 A2.8,2.8 224.7953718 0,0 -1.6473636,-3.6782617z" transform="matrix(1,0,0,-1,3.2520801,1.8842989)" fill="rgb(255,255,255)" stroke="rgb(0,0,0)" stroke-width="0.0010cm" stroke-linecap="round" stroke-linejoin="round" /></svg>